solid OpenSCAD_Model
  facet normal -0.809017 -0.587785 0
    outer loop
      vertex -2.96338 4.54737 0
      vertex -3.14608 4.79884 4
      vertex -3.14608 4.79884 0
    endloop
  endfacet
  facet normal -0.809017 -0.587785 0
    outer loop
      vertex -3.14608 4.79884 4
      vertex -2.96338 4.54737 0
      vertex -2.96338 4.54737 4
    endloop
  endfacet
  facet normal 1 -0 0
    outer loop
      vertex -5.28022 3.79459 4
      vertex -5.28022 4.10541 0
      vertex -5.28022 4.10541 4
    endloop
  endfacet
  facet normal 1 0 0
    outer loop
      vertex -5.28022 4.10541 0
      vertex -5.28022 3.79459 4
      vertex -5.28022 3.79459 0
    endloop
  endfacet
  facet normal -0.637424 -0.770513 0
    outer loop
      vertex -3.38558 4.99697 0
      vertex -3.14608 4.79884 4
      vertex -3.38558 4.99697 4
    endloop
  endfacet
  facet normal -0.637424 -0.770513 -0
    outer loop
      vertex -3.14608 4.79884 4
      vertex -3.38558 4.99697 0
      vertex -3.14608 4.79884 0
    endloop
  endfacet
  facet normal 0.309016 -0.951057 0
    outer loop
      vertex -4.57797 5.07199 0
      vertex -4.28235 5.16804 4
      vertex -4.57797 5.07199 4
    endloop
  endfacet
  facet normal 0.309016 -0.951057 0
    outer loop
      vertex -4.28235 5.16804 4
      vertex -4.57797 5.07199 0
      vertex -4.28235 5.16804 0
    endloop
  endfacet
  facet normal 0.968583 -0.248692 0
    outer loop
      vertex -5.28022 4.10541 4
      vertex -5.20292 4.40647 0
      vertex -5.20292 4.40647 4
    endloop
  endfacet
  facet normal 0.968583 -0.248692 0
    outer loop
      vertex -5.20292 4.40647 0
      vertex -5.28022 4.10541 4
      vertex -5.28022 4.10541 0
    endloop
  endfacet
  facet normal -0.992115 0.125333 0
    outer loop
      vertex -2.84896 3.64162 0
      vertex -2.81 3.95 4
      vertex -2.81 3.95 0
    endloop
  endfacet
  facet normal -0.992115 0.125333 0
    outer loop
      vertex -2.81 3.95 4
      vertex -2.84896 3.64162 0
      vertex -2.84896 3.64162 4
    endloop
  endfacet
  facet normal -0.425781 0.904826 0
    outer loop
      vertex -3.38558 2.90303 0
      vertex -3.66682 2.77069 4
      vertex -3.38558 2.90303 4
    endloop
  endfacet
  facet normal -0.425781 0.904826 0
    outer loop
      vertex -3.66682 2.77069 4
      vertex -3.38558 2.90303 0
      vertex -3.66682 2.77069 0
    endloop
  endfacet
  facet normal -0.929776 -0.368125 0
    outer loop
      vertex -2.84896 4.25838 0
      vertex -2.96338 4.54737 4
      vertex -2.96338 4.54737 0
    endloop
  endfacet
  facet normal -0.929776 -0.368125 0
    outer loop
      vertex -2.96338 4.54737 4
      vertex -2.84896 4.25838 0
      vertex -2.84896 4.25838 4
    endloop
  endfacet
  facet normal 0.0627905 -0.998027 0
    outer loop
      vertex -4.28235 5.16804 0
      vertex -3.97214 5.18755 4
      vertex -4.28235 5.16804 4
    endloop
  endfacet
  facet normal 0.0627905 -0.998027 0
    outer loop
      vertex -3.97214 5.18755 4
      vertex -4.28235 5.16804 0
      vertex -3.97214 5.18755 0
    endloop
  endfacet
  facet normal -0.425779 -0.904827 0
    outer loop
      vertex -3.66682 5.12931 0
      vertex -3.38558 4.99697 4
      vertex -3.66682 5.12931 4
    endloop
  endfacet
  facet normal -0.425779 -0.904827 -0
    outer loop
      vertex -3.38558 4.99697 4
      vertex -3.66682 5.12931 0
      vertex -3.38558 4.99697 0
    endloop
  endfacet
  facet normal 0.876307 -0.481753 0
    outer loop
      vertex -5.20292 4.40647 4
      vertex -5.05318 4.67885 0
      vertex -5.05318 4.67885 4
    endloop
  endfacet
  facet normal 0.876307 -0.481753 0
    outer loop
      vertex -5.05318 4.67885 0
      vertex -5.20292 4.40647 4
      vertex -5.20292 4.40647 0
    endloop
  endfacet
  facet normal 0.535828 -0.844327 0
    outer loop
      vertex -4.84041 4.90544 0
      vertex -4.57797 5.07199 4
      vertex -4.84041 4.90544 4
    endloop
  endfacet
  facet normal 0.535828 -0.844327 0
    outer loop
      vertex -4.57797 5.07199 4
      vertex -4.84041 4.90544 0
      vertex -4.57797 5.07199 0
    endloop
  endfacet
  facet normal 0.728969 -0.684547 0
    outer loop
      vertex -5.05318 4.67885 4
      vertex -4.84041 4.90544 0
      vertex -4.84041 4.90544 4
    endloop
  endfacet
  facet normal 0.728969 -0.684547 0
    outer loop
      vertex -4.84041 4.90544 0
      vertex -5.05318 4.67885 4
      vertex -5.05318 4.67885 0
    endloop
  endfacet
  facet normal -0.992115 -0.125333 0
    outer loop
      vertex -2.81 3.95 0
      vertex -2.84896 4.25838 4
      vertex -2.84896 4.25838 0
    endloop
  endfacet
  facet normal -0.992115 -0.125333 0
    outer loop
      vertex -2.84896 4.25838 4
      vertex -2.81 3.95 0
      vertex -2.81 3.95 4
    endloop
  endfacet
  facet normal 0.535825 0.844329 -0
    outer loop
      vertex -4.57797 2.82801 0
      vertex -4.84041 2.99456 4
      vertex -4.57797 2.82801 4
    endloop
  endfacet
  facet normal 0.535825 0.844329 0
    outer loop
      vertex -4.84041 2.99456 4
      vertex -4.57797 2.82801 0
      vertex -4.84041 2.99456 0
    endloop
  endfacet
  facet normal 0.728969 0.684547 0
    outer loop
      vertex -4.84041 2.99456 4
      vertex -5.05318 3.22115 0
      vertex -5.05318 3.22115 4
    endloop
  endfacet
  facet normal 0.728969 0.684547 0
    outer loop
      vertex -5.05318 3.22115 0
      vertex -4.84041 2.99456 4
      vertex -4.84041 2.99456 0
    endloop
  endfacet
  facet normal -0.809017 0.587785 0
    outer loop
      vertex -3.14608 3.10116 0
      vertex -2.96338 3.35262 4
      vertex -2.96338 3.35262 0
    endloop
  endfacet
  facet normal -0.809017 0.587785 0
    outer loop
      vertex -2.96338 3.35262 4
      vertex -3.14608 3.10116 0
      vertex -3.14608 3.10116 4
    endloop
  endfacet
  facet normal -0.187381 -0.982287 0
    outer loop
      vertex -3.97214 5.18755 0
      vertex -3.66682 5.12931 4
      vertex -3.97214 5.18755 4
    endloop
  endfacet
  facet normal -0.187381 -0.982287 -0
    outer loop
      vertex -3.66682 5.12931 4
      vertex -3.97214 5.18755 0
      vertex -3.66682 5.12931 0
    endloop
  endfacet
  facet normal -0.929777 0.368124 0
    outer loop
      vertex -2.96338 3.35262 0
      vertex -2.84896 3.64162 4
      vertex -2.84896 3.64162 0
    endloop
  endfacet
  facet normal -0.929777 0.368124 0
    outer loop
      vertex -2.84896 3.64162 4
      vertex -2.96338 3.35262 0
      vertex -2.96338 3.35262 4
    endloop
  endfacet
  facet normal 0.968583 0.248692 0
    outer loop
      vertex -5.20292 3.49353 4
      vertex -5.28022 3.79459 0
      vertex -5.28022 3.79459 4
    endloop
  endfacet
  facet normal 0.968583 0.248692 0
    outer loop
      vertex -5.28022 3.79459 0
      vertex -5.20292 3.49353 4
      vertex -5.20292 3.49353 0
    endloop
  endfacet
  facet normal -0.637423 0.770514 0
    outer loop
      vertex -3.14608 3.10116 0
      vertex -3.38558 2.90303 4
      vertex -3.14608 3.10116 4
    endloop
  endfacet
  facet normal -0.637423 0.770514 0
    outer loop
      vertex -3.38558 2.90303 4
      vertex -3.14608 3.10116 0
      vertex -3.38558 2.90303 0
    endloop
  endfacet
  facet normal -0.187381 0.982287 0
    outer loop
      vertex -3.66682 2.77069 0
      vertex -3.97214 2.71245 4
      vertex -3.66682 2.77069 4
    endloop
  endfacet
  facet normal -0.187381 0.982287 0
    outer loop
      vertex -3.97214 2.71245 4
      vertex -3.66682 2.77069 0
      vertex -3.97214 2.71245 0
    endloop
  endfacet
  facet normal 0.0627905 0.998027 -0
    outer loop
      vertex -3.97214 2.71245 0
      vertex -4.28235 2.73196 4
      vertex -3.97214 2.71245 4
    endloop
  endfacet
  facet normal 0.0627905 0.998027 0
    outer loop
      vertex -4.28235 2.73196 4
      vertex -3.97214 2.71245 0
      vertex -4.28235 2.73196 0
    endloop
  endfacet
  facet normal 0.876308 0.481751 0
    outer loop
      vertex -5.05318 3.22115 4
      vertex -5.20292 3.49353 0
      vertex -5.20292 3.49353 4
    endloop
  endfacet
  facet normal 0.876308 0.481751 0
    outer loop
      vertex -5.20292 3.49353 0
      vertex -5.05318 3.22115 4
      vertex -5.05318 3.22115 0
    endloop
  endfacet
  facet normal 0.309019 0.951056 -0
    outer loop
      vertex -4.28235 2.73196 0
      vertex -4.57797 2.82801 4
      vertex -4.28235 2.73196 4
    endloop
  endfacet
  facet normal 0.309019 0.951056 0
    outer loop
      vertex -4.57797 2.82801 4
      vertex -4.28235 2.73196 0
      vertex -4.57797 2.82801 0
    endloop
  endfacet
  facet normal -0.992115 -0.125333 0
    outer loop
      vertex 1.99 -5.05 0
      vertex 1.95104 -4.74162 9.9
      vertex 1.95104 -4.74162 0
    endloop
  endfacet
  facet normal -0.992115 -0.125333 0
    outer loop
      vertex 1.95104 -4.74162 9.9
      vertex 1.99 -5.05 0
      vertex 1.99 -5.05 9.9
    endloop
  endfacet
  facet normal 1 -0 0
    outer loop
      vertex -0.480223 -5.20541 4
      vertex -0.480223 -4.89459 0
      vertex -0.480223 -4.89459 4
    endloop
  endfacet
  facet normal 1 0 0
    outer loop
      vertex -0.480223 -4.89459 0
      vertex -0.480223 -5.20541 4
      vertex -0.480223 -5.20541 0
    endloop
  endfacet
  facet normal 0.0627905 -0.998027 0
    outer loop
      vertex 0.517647 -3.83196 0
      vertex 0.82786 -3.81245 4
      vertex 0.517647 -3.83196 4
    endloop
  endfacet
  facet normal 0.0627905 -0.998027 0
    outer loop
      vertex 0.82786 -3.81245 4
      vertex 0.517647 -3.83196 0
      vertex 0.82786 -3.81245 0
    endloop
  endfacet
  facet normal -0.187381 0.982287 0
    outer loop
      vertex 1.13318 -6.22931 0
      vertex 0.82786 -6.28755 4
      vertex 1.13318 -6.22931 4
    endloop
  endfacet
  facet normal -0.187381 0.982287 0
    outer loop
      vertex 0.82786 -6.28755 4
      vertex 1.13318 -6.22931 0
      vertex 0.82786 -6.28755 0
    endloop
  endfacet
  facet normal -0.637424 -0.770513 0
    outer loop
      vertex 1.41442 -4.00303 0
      vertex 1.65392 -4.20116 4
      vertex 1.41442 -4.00303 4
    endloop
  endfacet
  facet normal -0.637424 -0.770513 -0
    outer loop
      vertex 1.65392 -4.20116 4
      vertex 1.41442 -4.00303 0
      vertex 1.65392 -4.20116 0
    endloop
  endfacet
  facet normal -0.425779 -0.904827 0
    outer loop
      vertex 1.13318 -3.87069 0
      vertex 1.41442 -4.00303 4
      vertex 1.13318 -3.87069 4
    endloop
  endfacet
  facet normal -0.425779 -0.904827 -0
    outer loop
      vertex 1.41442 -4.00303 4
      vertex 1.13318 -3.87069 0
      vertex 1.41442 -4.00303 0
    endloop
  endfacet
  facet normal 0.728969 -0.684547 0
    outer loop
      vertex -0.253182 -4.32115 4
      vertex -0.0404064 -4.09456 0
      vertex -0.0404064 -4.09456 4
    endloop
  endfacet
  facet normal 0.728969 -0.684547 0
    outer loop
      vertex -0.0404064 -4.09456 0
      vertex -0.253182 -4.32115 4
      vertex -0.253182 -4.32115 0
    endloop
  endfacet
  facet normal 0.876306 -0.481755 0
    outer loop
      vertex -0.402924 -4.59353 4
      vertex -0.253182 -4.32115 0
      vertex -0.253182 -4.32115 4
    endloop
  endfacet
  facet normal 0.876306 -0.481755 0
    outer loop
      vertex -0.253182 -4.32115 0
      vertex -0.402924 -4.59353 4
      vertex -0.402924 -4.59353 0
    endloop
  endfacet
  facet normal 0.309016 -0.951057 0
    outer loop
      vertex 0.222033 -3.92801 0
      vertex 0.517647 -3.83196 4
      vertex 0.222033 -3.92801 4
    endloop
  endfacet
  facet normal 0.309016 -0.951057 0
    outer loop
      vertex 0.517647 -3.83196 4
      vertex 0.222033 -3.92801 0
      vertex 0.517647 -3.83196 0
    endloop
  endfacet
  facet normal -0.929771 0.368139 0
    outer loop
      vertex 1.95104 -5.35838 0
      vertex 1.95 -5.36101 4
      vertex 1.95104 -5.35838 9.9
    endloop
  endfacet
  facet normal -0.929777 0.368124 -1.17547e-08
    outer loop
      vertex 1.83662 -5.64738 0
      vertex 1.95 -5.36101 4
      vertex 1.95104 -5.35838 0
    endloop
  endfacet
  facet normal -0.929777 0.368124 0
    outer loop
      vertex 1.95 -5.36101 4
      vertex 1.83662 -5.64738 0
      vertex 1.83662 -5.64738 4
    endloop
  endfacet
  facet normal -0.929771 0.368139 0
    outer loop
      vertex 1.95104 -5.35838 9.9
      vertex 1.95 -5.36101 4
      vertex 1.95 -5.36101 9.9
    endloop
  endfacet
  facet normal -0.809017 -0.587785 0
    outer loop
      vertex 1.83662 -4.45263 0
      vertex 1.65392 -4.20116 4
      vertex 1.65392 -4.20116 0
    endloop
  endfacet
  facet normal -0.809017 -0.587785 0
    outer loop
      vertex 1.65392 -4.20116 4
      vertex 1.83662 -4.45263 0
      vertex 1.83662 -4.45263 4
    endloop
  endfacet
  facet normal -0.929776 -0.368125 0
    outer loop
      vertex 1.83662 -4.45263 0
      vertex 1.95 -4.73899 4
      vertex 1.83662 -4.45263 4
    endloop
  endfacet
  facet normal -0.929776 -0.368125 -1.09544e-08
    outer loop
      vertex 1.95104 -4.74162 0
      vertex 1.95 -4.73899 4
      vertex 1.83662 -4.45263 0
    endloop
  endfacet
  facet normal -0.929771 -0.368139 -0
    outer loop
      vertex 1.95104 -4.74162 9.9
      vertex 1.95 -4.73899 4
      vertex 1.95104 -4.74162 0
    endloop
  endfacet
  facet normal -0.929771 -0.368139 0
    outer loop
      vertex 1.95 -4.73899 4
      vertex 1.95104 -4.74162 9.9
      vertex 1.95 -4.73899 9.9
    endloop
  endfacet
  facet normal -0.187381 -0.982287 0
    outer loop
      vertex 0.82786 -3.81245 0
      vertex 1.13318 -3.87069 4
      vertex 0.82786 -3.81245 4
    endloop
  endfacet
  facet normal -0.187381 -0.982287 -0
    outer loop
      vertex 1.13318 -3.87069 4
      vertex 0.82786 -3.81245 0
      vertex 1.13318 -3.87069 0
    endloop
  endfacet
  facet normal 0.968583 -0.248689 0
    outer loop
      vertex -0.480223 -4.89459 4
      vertex -0.402924 -4.59353 0
      vertex -0.402924 -4.59353 4
    endloop
  endfacet
  facet normal 0.968583 -0.248689 0
    outer loop
      vertex -0.402924 -4.59353 0
      vertex -0.480223 -4.89459 4
      vertex -0.480223 -4.89459 0
    endloop
  endfacet
  facet normal 0 0 -1
    outer loop
      vertex 1.95 -5.36101 9.9
      vertex 1.99 -5.05 9.9
      vertex 1.95104 -5.35838 9.9
    endloop
  endfacet
  facet normal 0 0 -1
    outer loop
      vertex 1.95 -4.73899 9.9
      vertex 1.99 -5.05 9.9
      vertex 1.95 -5.36101 9.9
    endloop
  endfacet
  facet normal 0 0 -1
    outer loop
      vertex 1.99 -5.05 9.9
      vertex 1.95 -4.73899 9.9
      vertex 1.95104 -4.74162 9.9
    endloop
  endfacet
  facet normal 0.535828 -0.844327 0
    outer loop
      vertex -0.0404064 -4.09456 0
      vertex 0.222033 -3.92801 4
      vertex -0.0404064 -4.09456 4
    endloop
  endfacet
  facet normal 0.535828 -0.844327 0
    outer loop
      vertex 0.222033 -3.92801 4
      vertex -0.0404064 -4.09456 0
      vertex 0.222033 -3.92801 0
    endloop
  endfacet
  facet normal -0.992115 0.125333 0
    outer loop
      vertex 1.95104 -5.35838 0
      vertex 1.99 -5.05 9.9
      vertex 1.99 -5.05 0
    endloop
  endfacet
  facet normal -0.992115 0.125333 0
    outer loop
      vertex 1.99 -5.05 9.9
      vertex 1.95104 -5.35838 0
      vertex 1.95104 -5.35838 9.9
    endloop
  endfacet
  facet normal -0.809017 0.587785 0
    outer loop
      vertex 1.65392 -5.89884 0
      vertex 1.83662 -5.64738 4
      vertex 1.83662 -5.64738 0
    endloop
  endfacet
  facet normal -0.809017 0.587785 0
    outer loop
      vertex 1.83662 -5.64738 4
      vertex 1.65392 -5.89884 0
      vertex 1.65392 -5.89884 4
    endloop
  endfacet
  facet normal 0.535825 0.844329 -0
    outer loop
      vertex 0.222033 -6.17199 0
      vertex -0.0404064 -6.00544 4
      vertex 0.222033 -6.17199 4
    endloop
  endfacet
  facet normal 0.535825 0.844329 0
    outer loop
      vertex -0.0404064 -6.00544 4
      vertex 0.222033 -6.17199 0
      vertex -0.0404064 -6.00544 0
    endloop
  endfacet
  facet normal 0.876307 0.481754 0
    outer loop
      vertex -0.253182 -5.77885 4
      vertex -0.402924 -5.50647 0
      vertex -0.402924 -5.50647 4
    endloop
  endfacet
  facet normal 0.876307 0.481754 0
    outer loop
      vertex -0.402924 -5.50647 0
      vertex -0.253182 -5.77885 4
      vertex -0.253182 -5.77885 0
    endloop
  endfacet
  facet normal 0.968583 0.24869 0
    outer loop
      vertex -0.402924 -5.50647 4
      vertex -0.480223 -5.20541 0
      vertex -0.480223 -5.20541 4
    endloop
  endfacet
  facet normal 0.968583 0.24869 0
    outer loop
      vertex -0.480223 -5.20541 0
      vertex -0.402924 -5.50647 4
      vertex -0.402924 -5.50647 0
    endloop
  endfacet
  facet normal 0.728969 0.684547 0
    outer loop
      vertex -0.0404064 -6.00544 4
      vertex -0.253182 -5.77885 0
      vertex -0.253182 -5.77885 4
    endloop
  endfacet
  facet normal 0.728969 0.684547 0
    outer loop
      vertex -0.253182 -5.77885 0
      vertex -0.0404064 -6.00544 4
      vertex -0.0404064 -6.00544 0
    endloop
  endfacet
  facet normal -0.425781 0.904826 0
    outer loop
      vertex 1.41442 -6.09697 0
      vertex 1.13318 -6.22931 4
      vertex 1.41442 -6.09697 4
    endloop
  endfacet
  facet normal -0.425781 0.904826 0
    outer loop
      vertex 1.13318 -6.22931 4
      vertex 1.41442 -6.09697 0
      vertex 1.13318 -6.22931 0
    endloop
  endfacet
  facet normal 0.0627905 0.998027 -0
    outer loop
      vertex 0.82786 -6.28755 0
      vertex 0.517647 -6.26804 4
      vertex 0.82786 -6.28755 4
    endloop
  endfacet
  facet normal 0.0627905 0.998027 0
    outer loop
      vertex 0.517647 -6.26804 4
      vertex 0.82786 -6.28755 0
      vertex 0.517647 -6.26804 0
    endloop
  endfacet
  facet normal -0.637423 0.770514 0
    outer loop
      vertex 1.65392 -5.89884 0
      vertex 1.41442 -6.09697 4
      vertex 1.65392 -5.89884 4
    endloop
  endfacet
  facet normal -0.637423 0.770514 0
    outer loop
      vertex 1.41442 -6.09697 4
      vertex 1.65392 -5.89884 0
      vertex 1.41442 -6.09697 0
    endloop
  endfacet
  facet normal 0.309019 0.951056 -0
    outer loop
      vertex 0.517647 -6.26804 0
      vertex 0.222033 -6.17199 4
      vertex 0.517647 -6.26804 4
    endloop
  endfacet
  facet normal 0.309019 0.951056 0
    outer loop
      vertex 0.222033 -6.17199 4
      vertex 0.517647 -6.26804 0
      vertex 0.222033 -6.17199 0
    endloop
  endfacet
  facet normal 1 -0 0
    outer loop
      vertex 6.01143 2.06827 15
      vertex 6.01143 2.43173 0
      vertex 6.01143 2.43173 15
    endloop
  endfacet
  facet normal 1 0 0
    outer loop
      vertex 6.01143 2.43173 0
      vertex 6.01143 2.06827 15
      vertex 6.01143 2.06827 0
    endloop
  endfacet
  facet normal -0.809017 -0.587786 0
    outer loop
      vertex 8.72064 2.94854 0
      vertex 8.507 3.24259 15
      vertex 8.507 3.24259 0
    endloop
  endfacet
  facet normal -0.809017 -0.587786 0
    outer loop
      vertex 8.507 3.24259 15
      vertex 8.72064 2.94854 0
      vertex 8.72064 2.94854 15
    endloop
  endfacet
  facet normal -0.929776 -0.368125 0
    outer loop
      vertex 8.85445 2.6106 0
      vertex 8.72064 2.94854 15
      vertex 8.72064 2.94854 0
    endloop
  endfacet
  facet normal -0.929776 -0.368125 0
    outer loop
      vertex 8.72064 2.94854 15
      vertex 8.85445 2.6106 0
      vertex 8.85445 2.6106 15
    endloop
  endfacet
  facet normal -0.187381 -0.982287 0
    outer loop
      vertex 7.54105 3.69714 0
      vertex 7.89807 3.62903 15
      vertex 7.54105 3.69714 15
    endloop
  endfacet
  facet normal -0.187381 -0.982287 -0
    outer loop
      vertex 7.89807 3.62903 15
      vertex 7.54105 3.69714 0
      vertex 7.89807 3.62903 0
    endloop
  endfacet
  facet normal 0.535826 -0.844328 0
    outer loop
      vertex 6.52573 3.36724 0
      vertex 6.83262 3.562 15
      vertex 6.52573 3.36724 15
    endloop
  endfacet
  facet normal 0.535826 -0.844328 0
    outer loop
      vertex 6.83262 3.562 15
      vertex 6.52573 3.36724 0
      vertex 6.83262 3.562 0
    endloop
  endfacet
  facet normal 0.968583 -0.24869 0
    outer loop
      vertex 6.01143 2.43173 15
      vertex 6.10182 2.78378 0
      vertex 6.10182 2.78378 15
    endloop
  endfacet
  facet normal 0.968583 -0.24869 0
    outer loop
      vertex 6.10182 2.78378 0
      vertex 6.01143 2.43173 15
      vertex 6.01143 2.43173 0
    endloop
  endfacet
  facet normal 0.728969 -0.684547 0
    outer loop
      vertex 6.27693 3.10229 15
      vertex 6.52573 3.36724 0
      vertex 6.52573 3.36724 15
    endloop
  endfacet
  facet normal 0.728969 -0.684547 0
    outer loop
      vertex 6.52573 3.36724 0
      vertex 6.27693 3.10229 15
      vertex 6.27693 3.10229 0
    endloop
  endfacet
  facet normal -0.992115 0.125332 0
    outer loop
      vertex 8.85445 1.8894 0
      vertex 8.9 2.25 15
      vertex 8.9 2.25 0
    endloop
  endfacet
  facet normal -0.992115 0.125332 0
    outer loop
      vertex 8.9 2.25 15
      vertex 8.85445 1.8894 0
      vertex 8.85445 1.8894 15
    endloop
  endfacet
  facet normal -0.637424 -0.770513 0
    outer loop
      vertex 8.22695 3.47427 0
      vertex 8.507 3.24259 15
      vertex 8.22695 3.47427 15
    endloop
  endfacet
  facet normal -0.637424 -0.770513 -0
    outer loop
      vertex 8.507 3.24259 15
      vertex 8.22695 3.47427 0
      vertex 8.507 3.24259 0
    endloop
  endfacet
  facet normal 0.0627883 -0.998027 0
    outer loop
      vertex 7.1783 3.67432 0
      vertex 7.54105 3.69714 15
      vertex 7.1783 3.67432 15
    endloop
  endfacet
  facet normal 0.0627883 -0.998027 0
    outer loop
      vertex 7.54105 3.69714 15
      vertex 7.1783 3.67432 0
      vertex 7.54105 3.69714 0
    endloop
  endfacet
  facet normal -0.425779 -0.904827 0
    outer loop
      vertex 7.89807 3.62903 0
      vertex 8.22695 3.47427 15
      vertex 7.89807 3.62903 15
    endloop
  endfacet
  facet normal -0.425779 -0.904827 -0
    outer loop
      vertex 8.22695 3.47427 15
      vertex 7.89807 3.62903 0
      vertex 8.22695 3.47427 0
    endloop
  endfacet
  facet normal 0.876307 -0.481754 0
    outer loop
      vertex 6.10182 2.78378 15
      vertex 6.27693 3.10229 0
      vertex 6.27693 3.10229 15
    endloop
  endfacet
  facet normal 0.876307 -0.481754 0
    outer loop
      vertex 6.27693 3.10229 0
      vertex 6.10182 2.78378 15
      vertex 6.10182 2.78378 0
    endloop
  endfacet
  facet normal 0.309019 -0.951056 0
    outer loop
      vertex 6.83262 3.562 0
      vertex 7.1783 3.67432 15
      vertex 6.83262 3.562 15
    endloop
  endfacet
  facet normal 0.309019 -0.951056 0
    outer loop
      vertex 7.1783 3.67432 15
      vertex 6.83262 3.562 0
      vertex 7.1783 3.67432 0
    endloop
  endfacet
  facet normal -0.992115 -0.125333 0
    outer loop
      vertex 8.9 2.25 0
      vertex 8.85445 2.6106 15
      vertex 8.85445 2.6106 0
    endloop
  endfacet
  facet normal -0.992115 -0.125333 0
    outer loop
      vertex 8.85445 2.6106 15
      vertex 8.9 2.25 0
      vertex 8.9 2.25 15
    endloop
  endfacet
  facet normal 0.535826 0.844328 -0
    outer loop
      vertex 6.83262 0.938001 0
      vertex 6.52573 1.13276 15
      vertex 6.83262 0.938001 15
    endloop
  endfacet
  facet normal 0.535826 0.844328 0
    outer loop
      vertex 6.52573 1.13276 15
      vertex 6.83262 0.938001 0
      vertex 6.52573 1.13276 0
    endloop
  endfacet
  facet normal 0.728969 0.684547 0
    outer loop
      vertex 6.52573 1.13276 15
      vertex 6.27693 1.39771 0
      vertex 6.27693 1.39771 15
    endloop
  endfacet
  facet normal 0.728969 0.684547 0
    outer loop
      vertex 6.27693 1.39771 0
      vertex 6.52573 1.13276 15
      vertex 6.52573 1.13276 0
    endloop
  endfacet
  facet normal -0.425779 0.904827 0
    outer loop
      vertex 8.22695 1.02572 0
      vertex 7.89807 0.870968 15
      vertex 8.22695 1.02572 15
    endloop
  endfacet
  facet normal -0.425779 0.904827 0
    outer loop
      vertex 7.89807 0.870968 15
      vertex 8.22695 1.02572 0
      vertex 7.89807 0.870968 0
    endloop
  endfacet
  facet normal -0.637424 0.770513 0
    outer loop
      vertex 8.507 1.25741 0
      vertex 8.22695 1.02572 15
      vertex 8.507 1.25741 15
    endloop
  endfacet
  facet normal -0.637424 0.770513 0
    outer loop
      vertex 8.22695 1.02572 15
      vertex 8.507 1.25741 0
      vertex 8.22695 1.02572 0
    endloop
  endfacet
  facet normal -0.929776 0.368125 0
    outer loop
      vertex 8.72064 1.55146 0
      vertex 8.85445 1.8894 15
      vertex 8.85445 1.8894 0
    endloop
  endfacet
  facet normal -0.929776 0.368125 0
    outer loop
      vertex 8.85445 1.8894 15
      vertex 8.72064 1.55146 0
      vertex 8.72064 1.55146 15
    endloop
  endfacet
  facet normal 0.968583 0.24869 0
    outer loop
      vertex 6.10182 1.71622 15
      vertex 6.01143 2.06827 0
      vertex 6.01143 2.06827 15
    endloop
  endfacet
  facet normal 0.968583 0.24869 0
    outer loop
      vertex 6.01143 2.06827 0
      vertex 6.10182 1.71622 15
      vertex 6.10182 1.71622 0
    endloop
  endfacet
  facet normal -0.187381 0.982287 0
    outer loop
      vertex 7.89807 0.870968 0
      vertex 7.54105 0.802861 15
      vertex 7.89807 0.870968 15
    endloop
  endfacet
  facet normal -0.187381 0.982287 0
    outer loop
      vertex 7.54105 0.802861 15
      vertex 7.89807 0.870968 0
      vertex 7.54105 0.802861 0
    endloop
  endfacet
  facet normal 0.0627883 0.998027 -0
    outer loop
      vertex 7.54105 0.802861 0
      vertex 7.1783 0.825683 15
      vertex 7.54105 0.802861 15
    endloop
  endfacet
  facet normal 0.0627883 0.998027 0
    outer loop
      vertex 7.1783 0.825683 15
      vertex 7.54105 0.802861 0
      vertex 7.1783 0.825683 0
    endloop
  endfacet
  facet normal 0.876307 0.481754 0
    outer loop
      vertex 6.27693 1.39771 15
      vertex 6.10182 1.71622 0
      vertex 6.10182 1.71622 15
    endloop
  endfacet
  facet normal 0.876307 0.481754 0
    outer loop
      vertex 6.10182 1.71622 0
      vertex 6.27693 1.39771 15
      vertex 6.27693 1.39771 0
    endloop
  endfacet
  facet normal -0.809017 0.587786 0
    outer loop
      vertex 8.507 1.25741 0
      vertex 8.72064 1.55146 15
      vertex 8.72064 1.55146 0
    endloop
  endfacet
  facet normal -0.809017 0.587786 0
    outer loop
      vertex 8.72064 1.55146 15
      vertex 8.507 1.25741 0
      vertex 8.507 1.25741 15
    endloop
  endfacet
  facet normal 0.309019 0.951056 -0
    outer loop
      vertex 7.1783 0.825683 0
      vertex 6.83262 0.938001 15
      vertex 7.1783 0.825683 15
    endloop
  endfacet
  facet normal 0.309019 0.951056 0
    outer loop
      vertex 6.83262 0.938001 15
      vertex 7.1783 0.825683 0
      vertex 6.83262 0.938001 0
    endloop
  endfacet
  facet normal -1 0 0
    outer loop
      vertex -8.45 -7.75 2.7
      vertex -8.45 5.75 4
      vertex -8.45 5.75 2.7
    endloop
  endfacet
  facet normal -1 -0 0
    outer loop
      vertex -8.45 5.75 4
      vertex -8.45 -7.75 2.7
      vertex -8.45 -7.75 4
    endloop
  endfacet
  facet normal 0 0 1
    outer loop
      vertex 1.95 5.75 4
      vertex 1.83662 -4.45263 4
      vertex 1.95 -4.73899 4
    endloop
  endfacet
  facet normal 0 0 1
    outer loop
      vertex 1.95 5.75 4
      vertex 1.65392 -4.20116 4
      vertex 1.83662 -4.45263 4
    endloop
  endfacet
  facet normal 0 0 1
    outer loop
      vertex 1.95 5.75 4
      vertex 1.41442 -4.00303 4
      vertex 1.65392 -4.20116 4
    endloop
  endfacet
  facet normal 0 0 1
    outer loop
      vertex 1.95 5.75 4
      vertex 1.13318 -3.87069 4
      vertex 1.41442 -4.00303 4
    endloop
  endfacet
  facet normal 0 0 1
    outer loop
      vertex 1.95 5.75 4
      vertex 0.82786 -3.81245 4
      vertex 1.13318 -3.87069 4
    endloop
  endfacet
  facet normal -0 0 1
    outer loop
      vertex -2.96338 3.35262 4
      vertex 0.82786 -3.81245 4
      vertex 1.95 5.75 4
    endloop
  endfacet
  facet normal -0 0 1
    outer loop
      vertex -3.14608 3.10116 4
      vertex 0.82786 -3.81245 4
      vertex -2.96338 3.35262 4
    endloop
  endfacet
  facet normal 0 0 1
    outer loop
      vertex 0.82786 -3.81245 4
      vertex -3.14608 3.10116 4
      vertex 0.517647 -3.83196 4
    endloop
  endfacet
  facet normal -0 0 1
    outer loop
      vertex -3.38558 2.90303 4
      vertex 0.517647 -3.83196 4
      vertex -3.14608 3.10116 4
    endloop
  endfacet
  facet normal 0 0 1
    outer loop
      vertex 0.517647 -3.83196 4
      vertex -3.38558 2.90303 4
      vertex 0.222033 -3.92801 4
    endloop
  endfacet
  facet normal -0 0 1
    outer loop
      vertex -3.66682 2.77069 4
      vertex 0.222033 -3.92801 4
      vertex -3.38558 2.90303 4
    endloop
  endfacet
  facet normal 0 0 1
    outer loop
      vertex -2.96338 3.35262 4
      vertex 1.95 5.75 4
      vertex -2.84896 3.64162 4
    endloop
  endfacet
  facet normal 0 0 1
    outer loop
      vertex -2.84896 3.64162 4
      vertex 1.95 5.75 4
      vertex -2.81 3.95 4
    endloop
  endfacet
  facet normal 0 0 1
    outer loop
      vertex 1.95 5.75 4
      vertex -2.84896 4.25838 4
      vertex -2.81 3.95 4
    endloop
  endfacet
  facet normal 0 0 1
    outer loop
      vertex 1.95 5.75 4
      vertex -2.96338 4.54737 4
      vertex -2.84896 4.25838 4
    endloop
  endfacet
  facet normal 0 0 1
    outer loop
      vertex 1.95 5.75 4
      vertex -3.14608 4.79884 4
      vertex -2.96338 4.54737 4
    endloop
  endfacet
  facet normal 0 0 1
    outer loop
      vertex 1.95 5.75 4
      vertex -3.38558 4.99697 4
      vertex -3.14608 4.79884 4
    endloop
  endfacet
  facet normal 0 0 1
    outer loop
      vertex 1.95 5.75 4
      vertex -3.66682 5.12931 4
      vertex -3.38558 4.99697 4
    endloop
  endfacet
  facet normal 0 0 1
    outer loop
      vertex 1.95 5.75 4
      vertex -3.97214 5.18755 4
      vertex -3.66682 5.12931 4
    endloop
  endfacet
  facet normal -0 0 1
    outer loop
      vertex -8.45 5.75 4
      vertex -3.97214 5.18755 4
      vertex 1.95 5.75 4
    endloop
  endfacet
  facet normal 0 0 1
    outer loop
      vertex -5.28022 4.10541 4
      vertex -8.45 5.75 4
      vertex -5.28022 3.79459 4
    endloop
  endfacet
  facet normal 0 0 1
    outer loop
      vertex -5.20292 4.40647 4
      vertex -8.45 5.75 4
      vertex -5.28022 4.10541 4
    endloop
  endfacet
  facet normal 0 0 1
    outer loop
      vertex -5.05318 4.67885 4
      vertex -8.45 5.75 4
      vertex -5.20292 4.40647 4
    endloop
  endfacet
  facet normal 0 0 1
    outer loop
      vertex -4.84041 4.90544 4
      vertex -8.45 5.75 4
      vertex -5.05318 4.67885 4
    endloop
  endfacet
  facet normal 0 0 1
    outer loop
      vertex -4.57797 5.07199 4
      vertex -8.45 5.75 4
      vertex -4.84041 4.90544 4
    endloop
  endfacet
  facet normal 0 0 1
    outer loop
      vertex -4.28235 5.16804 4
      vertex -8.45 5.75 4
      vertex -4.57797 5.07199 4
    endloop
  endfacet
  facet normal 0 0 1
    outer loop
      vertex -3.97214 5.18755 4
      vertex -8.45 5.75 4
      vertex -4.28235 5.16804 4
    endloop
  endfacet
  facet normal -0 0 1
    outer loop
      vertex 1.83662 -5.64738 4
      vertex 1.95 -7.75 4
      vertex 1.95 -5.36101 4
    endloop
  endfacet
  facet normal -0 0 1
    outer loop
      vertex 1.65392 -5.89884 4
      vertex 1.95 -7.75 4
      vertex 1.83662 -5.64738 4
    endloop
  endfacet
  facet normal -0 0 1
    outer loop
      vertex 1.41442 -6.09697 4
      vertex 1.95 -7.75 4
      vertex 1.65392 -5.89884 4
    endloop
  endfacet
  facet normal -0 0 1
    outer loop
      vertex 1.13318 -6.22931 4
      vertex 1.95 -7.75 4
      vertex 1.41442 -6.09697 4
    endloop
  endfacet
  facet normal -0 0 1
    outer loop
      vertex 0.82786 -6.28755 4
      vertex 1.95 -7.75 4
      vertex 1.13318 -6.22931 4
    endloop
  endfacet
  facet normal 0 0 1
    outer loop
      vertex 0.517647 -6.26804 4
      vertex 1.95 -7.75 4
      vertex 0.82786 -6.28755 4
    endloop
  endfacet
  facet normal 0 0 1
    outer loop
      vertex 0.222033 -6.17199 4
      vertex 1.95 -7.75 4
      vertex 0.517647 -6.26804 4
    endloop
  endfacet
  facet normal 0 0 1
    outer loop
      vertex -8.45 -7.75 4
      vertex 0.222033 -6.17199 4
      vertex -0.0404064 -6.00544 4
    endloop
  endfacet
  facet normal 0 0 1
    outer loop
      vertex 0.222033 -3.92801 4
      vertex -3.66682 2.77069 4
      vertex -0.0404064 -4.09456 4
    endloop
  endfacet
  facet normal -0 0 1
    outer loop
      vertex -3.97214 2.71245 4
      vertex -0.0404064 -4.09456 4
      vertex -3.66682 2.77069 4
    endloop
  endfacet
  facet normal 0 0 1
    outer loop
      vertex -0.0404064 -4.09456 4
      vertex -3.97214 2.71245 4
      vertex -0.253182 -4.32115 4
    endloop
  endfacet
  facet normal 0 0 1
    outer loop
      vertex -4.28235 2.73196 4
      vertex -0.253182 -4.32115 4
      vertex -3.97214 2.71245 4
    endloop
  endfacet
  facet normal 0 0 1
    outer loop
      vertex -0.253182 -4.32115 4
      vertex -4.28235 2.73196 4
      vertex -0.402924 -4.59353 4
    endloop
  endfacet
  facet normal 0 0 1
    outer loop
      vertex -8.45 -7.75 4
      vertex -0.402924 -4.59353 4
      vertex -4.28235 2.73196 4
    endloop
  endfacet
  facet normal 0 0 1
    outer loop
      vertex -0.402924 -4.59353 4
      vertex -8.45 -7.75 4
      vertex -0.480223 -4.89459 4
    endloop
  endfacet
  facet normal 0 0 1
    outer loop
      vertex -0.480223 -4.89459 4
      vertex -8.45 -7.75 4
      vertex -0.480223 -5.20541 4
    endloop
  endfacet
  facet normal 0 0 1
    outer loop
      vertex -8.45 -7.75 4
      vertex -4.28235 2.73196 4
      vertex -4.57797 2.82801 4
    endloop
  endfacet
  facet normal 0 0 1
    outer loop
      vertex -8.45 -7.75 4
      vertex -4.57797 2.82801 4
      vertex -4.84041 2.99456 4
    endloop
  endfacet
  facet normal 0 0 1
    outer loop
      vertex -8.45 -7.75 4
      vertex -4.84041 2.99456 4
      vertex -5.05318 3.22115 4
    endloop
  endfacet
  facet normal 0 0 1
    outer loop
      vertex -8.45 5.75 4
      vertex -5.05318 3.22115 4
      vertex -5.20292 3.49353 4
    endloop
  endfacet
  facet normal 0 0 1
    outer loop
      vertex -8.45 5.75 4
      vertex -5.20292 3.49353 4
      vertex -5.28022 3.79459 4
    endloop
  endfacet
  facet normal 0 0 1
    outer loop
      vertex -5.05318 3.22115 4
      vertex -8.45 5.75 4
      vertex -8.45 -7.75 4
    endloop
  endfacet
  facet normal 0 0 1
    outer loop
      vertex -0.480223 -5.20541 4
      vertex -8.45 -7.75 4
      vertex -0.402924 -5.50647 4
    endloop
  endfacet
  facet normal 0 0 1
    outer loop
      vertex 0.222033 -6.17199 4
      vertex -8.45 -7.75 4
      vertex 1.95 -7.75 4
    endloop
  endfacet
  facet normal 0 0 1
    outer loop
      vertex -0.253182 -5.77885 4
      vertex -8.45 -7.75 4
      vertex -0.0404064 -6.00544 4
    endloop
  endfacet
  facet normal 0 0 1
    outer loop
      vertex -0.402924 -5.50647 4
      vertex -8.45 -7.75 4
      vertex -0.253182 -5.77885 4
    endloop
  endfacet
  facet normal -0 0 1
    outer loop
      vertex 3.95 -1.25 4
      vertex 10.95 -7.75 4
      vertex 10.95 -1.25 4
    endloop
  endfacet
  facet normal 0 0 1
    outer loop
      vertex 10.95 -7.75 4
      vertex 3.95 -1.25 4
      vertex 3.95 -7.75 4
    endloop
  endfacet
  facet normal 1 0 0
    outer loop
      vertex 10.95 -1.25 4
      vertex 10.95 7.75 15
      vertex 10.95 -1.25 15
    endloop
  endfacet
  facet normal 1 0 0
    outer loop
      vertex 10.95 7.75 15
      vertex 10.95 -1.25 4
      vertex 10.95 7.75 0
    endloop
  endfacet
  facet normal 1 0 0
    outer loop
      vertex 10.95 -7.75 0
      vertex 10.95 -1.25 4
      vertex 10.95 -7.75 4
    endloop
  endfacet
  facet normal 1 0 0
    outer loop
      vertex 10.95 -1.25 4
      vertex 10.95 -7.75 0
      vertex 10.95 7.75 0
    endloop
  endfacet
  facet normal 0 0 -1
    outer loop
      vertex 8.85445 1.8894 0
      vertex 10.95 7.75 0
      vertex 10.95 -7.75 0
    endloop
  endfacet
  facet normal 0 0 -1
    outer loop
      vertex 10.95 7.75 0
      vertex 8.85445 1.8894 0
      vertex 8.9 2.25 0
    endloop
  endfacet
  facet normal 0 0 -1
    outer loop
      vertex 10.95 -7.75 0
      vertex 8.72064 1.55146 0
      vertex 8.85445 1.8894 0
    endloop
  endfacet
  facet normal 0 0 -1
    outer loop
      vertex 10.95 -7.75 0
      vertex 8.507 1.25741 0
      vertex 8.72064 1.55146 0
    endloop
  endfacet
  facet normal 0 0 -1
    outer loop
      vertex 10.95 -7.75 0
      vertex 8.22695 1.02572 0
      vertex 8.507 1.25741 0
    endloop
  endfacet
  facet normal 0 0 -1
    outer loop
      vertex 10.95 -7.75 0
      vertex 7.89807 0.870968 0
      vertex 8.22695 1.02572 0
    endloop
  endfacet
  facet normal 0 0 -1
    outer loop
      vertex 10.95 -7.75 0
      vertex 7.54105 0.802861 0
      vertex 7.89807 0.870968 0
    endloop
  endfacet
  facet normal 0 0 -1
    outer loop
      vertex 1.99 -5.05 0
      vertex 7.54105 0.802861 0
      vertex 10.95 -7.75 0
    endloop
  endfacet
  facet normal -0 0 -1
    outer loop
      vertex 7.54105 0.802861 0
      vertex 1.99 -5.05 0
      vertex 7.1783 0.825683 0
    endloop
  endfacet
  facet normal -0 0 -1
    outer loop
      vertex 7.1783 0.825683 0
      vertex 1.95104 -4.74162 0
      vertex 6.83262 0.938001 0
    endloop
  endfacet
  facet normal 0 0 -1
    outer loop
      vertex 1.83662 -4.45263 0
      vertex 6.83262 0.938001 0
      vertex 1.95104 -4.74162 0
    endloop
  endfacet
  facet normal 0 0 -1
    outer loop
      vertex 1.65392 -4.20116 0
      vertex 6.83262 0.938001 0
      vertex 1.83662 -4.45263 0
    endloop
  endfacet
  facet normal 0 0 -1
    outer loop
      vertex 1.41442 -4.00303 0
      vertex 6.52573 1.13276 0
      vertex 1.65392 -4.20116 0
    endloop
  endfacet
  facet normal -0 0 -1
    outer loop
      vertex 6.83262 0.938001 0
      vertex 1.65392 -4.20116 0
      vertex 6.52573 1.13276 0
    endloop
  endfacet
  facet normal 0 0 -1
    outer loop
      vertex 7.1783 0.825683 0
      vertex 1.99 -5.05 0
      vertex 1.95104 -4.74162 0
    endloop
  endfacet
  facet normal 0 0 -1
    outer loop
      vertex 10.95 -7.75 0
      vertex 1.95104 -5.35838 0
      vertex 1.99 -5.05 0
    endloop
  endfacet
  facet normal 0 0 -1
    outer loop
      vertex 10.95 -7.75 0
      vertex 1.83662 -5.64738 0
      vertex 1.95104 -5.35838 0
    endloop
  endfacet
  facet normal 0 0 -1
    outer loop
      vertex 10.95 -7.75 0
      vertex 1.65392 -5.89884 0
      vertex 1.83662 -5.64738 0
    endloop
  endfacet
  facet normal 0 0 -1
    outer loop
      vertex 10.95 -7.75 0
      vertex 1.41442 -6.09697 0
      vertex 1.65392 -5.89884 0
    endloop
  endfacet
  facet normal 0 0 -1
    outer loop
      vertex 10.95 -7.75 0
      vertex 1.13318 -6.22931 0
      vertex 1.41442 -6.09697 0
    endloop
  endfacet
  facet normal 0 0 -1
    outer loop
      vertex 10.95 -7.75 0
      vertex 0.82786 -6.28755 0
      vertex 1.13318 -6.22931 0
    endloop
  endfacet
  facet normal 0 0 -1
    outer loop
      vertex -10.95 -7.75 0
      vertex 0.82786 -6.28755 0
      vertex 10.95 -7.75 0
    endloop
  endfacet
  facet normal 0 0 -1
    outer loop
      vertex -10.95 -7.75 0
      vertex -0.480223 -4.89459 0
      vertex -0.480223 -5.20541 0
    endloop
  endfacet
  facet normal 0 0 -1
    outer loop
      vertex -0.480223 -4.89459 0
      vertex -2.84896 3.64162 0
      vertex -2.81 3.95 0
    endloop
  endfacet
  facet normal 0 0 -1
    outer loop
      vertex -10.95 -7.75 0
      vertex -0.480223 -5.20541 0
      vertex -0.402924 -5.50647 0
    endloop
  endfacet
  facet normal 0 0 -1
    outer loop
      vertex -0.480223 -4.89459 0
      vertex -2.96338 3.35262 0
      vertex -2.84896 3.64162 0
    endloop
  endfacet
  facet normal 0 0 -1
    outer loop
      vertex -0.480223 -4.89459 0
      vertex -3.14608 3.10116 0
      vertex -2.96338 3.35262 0
    endloop
  endfacet
  facet normal 0 0 -1
    outer loop
      vertex -0.480223 -4.89459 0
      vertex -3.38558 2.90303 0
      vertex -3.14608 3.10116 0
    endloop
  endfacet
  facet normal 0 0 -1
    outer loop
      vertex -0.480223 -4.89459 0
      vertex -3.66682 2.77069 0
      vertex -3.38558 2.90303 0
    endloop
  endfacet
  facet normal 0 0 -1
    outer loop
      vertex -0.480223 -4.89459 0
      vertex -3.97214 2.71245 0
      vertex -3.66682 2.77069 0
    endloop
  endfacet
  facet normal 0 0 -1
    outer loop
      vertex -0.480223 -4.89459 0
      vertex -4.28235 2.73196 0
      vertex -3.97214 2.71245 0
    endloop
  endfacet
  facet normal 0 0 -1
    outer loop
      vertex -0.480223 -4.89459 0
      vertex -4.57797 2.82801 0
      vertex -4.28235 2.73196 0
    endloop
  endfacet
  facet normal -0 0 -1
    outer loop
      vertex -0.480223 -4.89459 0
      vertex -10.95 -7.75 0
      vertex -4.57797 2.82801 0
    endloop
  endfacet
  facet normal -0 0 -1
    outer loop
      vertex -4.57797 2.82801 0
      vertex -10.95 -7.75 0
      vertex -4.84041 2.99456 0
    endloop
  endfacet
  facet normal -0 0 -1
    outer loop
      vertex -4.84041 2.99456 0
      vertex -10.95 -7.75 0
      vertex -5.05318 3.22115 0
    endloop
  endfacet
  facet normal 0 0 -1
    outer loop
      vertex -5.20292 3.49353 0
      vertex -10.95 7.75 0
      vertex -5.28022 3.79459 0
    endloop
  endfacet
  facet normal 0 0 -1
    outer loop
      vertex -10.95 7.75 0
      vertex -5.20292 3.49353 0
      vertex -10.95 -7.75 0
    endloop
  endfacet
  facet normal -0 0 -1
    outer loop
      vertex -5.05318 3.22115 0
      vertex -10.95 -7.75 0
      vertex -5.20292 3.49353 0
    endloop
  endfacet
  facet normal -0 0 -1
    outer loop
      vertex -0.253182 -5.77885 0
      vertex -10.95 -7.75 0
      vertex -0.402924 -5.50647 0
    endloop
  endfacet
  facet normal -0 0 -1
    outer loop
      vertex -0.0404064 -6.00544 0
      vertex -10.95 -7.75 0
      vertex -0.253182 -5.77885 0
    endloop
  endfacet
  facet normal -0 0 -1
    outer loop
      vertex 0.222033 -6.17199 0
      vertex -10.95 -7.75 0
      vertex -0.0404064 -6.00544 0
    endloop
  endfacet
  facet normal -0 0 -1
    outer loop
      vertex 0.517647 -6.26804 0
      vertex -10.95 -7.75 0
      vertex 0.222033 -6.17199 0
    endloop
  endfacet
  facet normal -0 0 -1
    outer loop
      vertex 0.82786 -6.28755 0
      vertex -10.95 -7.75 0
      vertex 0.517647 -6.26804 0
    endloop
  endfacet
  facet normal 0 0 -1
    outer loop
      vertex 8.85445 2.6106 0
      vertex 10.95 7.75 0
      vertex 8.9 2.25 0
    endloop
  endfacet
  facet normal 0 0 -1
    outer loop
      vertex 8.72064 2.94854 0
      vertex 10.95 7.75 0
      vertex 8.85445 2.6106 0
    endloop
  endfacet
  facet normal 0 0 -1
    outer loop
      vertex 8.507 3.24259 0
      vertex 10.95 7.75 0
      vertex 8.72064 2.94854 0
    endloop
  endfacet
  facet normal 0 0 -1
    outer loop
      vertex 8.22695 3.47427 0
      vertex 10.95 7.75 0
      vertex 8.507 3.24259 0
    endloop
  endfacet
  facet normal 0 0 -1
    outer loop
      vertex 7.89807 3.62903 0
      vertex 10.95 7.75 0
      vertex 8.22695 3.47427 0
    endloop
  endfacet
  facet normal 0 0 -1
    outer loop
      vertex 7.54105 3.69714 0
      vertex 10.95 7.75 0
      vertex 7.89807 3.62903 0
    endloop
  endfacet
  facet normal 0 0 -1
    outer loop
      vertex 7.1783 3.67432 0
      vertex 10.95 7.75 0
      vertex 7.54105 3.69714 0
    endloop
  endfacet
  facet normal 0 0 -1
    outer loop
      vertex 6.83262 3.562 0
      vertex 10.95 7.75 0
      vertex 7.1783 3.67432 0
    endloop
  endfacet
  facet normal 0 0 -1
    outer loop
      vertex -3.14608 4.79884 0
      vertex 6.83262 3.562 0
      vertex 6.52573 3.36724 0
    endloop
  endfacet
  facet normal -0 0 -1
    outer loop
      vertex 6.52573 1.13276 0
      vertex 1.41442 -4.00303 0
      vertex 6.27693 1.39771 0
    endloop
  endfacet
  facet normal 0 0 -1
    outer loop
      vertex 1.13318 -3.87069 0
      vertex 6.27693 1.39771 0
      vertex 1.41442 -4.00303 0
    endloop
  endfacet
  facet normal -0 0 -1
    outer loop
      vertex 6.27693 1.39771 0
      vertex 1.13318 -3.87069 0
      vertex 6.10182 1.71622 0
    endloop
  endfacet
  facet normal 0 0 -1
    outer loop
      vertex 0.82786 -3.81245 0
      vertex 6.10182 1.71622 0
      vertex 1.13318 -3.87069 0
    endloop
  endfacet
  facet normal -0 0 -1
    outer loop
      vertex 6.10182 1.71622 0
      vertex 0.82786 -3.81245 0
      vertex 6.01143 2.06827 0
    endloop
  endfacet
  facet normal 0 0 -1
    outer loop
      vertex -2.81 3.95 0
      vertex 6.01143 2.06827 0
      vertex 0.82786 -3.81245 0
    endloop
  endfacet
  facet normal 0 0 -1
    outer loop
      vertex 6.01143 2.06827 0
      vertex -2.81 3.95 0
      vertex 6.01143 2.43173 0
    endloop
  endfacet
  facet normal 0 0 -1
    outer loop
      vertex 6.01143 2.43173 0
      vertex -2.81 3.95 0
      vertex 6.10182 2.78378 0
    endloop
  endfacet
  facet normal 0 0 -1
    outer loop
      vertex -2.81 3.95 0
      vertex 0.82786 -3.81245 0
      vertex 0.517647 -3.83196 0
    endloop
  endfacet
  facet normal 0 0 -1
    outer loop
      vertex -2.81 3.95 0
      vertex 0.517647 -3.83196 0
      vertex 0.222033 -3.92801 0
    endloop
  endfacet
  facet normal 0 0 -1
    outer loop
      vertex -2.81 3.95 0
      vertex 0.222033 -3.92801 0
      vertex -0.0404064 -4.09456 0
    endloop
  endfacet
  facet normal 0 0 -1
    outer loop
      vertex -2.81 3.95 0
      vertex -0.0404064 -4.09456 0
      vertex -0.253182 -4.32115 0
    endloop
  endfacet
  facet normal 0 0 -1
    outer loop
      vertex -2.81 3.95 0
      vertex -0.402924 -4.59353 0
      vertex -0.480223 -4.89459 0
    endloop
  endfacet
  facet normal 0 0 -1
    outer loop
      vertex -2.81 3.95 0
      vertex -0.253182 -4.32115 0
      vertex -0.402924 -4.59353 0
    endloop
  endfacet
  facet normal 0 0 -1
    outer loop
      vertex -2.84896 4.25838 0
      vertex 6.10182 2.78378 0
      vertex -2.81 3.95 0
    endloop
  endfacet
  facet normal 0 0 -1
    outer loop
      vertex 6.10182 2.78378 0
      vertex -2.84896 4.25838 0
      vertex 6.27693 3.10229 0
    endloop
  endfacet
  facet normal 0 0 -1
    outer loop
      vertex -2.96338 4.54737 0
      vertex 6.27693 3.10229 0
      vertex -2.84896 4.25838 0
    endloop
  endfacet
  facet normal 0 0 -1
    outer loop
      vertex 6.27693 3.10229 0
      vertex -2.96338 4.54737 0
      vertex 6.52573 3.36724 0
    endloop
  endfacet
  facet normal 0 0 -1
    outer loop
      vertex -3.14608 4.79884 0
      vertex 6.52573 3.36724 0
      vertex -2.96338 4.54737 0
    endloop
  endfacet
  facet normal 0 0 -1
    outer loop
      vertex 6.83262 3.562 0
      vertex -3.14608 4.79884 0
      vertex 10.95 7.75 0
    endloop
  endfacet
  facet normal 0 0 -1
    outer loop
      vertex -3.38558 4.99697 0
      vertex 10.95 7.75 0
      vertex -3.14608 4.79884 0
    endloop
  endfacet
  facet normal 0 0 -1
    outer loop
      vertex -3.66682 5.12931 0
      vertex 10.95 7.75 0
      vertex -3.38558 4.99697 0
    endloop
  endfacet
  facet normal 0 0 -1
    outer loop
      vertex -3.97214 5.18755 0
      vertex 10.95 7.75 0
      vertex -3.66682 5.12931 0
    endloop
  endfacet
  facet normal 0 0 -1
    outer loop
      vertex -10.95 7.75 0
      vertex -3.97214 5.18755 0
      vertex -4.28235 5.16804 0
    endloop
  endfacet
  facet normal 0 0 -1
    outer loop
      vertex -5.28022 3.79459 0
      vertex -10.95 7.75 0
      vertex -5.28022 4.10541 0
    endloop
  endfacet
  facet normal 0 0 -1
    outer loop
      vertex -3.97214 5.18755 0
      vertex -10.95 7.75 0
      vertex 10.95 7.75 0
    endloop
  endfacet
  facet normal 0 0 -1
    outer loop
      vertex -4.57797 5.07199 0
      vertex -10.95 7.75 0
      vertex -4.28235 5.16804 0
    endloop
  endfacet
  facet normal 0 0 -1
    outer loop
      vertex -4.84041 4.90544 0
      vertex -10.95 7.75 0
      vertex -4.57797 5.07199 0
    endloop
  endfacet
  facet normal 0 0 -1
    outer loop
      vertex -5.05318 4.67885 0
      vertex -10.95 7.75 0
      vertex -4.84041 4.90544 0
    endloop
  endfacet
  facet normal 0 0 -1
    outer loop
      vertex -5.20292 4.40647 0
      vertex -10.95 7.75 0
      vertex -5.05318 4.67885 0
    endloop
  endfacet
  facet normal 0 0 -1
    outer loop
      vertex -5.28022 4.10541 0
      vertex -10.95 7.75 0
      vertex -5.20292 4.40647 0
    endloop
  endfacet
  facet normal 0 -1 0
    outer loop
      vertex -10.95 -7.75 2.7
      vertex -10.95 -7.75 0
      vertex -8.45 -7.75 2.7
    endloop
  endfacet
  facet normal 0 -1 0
    outer loop
      vertex -8.45 -7.75 2.7
      vertex 1.95 -7.75 4
      vertex -8.45 -7.75 4
    endloop
  endfacet
  facet normal 0 -1 0
    outer loop
      vertex -10.95 -7.75 0
      vertex 1.95 -7.75 4
      vertex -8.45 -7.75 2.7
    endloop
  endfacet
  facet normal 0 -1 0
    outer loop
      vertex 10.95 -7.75 0
      vertex 1.95 -7.75 4
      vertex -10.95 -7.75 0
    endloop
  endfacet
  facet normal 0 -1 0
    outer loop
      vertex 1.95 -7.75 4
      vertex 10.95 -7.75 0
      vertex 3.95 -7.75 4
    endloop
  endfacet
  facet normal 0 -1 0
    outer loop
      vertex 3.95 -7.75 4
      vertex 10.95 -7.75 0
      vertex 10.95 -7.75 4
    endloop
  endfacet
  facet normal 0 -1 0
    outer loop
      vertex 1.95 -7.75 4
      vertex 3.95 -7.75 15
      vertex 1.95 -7.75 15
    endloop
  endfacet
  facet normal 0 -1 -0
    outer loop
      vertex 3.95 -7.75 15
      vertex 1.95 -7.75 4
      vertex 3.95 -7.75 4
    endloop
  endfacet
  facet normal 0 1 -0
    outer loop
      vertex 10.95 7.75 0
      vertex -10.95 7.75 15
      vertex 10.95 7.75 15
    endloop
  endfacet
  facet normal 0 1 0
    outer loop
      vertex -10.95 7.75 15
      vertex 10.95 7.75 0
      vertex -10.95 7.75 0
    endloop
  endfacet
  facet normal -1 0 0
    outer loop
      vertex 1.95 -5.36101 4
      vertex 1.95 -7.75 4
      vertex 1.95 -5.36101 9.9
    endloop
  endfacet
  facet normal -1 0 0
    outer loop
      vertex 1.95 -4.73899 9.9
      vertex 1.95 5.75 4
      vertex 1.95 -4.73899 4
    endloop
  endfacet
  facet normal -1 0 0
    outer loop
      vertex 1.95 5.75 4
      vertex 1.95 -4.73899 9.9
      vertex 1.95 5.75 15
    endloop
  endfacet
  facet normal -1 0 0
    outer loop
      vertex 1.95 -7.75 15
      vertex 1.95 -4.73899 9.9
      vertex 1.95 -5.36101 9.9
    endloop
  endfacet
  facet normal -1 0 0
    outer loop
      vertex 1.95 -4.73899 9.9
      vertex 1.95 -7.75 15
      vertex 1.95 5.75 15
    endloop
  endfacet
  facet normal -1 0 0
    outer loop
      vertex 1.95 -7.75 15
      vertex 1.95 -5.36101 9.9
      vertex 1.95 -7.75 4
    endloop
  endfacet
  facet normal -0 0 1
    outer loop
      vertex 8.85445 2.6106 15
      vertex 10.95 -1.25 15
      vertex 10.95 7.75 15
    endloop
  endfacet
  facet normal 0 0 1
    outer loop
      vertex 10.95 -1.25 15
      vertex 8.85445 2.6106 15
      vertex 8.9 2.25 15
    endloop
  endfacet
  facet normal 0 0 1
    outer loop
      vertex 10.95 7.75 15
      vertex 8.72064 2.94854 15
      vertex 8.85445 2.6106 15
    endloop
  endfacet
  facet normal 0 0 1
    outer loop
      vertex 10.95 7.75 15
      vertex 8.507 3.24259 15
      vertex 8.72064 2.94854 15
    endloop
  endfacet
  facet normal 0 0 1
    outer loop
      vertex 10.95 7.75 15
      vertex 8.22695 3.47427 15
      vertex 8.507 3.24259 15
    endloop
  endfacet
  facet normal 0 0 1
    outer loop
      vertex 10.95 7.75 15
      vertex 7.89807 3.62903 15
      vertex 8.22695 3.47427 15
    endloop
  endfacet
  facet normal 0 0 1
    outer loop
      vertex 10.95 7.75 15
      vertex 7.54105 3.69714 15
      vertex 7.89807 3.62903 15
    endloop
  endfacet
  facet normal 0 0 1
    outer loop
      vertex 10.95 7.75 15
      vertex 7.1783 3.67432 15
      vertex 7.54105 3.69714 15
    endloop
  endfacet
  facet normal -0 0 1
    outer loop
      vertex 1.95 5.75 15
      vertex 7.1783 3.67432 15
      vertex 10.95 7.75 15
    endloop
  endfacet
  facet normal 0 0 1
    outer loop
      vertex 7.1783 3.67432 15
      vertex 1.95 5.75 15
      vertex 6.83262 3.562 15
    endloop
  endfacet
  facet normal 0 0 1
    outer loop
      vertex 1.95 5.75 15
      vertex 6.01143 2.06827 15
      vertex 6.01143 2.43173 15
    endloop
  endfacet
  facet normal 0 0 1
    outer loop
      vertex 1.95 5.75 15
      vertex 6.01143 2.43173 15
      vertex 6.10182 2.78378 15
    endloop
  endfacet
  facet normal 0 0 1
    outer loop
      vertex 1.95 -7.75 15
      vertex 3.95 -1.25 15
      vertex 1.95 5.75 15
    endloop
  endfacet
  facet normal 0 0 1
    outer loop
      vertex 6.01143 2.06827 15
      vertex 1.95 5.75 15
      vertex 3.95 -1.25 15
    endloop
  endfacet
  facet normal 0 0 1
    outer loop
      vertex 6.27693 3.10229 15
      vertex 1.95 5.75 15
      vertex 6.10182 2.78378 15
    endloop
  endfacet
  facet normal 0 0 1
    outer loop
      vertex 6.52573 3.36724 15
      vertex 1.95 5.75 15
      vertex 6.27693 3.10229 15
    endloop
  endfacet
  facet normal 0 0 1
    outer loop
      vertex 6.83262 3.562 15
      vertex 1.95 5.75 15
      vertex 6.52573 3.36724 15
    endloop
  endfacet
  facet normal -0 0 1
    outer loop
      vertex -10.95 7.75 15
      vertex 1.95 5.75 15
      vertex 10.95 7.75 15
    endloop
  endfacet
  facet normal 0 0 1
    outer loop
      vertex 1.95 5.75 15
      vertex -10.95 7.75 15
      vertex -10.95 5.75 15
    endloop
  endfacet
  facet normal -0 0 1
    outer loop
      vertex 8.85445 1.8894 15
      vertex 10.95 -1.25 15
      vertex 8.9 2.25 15
    endloop
  endfacet
  facet normal -0 0 1
    outer loop
      vertex 8.72064 1.55146 15
      vertex 10.95 -1.25 15
      vertex 8.85445 1.8894 15
    endloop
  endfacet
  facet normal -0 0 1
    outer loop
      vertex 8.507 1.25741 15
      vertex 10.95 -1.25 15
      vertex 8.72064 1.55146 15
    endloop
  endfacet
  facet normal -0 0 1
    outer loop
      vertex 8.22695 1.02572 15
      vertex 10.95 -1.25 15
      vertex 8.507 1.25741 15
    endloop
  endfacet
  facet normal -0 0 1
    outer loop
      vertex 7.89807 0.870968 15
      vertex 10.95 -1.25 15
      vertex 8.22695 1.02572 15
    endloop
  endfacet
  facet normal -0 0 1
    outer loop
      vertex 7.54105 0.802861 15
      vertex 10.95 -1.25 15
      vertex 7.89807 0.870968 15
    endloop
  endfacet
  facet normal 0 0 1
    outer loop
      vertex 3.95 -1.25 15
      vertex 7.54105 0.802861 15
      vertex 7.1783 0.825683 15
    endloop
  endfacet
  facet normal 0 0 1
    outer loop
      vertex 3.95 -1.25 15
      vertex 7.1783 0.825683 15
      vertex 6.83262 0.938001 15
    endloop
  endfacet
  facet normal 0 0 1
    outer loop
      vertex 7.54105 0.802861 15
      vertex 3.95 -1.25 15
      vertex 10.95 -1.25 15
    endloop
  endfacet
  facet normal 0 0 1
    outer loop
      vertex 6.52573 1.13276 15
      vertex 3.95 -1.25 15
      vertex 6.83262 0.938001 15
    endloop
  endfacet
  facet normal 0 0 1
    outer loop
      vertex 6.27693 1.39771 15
      vertex 3.95 -1.25 15
      vertex 6.52573 1.13276 15
    endloop
  endfacet
  facet normal 0 0 1
    outer loop
      vertex 6.10182 1.71622 15
      vertex 3.95 -1.25 15
      vertex 6.27693 1.39771 15
    endloop
  endfacet
  facet normal 0 0 1
    outer loop
      vertex 3.95 -1.25 15
      vertex 6.10182 1.71622 15
      vertex 6.01143 2.06827 15
    endloop
  endfacet
  facet normal 0 0 1
    outer loop
      vertex 3.95 -1.25 15
      vertex 1.95 -7.75 15
      vertex 3.95 -7.75 15
    endloop
  endfacet
  facet normal 1 -0 0
    outer loop
      vertex 3.95 -7.75 15
      vertex 3.95 -1.25 4
      vertex 3.95 -1.25 15
    endloop
  endfacet
  facet normal 1 0 0
    outer loop
      vertex 3.95 -1.25 4
      vertex 3.95 -7.75 15
      vertex 3.95 -7.75 4
    endloop
  endfacet
  facet normal -1 0 0
    outer loop
      vertex -10.95 7.75 0
      vertex -10.95 5.75 2.7
      vertex -10.95 7.75 15
    endloop
  endfacet
  facet normal -1 0 0
    outer loop
      vertex -10.95 -7.75 0
      vertex -10.95 5.75 2.7
      vertex -10.95 7.75 0
    endloop
  endfacet
  facet normal -1 -0 0
    outer loop
      vertex -10.95 5.75 2.7
      vertex -10.95 -7.75 0
      vertex -10.95 -7.75 2.7
    endloop
  endfacet
  facet normal -1 -0 0
    outer loop
      vertex -10.95 7.75 15
      vertex -10.95 5.75 2.7
      vertex -10.95 5.75 15
    endloop
  endfacet
  facet normal 0 -1 0
    outer loop
      vertex -10.95 5.75 15
      vertex -8.45 5.75 4
      vertex 1.95 5.75 15
    endloop
  endfacet
  facet normal 0 -1 0
    outer loop
      vertex -10.95 5.75 2.7
      vertex -8.45 5.75 4
      vertex -10.95 5.75 15
    endloop
  endfacet
  facet normal 0 -1 -0
    outer loop
      vertex -8.45 5.75 4
      vertex -10.95 5.75 2.7
      vertex -8.45 5.75 2.7
    endloop
  endfacet
  facet normal 0 -1 -0
    outer loop
      vertex 1.95 5.75 15
      vertex -8.45 5.75 4
      vertex 1.95 5.75 4
    endloop
  endfacet
  facet normal 0 -1 0
    outer loop
      vertex 3.95 -1.25 4
      vertex 10.95 -1.25 15
      vertex 3.95 -1.25 15
    endloop
  endfacet
  facet normal 0 -1 -0
    outer loop
      vertex 10.95 -1.25 15
      vertex 3.95 -1.25 4
      vertex 10.95 -1.25 4
    endloop
  endfacet
  facet normal -0 0 1
    outer loop
      vertex -10.95 5.75 2.7
      vertex -8.45 -7.75 2.7
      vertex -8.45 5.75 2.7
    endloop
  endfacet
  facet normal 0 0 1
    outer loop
      vertex -8.45 -7.75 2.7
      vertex -10.95 5.75 2.7
      vertex -10.95 -7.75 2.7
    endloop
  endfacet
  facet normal -1 0 0
    outer loop
      vertex 10.7 42 2
      vertex 10.7 42.5 4
      vertex 10.7 42.5 2
    endloop
  endfacet
  facet normal -1 -0 0
    outer loop
      vertex 10.7 42.5 4
      vertex 10.7 42 2
      vertex 10.7 42 4
    endloop
  endfacet
  facet normal 0 0 0
    outer loop
      vertex 10.7 42 2
      vertex 10.7 42.5 2
      vertex 10.7 51 2
    endloop
  endfacet
  facet normal 0 -1 0
    outer loop
      vertex 1.7 57.5 2
      vertex 2.2 57.5 4
      vertex 1.7 57.5 4
    endloop
  endfacet
  facet normal 0 -1 -0
    outer loop
      vertex 2.2 57.5 4
      vertex 1.7 57.5 2
      vertex 2.2 57.5 2
    endloop
  endfacet
  facet normal 0 0 0
    outer loop
      vertex 1.7 57.5 2
      vertex 3.7 57.5 2
      vertex 2.2 57.5 2
    endloop
  endfacet
  facet normal 0 1 -0
    outer loop
      vertex 10.7 42 2
      vertex -11.2 42 4
      vertex 10.7 42 4
    endloop
  endfacet
  facet normal 0 1 0
    outer loop
      vertex -11.2 42 4
      vertex 10.7 42 2
      vertex -11.2 42 2
    endloop
  endfacet
  facet normal 1 -0 0
    outer loop
      vertex 1.7 44.5 4
      vertex 1.7 57.5 2
      vertex 1.7 57.5 4
    endloop
  endfacet
  facet normal 1 0 0
    outer loop
      vertex 1.7 57.5 2
      vertex 1.7 44.5 4
      vertex 1.7 44.5 2
    endloop
  endfacet
  facet normal 0 0 0
    outer loop
      vertex 1.7 57.5 2
      vertex 1.7 44.5 2
      vertex 1.7 44 2
    endloop
  endfacet
  facet normal 0 0 1
    outer loop
      vertex 3.7 57.5 2
      vertex 1.7 57.5 2
      vertex 3.7 51 2
    endloop
  endfacet
  facet normal 0 0 1
    outer loop
      vertex 5.76143 47.3451 2
      vertex 5.7138 47.5307 2
      vertex 5.76143 47.3183 2
    endloop
  endfacet
  facet normal 0 0 1
    outer loop
      vertex 9.14502 47.3148 2
      vertex 10.7 51 2
      vertex 9.2 47.75 2
    endloop
  endfacet
  facet normal 0 0 1
    outer loop
      vertex 10.7 51 2
      vertex 9.14502 48.1852 2
      vertex 9.2 47.75 2
    endloop
  endfacet
  facet normal 0 0 1
    outer loop
      vertex 10.7 51 2
      vertex 8.98354 48.5931 2
      vertex 9.14502 48.1852 2
    endloop
  endfacet
  facet normal 0 0 1
    outer loop
      vertex 10.7 51 2
      vertex 8.72569 48.948 2
      vertex 8.98354 48.5931 2
    endloop
  endfacet
  facet normal 0 0 1
    outer loop
      vertex 10.7 51 2
      vertex 8.3877 49.2276 2
      vertex 8.72569 48.948 2
    endloop
  endfacet
  facet normal 0 0 1
    outer loop
      vertex 10.7 51 2
      vertex 7.99078 49.4143 2
      vertex 8.3877 49.2276 2
    endloop
  endfacet
  facet normal 0 0 1
    outer loop
      vertex 10.7 51 2
      vertex 7.55988 49.4965 2
      vertex 7.99078 49.4143 2
    endloop
  endfacet
  facet normal -0 0 1
    outer loop
      vertex 3.7 51 2
      vertex 7.55988 49.4965 2
      vertex 10.7 51 2
    endloop
  endfacet
  facet normal 0 0 1
    outer loop
      vertex 7.55988 49.4965 2
      vertex 3.7 51 2
      vertex 7.12208 49.469 2
    endloop
  endfacet
  facet normal 0 0 1
    outer loop
      vertex 5.7138 47.9693 2
      vertex 3.7 51 2
      vertex 5.7138 47.5307 2
    endloop
  endfacet
  facet normal 0 0 1
    outer loop
      vertex 5.82289 48.3942 2
      vertex 3.7 51 2
      vertex 5.7138 47.9693 2
    endloop
  endfacet
  facet normal 0 0 1
    outer loop
      vertex 6.03422 48.7786 2
      vertex 3.7 51 2
      vertex 5.82289 48.3942 2
    endloop
  endfacet
  facet normal 0 0 1
    outer loop
      vertex 6.33451 49.0984 2
      vertex 3.7 51 2
      vertex 6.03422 48.7786 2
    endloop
  endfacet
  facet normal 0 0 1
    outer loop
      vertex 6.70489 49.3334 2
      vertex 3.7 51 2
      vertex 6.33451 49.0984 2
    endloop
  endfacet
  facet normal 0 0 1
    outer loop
      vertex 7.12208 49.469 2
      vertex 3.7 51 2
      vertex 6.70489 49.3334 2
    endloop
  endfacet
  facet normal 0 0 1
    outer loop
      vertex 10.7 51 2
      vertex 9.14502 47.3148 2
      vertex 10.7 42 2
    endloop
  endfacet
  facet normal -0 0 1
    outer loop
      vertex 8.98354 46.9069 2
      vertex 10.7 42 2
      vertex 9.14502 47.3148 2
    endloop
  endfacet
  facet normal -0 0 1
    outer loop
      vertex 8.72569 46.552 2
      vertex 10.7 42 2
      vertex 8.98354 46.9069 2
    endloop
  endfacet
  facet normal -0 0 1
    outer loop
      vertex 8.3877 46.2724 2
      vertex 10.7 42 2
      vertex 8.72569 46.552 2
    endloop
  endfacet
  facet normal -0 0 1
    outer loop
      vertex 7.99078 46.0857 2
      vertex 10.7 42 2
      vertex 8.3877 46.2724 2
    endloop
  endfacet
  facet normal -0 0 1
    outer loop
      vertex 7.55988 46.0035 2
      vertex 10.7 42 2
      vertex 7.99078 46.0857 2
    endloop
  endfacet
  facet normal 0 0 1
    outer loop
      vertex 7.12208 46.031 2
      vertex 10.7 42 2
      vertex 7.55988 46.0035 2
    endloop
  endfacet
  facet normal 0 0 1
    outer loop
      vertex 6.9283 46.0757 2
      vertex 7.12208 46.031 2
      vertex 6.99806 46.0713 2
    endloop
  endfacet
  facet normal 0 0 1
    outer loop
      vertex 7.12208 46.031 2
      vertex 6.9283 46.0757 2
      vertex 10.7 42 2
    endloop
  endfacet
  facet normal 0 0 1
    outer loop
      vertex 1.7 44 2
      vertex 6.9283 46.0757 2
      vertex 6.58262 46.188 2
    endloop
  endfacet
  facet normal 0 0 1
    outer loop
      vertex 1.7 44 2
      vertex 6.58262 46.188 2
      vertex 6.27573 46.3828 2
    endloop
  endfacet
  facet normal 0 0 1
    outer loop
      vertex 1.7 44 2
      vertex 5.7138 47.5307 2
      vertex 3.7 51 2
    endloop
  endfacet
  facet normal 0 0 1
    outer loop
      vertex 5.7138 47.5307 2
      vertex 1.7 44 2
      vertex 5.76143 47.3183 2
    endloop
  endfacet
  facet normal 0 0 1
    outer loop
      vertex 1.7 44 2
      vertex 3.7 51 2
      vertex 1.7 57.5 2
    endloop
  endfacet
  facet normal 0 0 1
    outer loop
      vertex 5.76143 47.3183 2
      vertex 1.7 44 2
      vertex 5.85182 46.9662 2
    endloop
  endfacet
  facet normal 0 0 1
    outer loop
      vertex 1.7 44 2
      vertex 6.02693 46.6477 2
      vertex 5.85182 46.9662 2
    endloop
  endfacet
  facet normal 0 0 1
    outer loop
      vertex 1.7 44 2
      vertex 6.27573 46.3828 2
      vertex 6.02693 46.6477 2
    endloop
  endfacet
  facet normal 0 0 1
    outer loop
      vertex 6.9283 46.0757 2
      vertex 1.7 44 2
      vertex 10.7 42 2
    endloop
  endfacet
  facet normal 0 0 1
    outer loop
      vertex -11.2 42 2
      vertex 1.7 44 2
      vertex -11.2 44 2
    endloop
  endfacet
  facet normal 0 0 1
    outer loop
      vertex 1.7 44 2
      vertex -11.2 42 2
      vertex 10.7 42 2
    endloop
  endfacet
  facet normal 1 -0 0
    outer loop
      vertex -11.2 42 4
      vertex -11.2 44 2
      vertex -11.2 44 4
    endloop
  endfacet
  facet normal 1 0 0
    outer loop
      vertex -11.2 44 2
      vertex -11.2 42 4
      vertex -11.2 42 2
    endloop
  endfacet
  facet normal 0 -1 0
    outer loop
      vertex -11.2 44 2
      vertex -10.7 44 4
      vertex -11.2 44 4
    endloop
  endfacet
  facet normal 0 -1 -0
    outer loop
      vertex -10.7 44 4
      vertex -11.2 44 2
      vertex -10.7 44 2
    endloop
  endfacet
  facet normal 0 0 0
    outer loop
      vertex -10.7 44 2
      vertex -11.2 44 2
      vertex 1.7 44 2
    endloop
  endfacet
  facet normal -1 0 0
    outer loop
      vertex 11.2 42.5 2
      vertex 11.2 51.5 4
      vertex 11.2 51.5 2
    endloop
  endfacet
  facet normal -1 -0 0
    outer loop
      vertex 11.2 51.5 4
      vertex 11.2 42.5 2
      vertex 11.2 42.5 4
    endloop
  endfacet
  facet normal 0 -1 0
    outer loop
      vertex 2.2 58 2
      vertex 4.2 58 4
      vertex 2.2 58 4
    endloop
  endfacet
  facet normal 0 -1 -0
    outer loop
      vertex 4.2 58 4
      vertex 2.2 58 2
      vertex 4.2 58 2
    endloop
  endfacet
  facet normal 0 1 -0
    outer loop
      vertex 11.2 42.5 2
      vertex 10.7 42.5 4
      vertex 11.2 42.5 4
    endloop
  endfacet
  facet normal 0 1 0
    outer loop
      vertex 10.7 42.5 4
      vertex 11.2 42.5 2
      vertex 10.7 42.5 2
    endloop
  endfacet
  facet normal 1 -0 0
    outer loop
      vertex 2.2 57.5 4
      vertex 2.2 58 2
      vertex 2.2 58 4
    endloop
  endfacet
  facet normal 1 0 0
    outer loop
      vertex 2.2 58 2
      vertex 2.2 57.5 4
      vertex 2.2 57.5 2
    endloop
  endfacet
  facet normal 0 0 1
    outer loop
      vertex 4.2 58 2
      vertex 3.7 57.5 2
      vertex 4.2 51.5 2
    endloop
  endfacet
  facet normal -0 0 1
    outer loop
      vertex 2.2 58 2
      vertex 3.7 57.5 2
      vertex 4.2 58 2
    endloop
  endfacet
  facet normal 0 0 1
    outer loop
      vertex 3.7 57.5 2
      vertex 2.2 58 2
      vertex 2.2 57.5 2
    endloop
  endfacet
  facet normal 0 0 1
    outer loop
      vertex 11.2 51.5 2
      vertex 10.7 51 2
      vertex 11.2 42.5 2
    endloop
  endfacet
  facet normal -0 0 1
    outer loop
      vertex 4.2 51.5 2
      vertex 10.7 51 2
      vertex 11.2 51.5 2
    endloop
  endfacet
  facet normal 0 0 1
    outer loop
      vertex 4.2 51.5 2
      vertex 3.7 51 2
      vertex 10.7 51 2
    endloop
  endfacet
  facet normal 0 0 1
    outer loop
      vertex 3.7 51 2
      vertex 4.2 51.5 2
      vertex 3.7 57.5 2
    endloop
  endfacet
  facet normal 0 0 1
    outer loop
      vertex 11.2 42.5 2
      vertex 10.7 51 2
      vertex 10.7 42.5 2
    endloop
  endfacet
  facet normal -0 0 1
    outer loop
      vertex -10.7 44.5 2
      vertex 1.7 44 2
      vertex 1.7 44.5 2
    endloop
  endfacet
  facet normal 0 0 1
    outer loop
      vertex 1.7 44 2
      vertex -10.7 44.5 2
      vertex -10.7 44 2
    endloop
  endfacet
  facet normal 0 0 1
    outer loop
      vertex 6.70489 46.1666 2
      vertex 6.9283 46.0757 2
      vertex 6.99806 46.0713 2
    endloop
  endfacet
  facet normal 0 0 1
    outer loop
      vertex 6.70489 46.1666 2
      vertex 6.58262 46.188 2
      vertex 6.9283 46.0757 2
    endloop
  endfacet
  facet normal 0 0 1
    outer loop
      vertex 6.33451 46.4016 2
      vertex 6.58262 46.188 2
      vertex 6.70489 46.1666 2
    endloop
  endfacet
  facet normal 0 0 1
    outer loop
      vertex 6.33451 46.4016 2
      vertex 6.27573 46.3828 2
      vertex 6.58262 46.188 2
    endloop
  endfacet
  facet normal -0 0 1
    outer loop
      vertex 6.02693 46.6477 2
      vertex 6.33451 46.4016 2
      vertex 6.03422 46.7214 2
    endloop
  endfacet
  facet normal 0 0 1
    outer loop
      vertex 6.33451 46.4016 2
      vertex 6.02693 46.6477 2
      vertex 6.27573 46.3828 2
    endloop
  endfacet
  facet normal 0 0 1
    outer loop
      vertex 6.03422 46.7214 2
      vertex 5.85182 46.9662 2
      vertex 6.02693 46.6477 2
    endloop
  endfacet
  facet normal 0 0 1
    outer loop
      vertex 5.82289 47.1058 2
      vertex 5.85182 46.9662 2
      vertex 6.03422 46.7214 2
    endloop
  endfacet
  facet normal -0 0 1
    outer loop
      vertex 5.76143 47.3183 2
      vertex 5.82289 47.1058 2
      vertex 5.76143 47.3451 2
    endloop
  endfacet
  facet normal 0 0 1
    outer loop
      vertex 5.82289 47.1058 2
      vertex 5.76143 47.3183 2
      vertex 5.85182 46.9662 2
    endloop
  endfacet
  facet normal -1 0 0
    outer loop
      vertex 4.2 51.5 2
      vertex 4.2 58 4
      vertex 4.2 58 2
    endloop
  endfacet
  facet normal -1 -0 0
    outer loop
      vertex 4.2 58 4
      vertex 4.2 51.5 2
      vertex 4.2 51.5 4
    endloop
  endfacet
  facet normal 1 -0 0
    outer loop
      vertex -10.7 44 4
      vertex -10.7 44.5 2
      vertex -10.7 44.5 4
    endloop
  endfacet
  facet normal 1 0 0
    outer loop
      vertex -10.7 44.5 2
      vertex -10.7 44 4
      vertex -10.7 44 2
    endloop
  endfacet
  facet normal 0 -1 0
    outer loop
      vertex -10.7 44.5 2
      vertex 1.7 44.5 4
      vertex -10.7 44.5 4
    endloop
  endfacet
  facet normal 0 -1 -0
    outer loop
      vertex 1.7 44.5 4
      vertex -10.7 44.5 2
      vertex 1.7 44.5 2
    endloop
  endfacet
  facet normal 0 -1 0
    outer loop
      vertex 4.2 51.5 2
      vertex 11.2 51.5 4
      vertex 4.2 51.5 4
    endloop
  endfacet
  facet normal 0 -1 -0
    outer loop
      vertex 11.2 51.5 4
      vertex 4.2 51.5 2
      vertex 11.2 51.5 2
    endloop
  endfacet
  facet normal -0.992115 -0.125333 0
    outer loop
      vertex 9.2 47.75 0
      vertex 9.14502 48.1852 2
      vertex 9.14502 48.1852 0
    endloop
  endfacet
  facet normal -0.992115 -0.125333 0
    outer loop
      vertex 9.14502 48.1852 2
      vertex 9.2 47.75 0
      vertex 9.2 47.75 2
    endloop
  endfacet
  facet normal 1 -0 0
    outer loop
      vertex 5.7138 47.5307 2
      vertex 5.7138 47.9693 0
      vertex 5.7138 47.9693 2
    endloop
  endfacet
  facet normal 1 0 0
    outer loop
      vertex 5.7138 47.9693 0
      vertex 5.7138 47.5307 2
      vertex 5.7138 47.5307 0
    endloop
  endfacet
  facet normal 0.0627946 -0.998026 0
    outer loop
      vertex 7.12208 49.469 0
      vertex 7.55988 49.4965 2
      vertex 7.12208 49.469 2
    endloop
  endfacet
  facet normal 0.0627946 -0.998026 0
    outer loop
      vertex 7.55988 49.4965 2
      vertex 7.12208 49.469 0
      vertex 7.55988 49.4965 0
    endloop
  endfacet
  facet normal 0.728965 0.684551 0
    outer loop
      vertex 6.33451 46.4016 2
      vertex 6.03422 46.7214 0
      vertex 6.03422 46.7214 2
    endloop
  endfacet
  facet normal 0.728965 0.684551 0
    outer loop
      vertex 6.03422 46.7214 0
      vertex 6.33451 46.4016 2
      vertex 6.33451 46.4016 0
    endloop
  endfacet
  facet normal -0.63742 -0.770517 0
    outer loop
      vertex 8.3877 49.2276 0
      vertex 8.72569 48.948 2
      vertex 8.3877 49.2276 2
    endloop
  endfacet
  facet normal -0.63742 -0.770517 -0
    outer loop
      vertex 8.72569 48.948 2
      vertex 8.3877 49.2276 0
      vertex 8.72569 48.948 0
    endloop
  endfacet
  facet normal 0.728965 -0.684551 0
    outer loop
      vertex 6.03422 48.7786 2
      vertex 6.33451 49.0984 0
      vertex 6.33451 49.0984 2
    endloop
  endfacet
  facet normal 0.728965 -0.684551 0
    outer loop
      vertex 6.33451 49.0984 0
      vertex 6.03422 48.7786 2
      vertex 6.03422 48.7786 0
    endloop
  endfacet
  facet normal 0.876307 -0.481753 0
    outer loop
      vertex 5.82289 48.3942 2
      vertex 6.03422 48.7786 0
      vertex 6.03422 48.7786 2
    endloop
  endfacet
  facet normal 0.876307 -0.481753 0
    outer loop
      vertex 6.03422 48.7786 0
      vertex 5.82289 48.3942 2
      vertex 5.82289 48.3942 0
    endloop
  endfacet
  facet normal 0.309017 -0.951057 0
    outer loop
      vertex 6.70489 49.3334 0
      vertex 7.12208 49.469 2
      vertex 6.70489 49.3334 2
    endloop
  endfacet
  facet normal 0.309017 -0.951057 0
    outer loop
      vertex 7.12208 49.469 2
      vertex 6.70489 49.3334 0
      vertex 7.12208 49.469 0
    endloop
  endfacet
  facet normal -0.809018 0.587784 0
    outer loop
      vertex 8.72569 46.552 0
      vertex 8.98354 46.9069 2
      vertex 8.98354 46.9069 0
    endloop
  endfacet
  facet normal -0.809018 0.587784 0
    outer loop
      vertex 8.98354 46.9069 2
      vertex 8.72569 46.552 0
      vertex 8.72569 46.552 2
    endloop
  endfacet
  facet normal 0.535829 0.844326 -0
    outer loop
      vertex 6.70489 46.1666 0
      vertex 6.33451 46.4016 2
      vertex 6.70489 46.1666 2
    endloop
  endfacet
  facet normal 0.535829 0.844326 0
    outer loop
      vertex 6.33451 46.4016 2
      vertex 6.70489 46.1666 0
      vertex 6.33451 46.4016 0
    endloop
  endfacet
  facet normal 0.968582 0.248693 0
    outer loop
      vertex 5.76143 47.3451 2
      vertex 5.7138 47.5307 0
      vertex 5.7138 47.5307 2
    endloop
  endfacet
  facet normal 0.968584 0.248687 -0
    outer loop
      vertex 5.82289 47.1058 0
      vertex 5.76143 47.3451 2
      vertex 5.82289 47.1058 2
    endloop
  endfacet
  facet normal 0.968583 0.24869 -3.2209e-07
    outer loop
      vertex 5.76143 47.3451 2
      vertex 5.82289 47.1058 0
      vertex 5.7138 47.5307 0
    endloop
  endfacet
  facet normal -0.809018 -0.587784 0
    outer loop
      vertex 8.98354 48.5931 0
      vertex 8.72569 48.948 2
      vertex 8.72569 48.948 0
    endloop
  endfacet
  facet normal -0.809018 -0.587784 0
    outer loop
      vertex 8.72569 48.948 2
      vertex 8.98354 48.5931 0
      vertex 8.98354 48.5931 2
    endloop
  endfacet
  facet normal -0.929776 -0.368125 0
    outer loop
      vertex 9.14502 48.1852 0
      vertex 8.98354 48.5931 2
      vertex 8.98354 48.5931 0
    endloop
  endfacet
  facet normal -0.929776 -0.368125 0
    outer loop
      vertex 8.98354 48.5931 2
      vertex 9.14502 48.1852 0
      vertex 9.14502 48.1852 2
    endloop
  endfacet
  facet normal -0.187384 -0.982287 0
    outer loop
      vertex 7.55988 49.4965 0
      vertex 7.99078 49.4143 2
      vertex 7.55988 49.4965 2
    endloop
  endfacet
  facet normal -0.187384 -0.982287 -0
    outer loop
      vertex 7.99078 49.4143 2
      vertex 7.55988 49.4965 0
      vertex 7.99078 49.4143 0
    endloop
  endfacet
  facet normal -0.425779 -0.904827 0
    outer loop
      vertex 7.99078 49.4143 0
      vertex 8.3877 49.2276 2
      vertex 7.99078 49.4143 2
    endloop
  endfacet
  facet normal -0.425779 -0.904827 -0
    outer loop
      vertex 8.3877 49.2276 2
      vertex 7.99078 49.4143 0
      vertex 8.3877 49.2276 0
    endloop
  endfacet
  facet normal 0.968583 -0.24869 0
    outer loop
      vertex 5.7138 47.9693 2
      vertex 5.82289 48.3942 0
      vertex 5.82289 48.3942 2
    endloop
  endfacet
  facet normal 0.968583 -0.24869 0
    outer loop
      vertex 5.82289 48.3942 0
      vertex 5.7138 47.9693 2
      vertex 5.7138 47.9693 0
    endloop
  endfacet
  facet normal 0.535829 -0.844326 0
    outer loop
      vertex 6.33451 49.0984 0
      vertex 6.70489 49.3334 2
      vertex 6.33451 49.0984 2
    endloop
  endfacet
  facet normal 0.535829 -0.844326 0
    outer loop
      vertex 6.70489 49.3334 2
      vertex 6.33451 49.0984 0
      vertex 6.70489 49.3334 0
    endloop
  endfacet
  facet normal -0.187384 0.982287 0
    outer loop
      vertex 7.99078 46.0857 0
      vertex 7.55988 46.0035 2
      vertex 7.99078 46.0857 2
    endloop
  endfacet
  facet normal -0.187384 0.982287 0
    outer loop
      vertex 7.55988 46.0035 2
      vertex 7.99078 46.0857 0
      vertex 7.55988 46.0035 0
    endloop
  endfacet
  facet normal -0.637425 0.770512 0
    outer loop
      vertex 8.72569 46.552 0
      vertex 8.3877 46.2724 2
      vertex 8.72569 46.552 2
    endloop
  endfacet
  facet normal -0.637425 0.770512 0
    outer loop
      vertex 8.3877 46.2724 2
      vertex 8.72569 46.552 0
      vertex 8.3877 46.2724 0
    endloop
  endfacet
  facet normal 0.309006 0.95106 -0
    outer loop
      vertex 7.12208 46.031 0
      vertex 6.99806 46.0713 2
      vertex 7.12208 46.031 2
    endloop
  endfacet
  facet normal 0.309017 0.951057 7.65745e-07
    outer loop
      vertex 6.70489 46.1666 0
      vertex 6.99806 46.0713 2
      vertex 7.12208 46.031 0
    endloop
  endfacet
  facet normal 0.309022 0.951055 0
    outer loop
      vertex 6.99806 46.0713 2
      vertex 6.70489 46.1666 0
      vertex 6.70489 46.1666 2
    endloop
  endfacet
  facet normal 0.876307 0.481753 0
    outer loop
      vertex 6.03422 46.7214 2
      vertex 5.82289 47.1058 0
      vertex 5.82289 47.1058 2
    endloop
  endfacet
  facet normal 0.876307 0.481753 0
    outer loop
      vertex 5.82289 47.1058 0
      vertex 6.03422 46.7214 2
      vertex 6.03422 46.7214 0
    endloop
  endfacet
  facet normal -0.425779 0.904827 0
    outer loop
      vertex 8.3877 46.2724 0
      vertex 7.99078 46.0857 2
      vertex 8.3877 46.2724 2
    endloop
  endfacet
  facet normal -0.425779 0.904827 0
    outer loop
      vertex 7.99078 46.0857 2
      vertex 8.3877 46.2724 0
      vertex 7.99078 46.0857 0
    endloop
  endfacet
  facet normal -0.929775 0.368128 0
    outer loop
      vertex 8.98354 46.9069 0
      vertex 9.14502 47.3148 2
      vertex 9.14502 47.3148 0
    endloop
  endfacet
  facet normal -0.929775 0.368128 0
    outer loop
      vertex 9.14502 47.3148 2
      vertex 8.98354 46.9069 0
      vertex 8.98354 46.9069 2
    endloop
  endfacet
  facet normal -0.992115 0.125333 0
    outer loop
      vertex 9.14502 47.3148 0
      vertex 9.2 47.75 2
      vertex 9.2 47.75 0
    endloop
  endfacet
  facet normal -0.992115 0.125333 0
    outer loop
      vertex 9.2 47.75 2
      vertex 9.14502 47.3148 0
      vertex 9.14502 47.3148 2
    endloop
  endfacet
  facet normal 0.0627946 0.998026 -0
    outer loop
      vertex 7.55988 46.0035 0
      vertex 7.12208 46.031 2
      vertex 7.55988 46.0035 2
    endloop
  endfacet
  facet normal 0.0627946 0.998026 0
    outer loop
      vertex 7.12208 46.031 2
      vertex 7.55988 46.0035 0
      vertex 7.12208 46.031 0
    endloop
  endfacet
  facet normal -1 0 0
    outer loop
      vertex -12.95 41.25 0
      vertex -12.95 58.75 4
      vertex -12.95 58.75 0
    endloop
  endfacet
  facet normal -1 -0 0
    outer loop
      vertex -12.95 58.75 4
      vertex -12.95 41.25 0
      vertex -12.95 41.25 4
    endloop
  endfacet
  facet normal 0 0 1
    outer loop
      vertex 12.95 58.75 4
      vertex 11.2 51.5 4
      vertex 12.95 41.25 4
    endloop
  endfacet
  facet normal 0 0 1
    outer loop
      vertex 12.95 58.75 4
      vertex 4.2 58 4
      vertex 11.2 51.5 4
    endloop
  endfacet
  facet normal 0 0 1
    outer loop
      vertex 12.95 58.75 4
      vertex 2.2 58 4
      vertex 4.2 58 4
    endloop
  endfacet
  facet normal 0 0 1
    outer loop
      vertex 2.2 58 4
      vertex 1.7 57.5 4
      vertex 2.2 57.5 4
    endloop
  endfacet
  facet normal 0 0 1
    outer loop
      vertex 1.7 57.5 4
      vertex -10.7 44.5 4
      vertex 1.7 44.5 4
    endloop
  endfacet
  facet normal 0 0 1
    outer loop
      vertex -10.7 44.5 4
      vertex -11.2 44 4
      vertex -10.7 44 4
    endloop
  endfacet
  facet normal 0 0 1
    outer loop
      vertex -12.95 58.75 4
      vertex -10.7 44.5 4
      vertex 1.7 57.5 4
    endloop
  endfacet
  facet normal 0 0 1
    outer loop
      vertex -12.95 41.25 4
      vertex -11.2 44 4
      vertex -12.95 58.75 4
    endloop
  endfacet
  facet normal 0 0 1
    outer loop
      vertex -10.7 44.5 4
      vertex -12.95 58.75 4
      vertex -11.2 44 4
    endloop
  endfacet
  facet normal 0 0 1
    outer loop
      vertex 2.2 58 4
      vertex -12.95 58.75 4
      vertex 1.7 57.5 4
    endloop
  endfacet
  facet normal -0 0 1
    outer loop
      vertex -12.95 58.75 4
      vertex 2.2 58 4
      vertex 12.95 58.75 4
    endloop
  endfacet
  facet normal -0 0 1
    outer loop
      vertex 11.2 42.5 4
      vertex 12.95 41.25 4
      vertex 11.2 51.5 4
    endloop
  endfacet
  facet normal 0 0 1
    outer loop
      vertex 10.7 42 4
      vertex 11.2 42.5 4
      vertex 10.7 42.5 4
    endloop
  endfacet
  facet normal 0 0 1
    outer loop
      vertex 11.2 42.5 4
      vertex 10.7 42 4
      vertex 12.95 41.25 4
    endloop
  endfacet
  facet normal 0 0 1
    outer loop
      vertex -12.95 41.25 4
      vertex 10.7 42 4
      vertex -11.2 42 4
    endloop
  endfacet
  facet normal 0 0 1
    outer loop
      vertex 10.7 42 4
      vertex -12.95 41.25 4
      vertex 12.95 41.25 4
    endloop
  endfacet
  facet normal 0 0 1
    outer loop
      vertex -11.2 44 4
      vertex -12.95 41.25 4
      vertex -11.2 42 4
    endloop
  endfacet
  facet normal 0 0 1
    outer loop
      vertex 11.2 51.5 4
      vertex 4.2 58 4
      vertex 4.2 51.5 4
    endloop
  endfacet
  facet normal 1 -0 0
    outer loop
      vertex 12.95 41.25 4
      vertex 12.95 58.75 0
      vertex 12.95 58.75 4
    endloop
  endfacet
  facet normal 1 0 0
    outer loop
      vertex 12.95 58.75 0
      vertex 12.95 41.25 4
      vertex 12.95 41.25 0
    endloop
  endfacet
  facet normal 0 1 -0
    outer loop
      vertex 12.95 58.75 0
      vertex -12.95 58.75 4
      vertex 12.95 58.75 4
    endloop
  endfacet
  facet normal 0 1 0
    outer loop
      vertex -12.95 58.75 4
      vertex 12.95 58.75 0
      vertex -12.95 58.75 0
    endloop
  endfacet
  facet normal 0 0 -1
    outer loop
      vertex 9.14502 48.1852 0
      vertex 12.95 41.25 0
      vertex 9.2 47.75 0
    endloop
  endfacet
  facet normal 0 0 -1
    outer loop
      vertex 12.95 41.25 0
      vertex 9.14502 47.3148 0
      vertex 9.2 47.75 0
    endloop
  endfacet
  facet normal 0 0 -1
    outer loop
      vertex 12.95 41.25 0
      vertex 8.98354 46.9069 0
      vertex 9.14502 47.3148 0
    endloop
  endfacet
  facet normal 0 0 -1
    outer loop
      vertex 12.95 41.25 0
      vertex 8.72569 46.552 0
      vertex 8.98354 46.9069 0
    endloop
  endfacet
  facet normal 0 0 -1
    outer loop
      vertex 12.95 41.25 0
      vertex 8.3877 46.2724 0
      vertex 8.72569 46.552 0
    endloop
  endfacet
  facet normal 0 0 -1
    outer loop
      vertex 12.95 41.25 0
      vertex 7.99078 46.0857 0
      vertex 8.3877 46.2724 0
    endloop
  endfacet
  facet normal 0 0 -1
    outer loop
      vertex 12.95 41.25 0
      vertex 7.55988 46.0035 0
      vertex 7.99078 46.0857 0
    endloop
  endfacet
  facet normal 0 0 -1
    outer loop
      vertex 12.95 41.25 0
      vertex 7.12208 46.031 0
      vertex 7.55988 46.0035 0
    endloop
  endfacet
  facet normal 0 0 -1
    outer loop
      vertex 12.95 41.25 0
      vertex 6.70489 46.1666 0
      vertex 7.12208 46.031 0
    endloop
  endfacet
  facet normal 0 0 -1
    outer loop
      vertex -12.95 41.25 0
      vertex 6.70489 46.1666 0
      vertex 12.95 41.25 0
    endloop
  endfacet
  facet normal -0 0 -1
    outer loop
      vertex 5.7138 47.5307 0
      vertex -12.95 41.25 0
      vertex 5.7138 47.9693 0
    endloop
  endfacet
  facet normal -0 0 -1
    outer loop
      vertex 5.82289 47.1058 0
      vertex -12.95 41.25 0
      vertex 5.7138 47.5307 0
    endloop
  endfacet
  facet normal -0 0 -1
    outer loop
      vertex 6.03422 46.7214 0
      vertex -12.95 41.25 0
      vertex 5.82289 47.1058 0
    endloop
  endfacet
  facet normal -0 0 -1
    outer loop
      vertex 6.33451 46.4016 0
      vertex -12.95 41.25 0
      vertex 6.03422 46.7214 0
    endloop
  endfacet
  facet normal -0 0 -1
    outer loop
      vertex 6.70489 46.1666 0
      vertex -12.95 41.25 0
      vertex 6.33451 46.4016 0
    endloop
  endfacet
  facet normal 0 0 -1
    outer loop
      vertex 12.95 41.25 0
      vertex 9.14502 48.1852 0
      vertex 12.95 58.75 0
    endloop
  endfacet
  facet normal 0 0 -1
    outer loop
      vertex 8.98354 48.5931 0
      vertex 12.95 58.75 0
      vertex 9.14502 48.1852 0
    endloop
  endfacet
  facet normal 0 0 -1
    outer loop
      vertex 8.72569 48.948 0
      vertex 12.95 58.75 0
      vertex 8.98354 48.5931 0
    endloop
  endfacet
  facet normal 0 0 -1
    outer loop
      vertex 8.3877 49.2276 0
      vertex 12.95 58.75 0
      vertex 8.72569 48.948 0
    endloop
  endfacet
  facet normal 0 0 -1
    outer loop
      vertex 7.99078 49.4143 0
      vertex 12.95 58.75 0
      vertex 8.3877 49.2276 0
    endloop
  endfacet
  facet normal 0 0 -1
    outer loop
      vertex 7.55988 49.4965 0
      vertex 12.95 58.75 0
      vertex 7.99078 49.4143 0
    endloop
  endfacet
  facet normal 0 0 -1
    outer loop
      vertex 7.12208 49.469 0
      vertex 12.95 58.75 0
      vertex 7.55988 49.4965 0
    endloop
  endfacet
  facet normal 0 0 -1
    outer loop
      vertex 6.70489 49.3334 0
      vertex 12.95 58.75 0
      vertex 7.12208 49.469 0
    endloop
  endfacet
  facet normal 0 0 -1
    outer loop
      vertex -12.95 58.75 0
      vertex 6.70489 49.3334 0
      vertex 6.33451 49.0984 0
    endloop
  endfacet
  facet normal 0 0 -1
    outer loop
      vertex -12.95 58.75 0
      vertex 6.33451 49.0984 0
      vertex 6.03422 48.7786 0
    endloop
  endfacet
  facet normal 0 0 -1
    outer loop
      vertex -12.95 58.75 0
      vertex 5.7138 47.9693 0
      vertex -12.95 41.25 0
    endloop
  endfacet
  facet normal 0 0 -1
    outer loop
      vertex 5.7138 47.9693 0
      vertex -12.95 58.75 0
      vertex 5.82289 48.3942 0
    endloop
  endfacet
  facet normal 0 0 -1
    outer loop
      vertex 5.82289 48.3942 0
      vertex -12.95 58.75 0
      vertex 6.03422 48.7786 0
    endloop
  endfacet
  facet normal 0 0 -1
    outer loop
      vertex 6.70489 49.3334 0
      vertex -12.95 58.75 0
      vertex 12.95 58.75 0
    endloop
  endfacet
  facet normal 0 -1 0
    outer loop
      vertex -12.95 41.25 0
      vertex 12.95 41.25 4
      vertex -12.95 41.25 4
    endloop
  endfacet
  facet normal 0 -1 -0
    outer loop
      vertex 12.95 41.25 4
      vertex -12.95 41.25 0
      vertex 12.95 41.25 0
    endloop
  endfacet
endsolid OpenSCAD_Model
