solid OpenSCAD_Model
  facet normal -0 0 -1
    outer loop
      vertex -21.1701 0 0
      vertex -20.7075 4.40152 0
      vertex -20.7075 -4.40152 0
    endloop
  endfacet
  facet normal 0 -0 -1
    outer loop
      vertex -20.7075 -4.40152 0
      vertex -20.7075 4.40152 0
      vertex -19.3399 8.61067 0
    endloop
  endfacet
  facet normal 0 0 -1
    outer loop
      vertex -20.7075 -4.40152 0
      vertex -19.3399 8.61067 0
      vertex -17.127 12.4435 0
    endloop
  endfacet
  facet normal 0 0 -1
    outer loop
      vertex -20.7075 -4.40152 0
      vertex -17.127 12.4435 0
      vertex -14.1656 15.7325 0
    endloop
  endfacet
  facet normal 0 0 -1
    outer loop
      vertex -20.7075 -4.40152 0
      vertex -14.1656 15.7325 0
      vertex -10.5851 18.3339 0
    endloop
  endfacet
  facet normal 0 0 -1
    outer loop
      vertex -20.7075 -4.40152 0
      vertex -10.5851 18.3339 0
      vertex -6.54193 20.134 0
    endloop
  endfacet
  facet normal 0 0 -1
    outer loop
      vertex -20.7075 -4.40152 0
      vertex -6.54193 20.134 0
      vertex -2.21288 21.0542 0
    endloop
  endfacet
  facet normal 0 0 -1
    outer loop
      vertex -20.7075 -4.40152 0
      vertex -2.21288 21.0542 0
      vertex 2.21288 21.0542 0
    endloop
  endfacet
  facet normal 0 0 -1
    outer loop
      vertex -20.7075 -4.40152 0
      vertex 2.21288 21.0542 0
      vertex 6.54193 20.134 0
    endloop
  endfacet
  facet normal 0 0 -1
    outer loop
      vertex -20.7075 -4.40152 0
      vertex 6.54193 20.134 0
      vertex 10.5851 18.3339 0
    endloop
  endfacet
  facet normal 0 0 -1
    outer loop
      vertex -20.7075 -4.40152 0
      vertex 10.5851 18.3339 0
      vertex 14.1656 15.7325 0
    endloop
  endfacet
  facet normal 0 0 -1
    outer loop
      vertex -20.7075 -4.40152 0
      vertex 14.1656 15.7325 0
      vertex 17.127 12.4435 0
    endloop
  endfacet
  facet normal 0 0 -1
    outer loop
      vertex 2.27226 3.29194 0
      vertex 17.127 12.4435 0
      vertex 19.3399 8.61067 0
    endloop
  endfacet
  facet normal -0 0 -1
    outer loop
      vertex 4 0 0
      vertex 20.7075 4.40152 0
      vertex 21.1701 0 0
    endloop
  endfacet
  facet normal 0 0 -1
    outer loop
      vertex -20.7075 -4.40152 0
      vertex 20.7075 -4.40152 0
      vertex 19.3399 -8.61067 0
    endloop
  endfacet
  facet normal 0 0 -1
    outer loop
      vertex -20.7075 -4.40152 0
      vertex 19.3399 -8.61067 0
      vertex 17.127 -12.4435 0
    endloop
  endfacet
  facet normal 0 0 -1
    outer loop
      vertex -20.7075 -4.40152 0
      vertex 17.127 -12.4435 0
      vertex 14.1656 -15.7325 0
    endloop
  endfacet
  facet normal 0 0 -1
    outer loop
      vertex -20.7075 -4.40152 0
      vertex 14.1656 -15.7325 0
      vertex 10.5851 -18.3339 0
    endloop
  endfacet
  facet normal 0 0 -1
    outer loop
      vertex -20.7075 -4.40152 0
      vertex 10.5851 -18.3339 0
      vertex 6.54193 -20.134 0
    endloop
  endfacet
  facet normal 0 0 -1
    outer loop
      vertex -20.7075 -4.40152 0
      vertex 6.54193 -20.134 0
      vertex 2.21288 -21.0542 0
    endloop
  endfacet
  facet normal 0 0 -1
    outer loop
      vertex -20.7075 -4.40152 0
      vertex 2.21288 -21.0542 0
      vertex -2.21288 -21.0542 0
    endloop
  endfacet
  facet normal 0 0 -1
    outer loop
      vertex -20.7075 -4.40152 0
      vertex -2.21288 -21.0542 0
      vertex -6.54193 -20.134 0
    endloop
  endfacet
  facet normal 0 0 -1
    outer loop
      vertex -20.7075 -4.40152 0
      vertex -6.54193 -20.134 0
      vertex -10.5851 -18.3339 0
    endloop
  endfacet
  facet normal 0 0 -1
    outer loop
      vertex -20.7075 -4.40152 0
      vertex -10.5851 -18.3339 0
      vertex -14.1656 -15.7325 0
    endloop
  endfacet
  facet normal 0 0 -1
    outer loop
      vertex -20.7075 -4.40152 0
      vertex -14.1656 -15.7325 0
      vertex -17.127 -12.4435 0
    endloop
  endfacet
  facet normal 0 0 -1
    outer loop
      vertex -20.7075 -4.40152 0
      vertex -17.127 -12.4435 0
      vertex -19.3399 -8.61067 0
    endloop
  endfacet
  facet normal 0 0 -1
    outer loop
      vertex -3.88377 -0.957263 0
      vertex -20.7075 -4.40152 0
      vertex -3.88377 0.957263 0
    endloop
  endfacet
  facet normal 0 0 -1
    outer loop
      vertex -2.99404 -2.65249 0
      vertex -20.7075 -4.40152 0
      vertex -3.88377 -0.957263 0
    endloop
  endfacet
  facet normal 0 0 -1
    outer loop
      vertex 4 0 0
      vertex 21.1701 0 0
      vertex 3.54182 -1.85889 0
    endloop
  endfacet
  facet normal 0 0 -1
    outer loop
      vertex -20.7075 -4.40152 0
      vertex -2.99404 -2.65249 0
      vertex -1.41842 -3.74006 0
    endloop
  endfacet
  facet normal 0 0 -1
    outer loop
      vertex 3.54182 -1.85889 0
      vertex 20.7075 -4.40152 0
      vertex 2.27226 -3.29194 0
    endloop
  endfacet
  facet normal 0 0 -1
    outer loop
      vertex -20.7075 -4.40152 0
      vertex -1.41842 -3.74006 0
      vertex 0.482147 -3.97083 0
    endloop
  endfacet
  facet normal -0 0 -1
    outer loop
      vertex -20.7075 -4.40152 0
      vertex 0.482147 -3.97083 0
      vertex 20.7075 -4.40152 0
    endloop
  endfacet
  facet normal -0 0 -1
    outer loop
      vertex 3.54182 -1.85889 0
      vertex 21.1701 0 0
      vertex 20.7075 -4.40152 0
    endloop
  endfacet
  facet normal 0 0 -1
    outer loop
      vertex 2.27226 -3.29194 0
      vertex 20.7075 -4.40152 0
      vertex 0.482147 -3.97083 0
    endloop
  endfacet
  facet normal -0 0 -1
    outer loop
      vertex 2.27226 3.29194 0
      vertex 20.7075 4.40152 0
      vertex 3.54182 1.85889 0
    endloop
  endfacet
  facet normal -0 0 -1
    outer loop
      vertex 3.54182 1.85889 0
      vertex 20.7075 4.40152 0
      vertex 4 0 0
    endloop
  endfacet
  facet normal -0 0 -1
    outer loop
      vertex 0.482147 3.97083 0
      vertex 17.127 12.4435 0
      vertex 2.27226 3.29194 0
    endloop
  endfacet
  facet normal 0 0 -1
    outer loop
      vertex 2.27226 3.29194 0
      vertex 19.3399 8.61067 0
      vertex 20.7075 4.40152 0
    endloop
  endfacet
  facet normal 0 0 -1
    outer loop
      vertex -1.41842 3.74006 0
      vertex 17.127 12.4435 0
      vertex 0.482147 3.97083 0
    endloop
  endfacet
  facet normal 0 0 -1
    outer loop
      vertex -20.7075 -4.40152 0
      vertex 17.127 12.4435 0
      vertex -1.41842 3.74006 0
    endloop
  endfacet
  facet normal 0 0 -1
    outer loop
      vertex -20.7075 -4.40152 0
      vertex -1.41842 3.74006 0
      vertex -2.99404 2.65249 0
    endloop
  endfacet
  facet normal 0 -0 -1
    outer loop
      vertex -3.88377 0.957263 0
      vertex -20.7075 -4.40152 0
      vertex -2.99404 2.65249 0
    endloop
  endfacet
  facet normal -0.994522 0.104528 0
    outer loop
      vertex -21.1701 0 0
      vertex -21.1701 0 1.5
      vertex -20.7075 4.40152 0
    endloop
  endfacet
  facet normal -0.994522 0.104528 0
    outer loop
      vertex -20.7075 4.40152 0
      vertex -21.1701 0 1.5
      vertex -20.7075 4.40152 1.5
    endloop
  endfacet
  facet normal -0.994522 -0.104528 -0
    outer loop
      vertex -21.1701 0 0
      vertex -20.7075 -4.40152 0
      vertex -21.1701 0 1.5
    endloop
  endfacet
  facet normal -0.994522 -0.104528 0
    outer loop
      vertex -21.1701 0 1.5
      vertex -20.7075 -4.40152 0
      vertex -20.7075 -4.40152 1.5
    endloop
  endfacet
  facet normal -0.951056 -0.309017 -0
    outer loop
      vertex -20.7075 -4.40152 0
      vertex -19.3399 -8.61067 0
      vertex -20.7075 -4.40152 1.5
    endloop
  endfacet
  facet normal -0.951056 -0.309017 0
    outer loop
      vertex -20.7075 -4.40152 1.5
      vertex -19.3399 -8.61067 0
      vertex -19.3399 -8.61067 1.5
    endloop
  endfacet
  facet normal -0.866025 -0.5 -0
    outer loop
      vertex -19.3399 -8.61067 0
      vertex -17.127 -12.4435 0
      vertex -19.3399 -8.61067 1.5
    endloop
  endfacet
  facet normal -0.866025 -0.5 0
    outer loop
      vertex -19.3399 -8.61067 1.5
      vertex -17.127 -12.4435 0
      vertex -17.127 -12.4435 1.5
    endloop
  endfacet
  facet normal -0.743145 -0.669131 -0
    outer loop
      vertex -17.127 -12.4435 0
      vertex -14.1656 -15.7325 0
      vertex -17.127 -12.4435 1.5
    endloop
  endfacet
  facet normal -0.743145 -0.669131 0
    outer loop
      vertex -17.127 -12.4435 1.5
      vertex -14.1656 -15.7325 0
      vertex -14.1656 -15.7325 1.5
    endloop
  endfacet
  facet normal -0.587785 -0.809017 0
    outer loop
      vertex -14.1656 -15.7325 1.5
      vertex -14.1656 -15.7325 0
      vertex -10.5851 -18.3339 0
    endloop
  endfacet
  facet normal -0.587785 -0.809017 0
    outer loop
      vertex -10.5851 -18.3339 1.5
      vertex -14.1656 -15.7325 1.5
      vertex -10.5851 -18.3339 0
    endloop
  endfacet
  facet normal -0.406737 -0.913545 0
    outer loop
      vertex -10.5851 -18.3339 1.5
      vertex -10.5851 -18.3339 0
      vertex -6.54193 -20.134 0
    endloop
  endfacet
  facet normal -0.406737 -0.913545 0
    outer loop
      vertex -6.54193 -20.134 1.5
      vertex -10.5851 -18.3339 1.5
      vertex -6.54193 -20.134 0
    endloop
  endfacet
  facet normal -0.207912 -0.978148 0
    outer loop
      vertex -6.54193 -20.134 1.5
      vertex -6.54193 -20.134 0
      vertex -2.21288 -21.0542 0
    endloop
  endfacet
  facet normal -0.207912 -0.978148 0
    outer loop
      vertex -2.21288 -21.0542 1.5
      vertex -6.54193 -20.134 1.5
      vertex -2.21288 -21.0542 0
    endloop
  endfacet
  facet normal 0 -1 0
    outer loop
      vertex -2.21288 -21.0542 1.5
      vertex -2.21288 -21.0542 0
      vertex 2.21288 -21.0542 0
    endloop
  endfacet
  facet normal 0 -1 0
    outer loop
      vertex 2.21288 -21.0542 1.5
      vertex -2.21288 -21.0542 1.5
      vertex 2.21288 -21.0542 0
    endloop
  endfacet
  facet normal 0.207912 -0.978148 0
    outer loop
      vertex 2.21288 -21.0542 1.5
      vertex 2.21288 -21.0542 0
      vertex 6.54193 -20.134 0
    endloop
  endfacet
  facet normal 0.207912 -0.978148 0
    outer loop
      vertex 6.54193 -20.134 1.5
      vertex 2.21288 -21.0542 1.5
      vertex 6.54193 -20.134 0
    endloop
  endfacet
  facet normal 0.406737 -0.913545 0
    outer loop
      vertex 6.54193 -20.134 1.5
      vertex 6.54193 -20.134 0
      vertex 10.5851 -18.3339 0
    endloop
  endfacet
  facet normal 0.406737 -0.913545 0
    outer loop
      vertex 10.5851 -18.3339 1.5
      vertex 6.54193 -20.134 1.5
      vertex 10.5851 -18.3339 0
    endloop
  endfacet
  facet normal 0.587785 -0.809017 0
    outer loop
      vertex 10.5851 -18.3339 1.5
      vertex 10.5851 -18.3339 0
      vertex 14.1656 -15.7325 0
    endloop
  endfacet
  facet normal 0.587785 -0.809017 0
    outer loop
      vertex 14.1656 -15.7325 1.5
      vertex 10.5851 -18.3339 1.5
      vertex 14.1656 -15.7325 0
    endloop
  endfacet
  facet normal 0.743145 -0.669131 0
    outer loop
      vertex 14.1656 -15.7325 1.5
      vertex 14.1656 -15.7325 0
      vertex 17.127 -12.4435 0
    endloop
  endfacet
  facet normal 0.743145 -0.669131 0
    outer loop
      vertex 17.127 -12.4435 1.5
      vertex 14.1656 -15.7325 1.5
      vertex 17.127 -12.4435 0
    endloop
  endfacet
  facet normal 0.866025 -0.5 0
    outer loop
      vertex 17.127 -12.4435 1.5
      vertex 17.127 -12.4435 0
      vertex 19.3399 -8.61067 0
    endloop
  endfacet
  facet normal 0.866025 -0.5 0
    outer loop
      vertex 19.3399 -8.61067 1.5
      vertex 17.127 -12.4435 1.5
      vertex 19.3399 -8.61067 0
    endloop
  endfacet
  facet normal 0.951056 -0.309017 0
    outer loop
      vertex 19.3399 -8.61067 1.5
      vertex 19.3399 -8.61067 0
      vertex 20.7075 -4.40152 0
    endloop
  endfacet
  facet normal 0.951056 -0.309017 0
    outer loop
      vertex 20.7075 -4.40152 1.5
      vertex 19.3399 -8.61067 1.5
      vertex 20.7075 -4.40152 0
    endloop
  endfacet
  facet normal 0.994522 -0.104528 0
    outer loop
      vertex 20.7075 -4.40152 1.5
      vertex 20.7075 -4.40152 0
      vertex 21.1701 0 0
    endloop
  endfacet
  facet normal 0.994522 -0.104528 0
    outer loop
      vertex 21.1701 0 1.5
      vertex 20.7075 -4.40152 1.5
      vertex 21.1701 0 0
    endloop
  endfacet
  facet normal 0.994522 0.104528 0
    outer loop
      vertex 21.1701 0 0
      vertex 20.7075 4.40152 0
      vertex 20.7075 4.40152 1.5
    endloop
  endfacet
  facet normal 0.994522 0.104528 -0
    outer loop
      vertex 21.1701 0 1.5
      vertex 21.1701 0 0
      vertex 20.7075 4.40152 1.5
    endloop
  endfacet
  facet normal 0.951056 0.309017 0
    outer loop
      vertex 20.7075 4.40152 0
      vertex 19.3399 8.61067 0
      vertex 19.3399 8.61067 1.5
    endloop
  endfacet
  facet normal 0.951056 0.309017 -0
    outer loop
      vertex 20.7075 4.40152 1.5
      vertex 20.7075 4.40152 0
      vertex 19.3399 8.61067 1.5
    endloop
  endfacet
  facet normal 0.866025 0.5 0
    outer loop
      vertex 19.3399 8.61067 0
      vertex 17.127 12.4435 0
      vertex 17.127 12.4435 1.5
    endloop
  endfacet
  facet normal 0.866025 0.5 -0
    outer loop
      vertex 19.3399 8.61067 1.5
      vertex 19.3399 8.61067 0
      vertex 17.127 12.4435 1.5
    endloop
  endfacet
  facet normal 0.743145 0.669131 0
    outer loop
      vertex 17.127 12.4435 0
      vertex 14.1656 15.7325 0
      vertex 14.1656 15.7325 1.5
    endloop
  endfacet
  facet normal 0.743145 0.669131 -0
    outer loop
      vertex 17.127 12.4435 1.5
      vertex 17.127 12.4435 0
      vertex 14.1656 15.7325 1.5
    endloop
  endfacet
  facet normal 0.587785 0.809017 0
    outer loop
      vertex 10.5851 18.3339 0
      vertex 10.5851 18.3339 1.5
      vertex 14.1656 15.7325 0
    endloop
  endfacet
  facet normal 0.587785 0.809017 0
    outer loop
      vertex 14.1656 15.7325 0
      vertex 10.5851 18.3339 1.5
      vertex 14.1656 15.7325 1.5
    endloop
  endfacet
  facet normal 0.406737 0.913545 0
    outer loop
      vertex 6.54193 20.134 0
      vertex 6.54193 20.134 1.5
      vertex 10.5851 18.3339 0
    endloop
  endfacet
  facet normal 0.406737 0.913545 0
    outer loop
      vertex 10.5851 18.3339 0
      vertex 6.54193 20.134 1.5
      vertex 10.5851 18.3339 1.5
    endloop
  endfacet
  facet normal 0.207912 0.978148 0
    outer loop
      vertex 2.21288 21.0542 0
      vertex 2.21288 21.0542 1.5
      vertex 6.54193 20.134 0
    endloop
  endfacet
  facet normal 0.207912 0.978148 0
    outer loop
      vertex 6.54193 20.134 0
      vertex 2.21288 21.0542 1.5
      vertex 6.54193 20.134 1.5
    endloop
  endfacet
  facet normal 0 1 0
    outer loop
      vertex -2.21288 21.0542 0
      vertex -2.21288 21.0542 1.5
      vertex 2.21288 21.0542 0
    endloop
  endfacet
  facet normal 0 1 0
    outer loop
      vertex 2.21288 21.0542 0
      vertex -2.21288 21.0542 1.5
      vertex 2.21288 21.0542 1.5
    endloop
  endfacet
  facet normal -0.207912 0.978148 0
    outer loop
      vertex -6.54193 20.134 0
      vertex -6.54193 20.134 1.5
      vertex -2.21288 21.0542 0
    endloop
  endfacet
  facet normal -0.207912 0.978148 0
    outer loop
      vertex -2.21288 21.0542 0
      vertex -6.54193 20.134 1.5
      vertex -2.21288 21.0542 1.5
    endloop
  endfacet
  facet normal -0.406737 0.913545 0
    outer loop
      vertex -10.5851 18.3339 0
      vertex -10.5851 18.3339 1.5
      vertex -6.54193 20.134 0
    endloop
  endfacet
  facet normal -0.406737 0.913545 0
    outer loop
      vertex -6.54193 20.134 0
      vertex -10.5851 18.3339 1.5
      vertex -6.54193 20.134 1.5
    endloop
  endfacet
  facet normal -0.587785 0.809017 0
    outer loop
      vertex -14.1656 15.7325 0
      vertex -14.1656 15.7325 1.5
      vertex -10.5851 18.3339 0
    endloop
  endfacet
  facet normal -0.587785 0.809017 0
    outer loop
      vertex -10.5851 18.3339 0
      vertex -14.1656 15.7325 1.5
      vertex -10.5851 18.3339 1.5
    endloop
  endfacet
  facet normal -0.743145 0.669131 0
    outer loop
      vertex -17.127 12.4435 0
      vertex -17.127 12.4435 1.5
      vertex -14.1656 15.7325 0
    endloop
  endfacet
  facet normal -0.743145 0.669131 0
    outer loop
      vertex -14.1656 15.7325 0
      vertex -17.127 12.4435 1.5
      vertex -14.1656 15.7325 1.5
    endloop
  endfacet
  facet normal -0.866025 0.5 0
    outer loop
      vertex -19.3399 8.61067 0
      vertex -19.3399 8.61067 1.5
      vertex -17.127 12.4435 0
    endloop
  endfacet
  facet normal -0.866025 0.5 0
    outer loop
      vertex -17.127 12.4435 0
      vertex -19.3399 8.61067 1.5
      vertex -17.127 12.4435 1.5
    endloop
  endfacet
  facet normal -0.951056 0.309017 0
    outer loop
      vertex -20.7075 4.40152 0
      vertex -20.7075 4.40152 1.5
      vertex -19.3399 8.61067 0
    endloop
  endfacet
  facet normal -0.951056 0.309017 0
    outer loop
      vertex -19.3399 8.61067 0
      vertex -20.7075 4.40152 1.5
      vertex -19.3399 8.61067 1.5
    endloop
  endfacet
  facet normal 1 0 0
    outer loop
      vertex -3.88377 0.957263 0
      vertex -3.88377 0.957263 2
      vertex -3.88377 -0.957263 2
    endloop
  endfacet
  facet normal 1 0 0
    outer loop
      vertex -3.88377 -0.957263 0
      vertex -3.88377 0.957263 0
      vertex -3.88377 -0.957263 2
    endloop
  endfacet
  facet normal 0.885456 -0.464723 0
    outer loop
      vertex -2.99404 2.65249 0
      vertex -2.99404 2.65249 2
      vertex -3.88377 0.957263 2
    endloop
  endfacet
  facet normal 0.885456 -0.464723 0
    outer loop
      vertex -3.88377 0.957263 0
      vertex -2.99404 2.65249 0
      vertex -3.88377 0.957263 2
    endloop
  endfacet
  facet normal 0.568065 -0.822984 0
    outer loop
      vertex -1.41842 3.74006 0
      vertex -1.41842 3.74006 2
      vertex -2.99404 2.65249 2
    endloop
  endfacet
  facet normal 0.568065 -0.822984 0
    outer loop
      vertex -2.99404 2.65249 0
      vertex -1.41842 3.74006 0
      vertex -2.99404 2.65249 2
    endloop
  endfacet
  facet normal 0.120536 -0.992709 0
    outer loop
      vertex 0.482147 3.97083 0
      vertex 0.482147 3.97083 2
      vertex -1.41842 3.74006 2
    endloop
  endfacet
  facet normal 0.120536 -0.992709 0
    outer loop
      vertex -1.41842 3.74006 0
      vertex 0.482147 3.97083 0
      vertex -1.41842 3.74006 2
    endloop
  endfacet
  facet normal -0.354605 -0.935016 -0
    outer loop
      vertex 2.27226 3.29194 0
      vertex 2.27226 3.29194 2
      vertex 0.482147 3.97083 2
    endloop
  endfacet
  facet normal -0.354605 -0.935016 -0
    outer loop
      vertex 0.482147 3.97083 0
      vertex 2.27226 3.29194 0
      vertex 0.482147 3.97083 2
    endloop
  endfacet
  facet normal -0.748511 -0.663123 0
    outer loop
      vertex 3.54182 1.85889 2
      vertex 2.27226 3.29194 2
      vertex 3.54182 1.85889 0
    endloop
  endfacet
  facet normal -0.748511 -0.663123 0
    outer loop
      vertex 3.54182 1.85889 0
      vertex 2.27226 3.29194 2
      vertex 2.27226 3.29194 0
    endloop
  endfacet
  facet normal -0.970942 -0.239316 0
    outer loop
      vertex 4 0 2
      vertex 3.54182 1.85889 2
      vertex 4 0 0
    endloop
  endfacet
  facet normal -0.970942 -0.239316 0
    outer loop
      vertex 4 0 0
      vertex 3.54182 1.85889 2
      vertex 3.54182 1.85889 0
    endloop
  endfacet
  facet normal -0.970942 0.239316 0
    outer loop
      vertex 4 0 2
      vertex 4 0 0
      vertex 3.54182 -1.85889 2
    endloop
  endfacet
  facet normal -0.970942 0.239316 0
    outer loop
      vertex 3.54182 -1.85889 2
      vertex 4 0 0
      vertex 3.54182 -1.85889 0
    endloop
  endfacet
  facet normal -0.748511 0.663123 0
    outer loop
      vertex 3.54182 -1.85889 2
      vertex 3.54182 -1.85889 0
      vertex 2.27226 -3.29194 2
    endloop
  endfacet
  facet normal -0.748511 0.663123 0
    outer loop
      vertex 2.27226 -3.29194 2
      vertex 3.54182 -1.85889 0
      vertex 2.27226 -3.29194 0
    endloop
  endfacet
  facet normal -0.354605 0.935016 0
    outer loop
      vertex 2.27226 -3.29194 2
      vertex 2.27226 -3.29194 0
      vertex 0.482147 -3.97083 2
    endloop
  endfacet
  facet normal -0.354605 0.935016 0
    outer loop
      vertex 0.482147 -3.97083 2
      vertex 2.27226 -3.29194 0
      vertex 0.482147 -3.97083 0
    endloop
  endfacet
  facet normal 0.120536 0.992709 -0
    outer loop
      vertex 0.482147 -3.97083 2
      vertex 0.482147 -3.97083 0
      vertex -1.41842 -3.74006 2
    endloop
  endfacet
  facet normal 0.120536 0.992709 -0
    outer loop
      vertex -1.41842 -3.74006 2
      vertex 0.482147 -3.97083 0
      vertex -1.41842 -3.74006 0
    endloop
  endfacet
  facet normal 0.568065 0.822984 -0
    outer loop
      vertex -1.41842 -3.74006 2
      vertex -1.41842 -3.74006 0
      vertex -2.99404 -2.65249 2
    endloop
  endfacet
  facet normal 0.568065 0.822984 -0
    outer loop
      vertex -2.99404 -2.65249 2
      vertex -1.41842 -3.74006 0
      vertex -2.99404 -2.65249 0
    endloop
  endfacet
  facet normal 0.885456 0.464723 0
    outer loop
      vertex -3.88377 -0.957263 2
      vertex -2.99404 -2.65249 2
      vertex -2.99404 -2.65249 0
    endloop
  endfacet
  facet normal 0.885456 0.464723 0
    outer loop
      vertex -3.88377 -0.957263 0
      vertex -3.88377 -0.957263 2
      vertex -2.99404 -2.65249 0
    endloop
  endfacet
  facet normal 0 0 1
    outer loop
      vertex -20.7075 4.40152 1.5
      vertex -21.1701 0 1.5
      vertex -20.7075 -4.40152 1.5
    endloop
  endfacet
  facet normal 0 0 1
    outer loop
      vertex -17.127 -12.4435 1.5
      vertex -20.7075 4.40152 1.5
      vertex -19.3399 -8.61067 1.5
    endloop
  endfacet
  facet normal 0 0 1
    outer loop
      vertex -19.3399 -8.61067 1.5
      vertex -20.7075 4.40152 1.5
      vertex -20.7075 -4.40152 1.5
    endloop
  endfacet
  facet normal 0 0 1
    outer loop
      vertex -14.1656 -15.7325 1.5
      vertex -20.7075 4.40152 1.5
      vertex -17.127 -12.4435 1.5
    endloop
  endfacet
  facet normal 0 0 1
    outer loop
      vertex -10.5851 -18.3339 1.5
      vertex -20.7075 4.40152 1.5
      vertex -14.1656 -15.7325 1.5
    endloop
  endfacet
  facet normal 0 0 1
    outer loop
      vertex -6.54193 -20.134 1.5
      vertex -20.7075 4.40152 1.5
      vertex -10.5851 -18.3339 1.5
    endloop
  endfacet
  facet normal 0 0 1
    outer loop
      vertex -2.21288 -21.0542 1.5
      vertex -20.7075 4.40152 1.5
      vertex -6.54193 -20.134 1.5
    endloop
  endfacet
  facet normal -0 0 1
    outer loop
      vertex 2.21288 -21.0542 1.5
      vertex -20.7075 4.40152 1.5
      vertex -2.21288 -21.0542 1.5
    endloop
  endfacet
  facet normal -0 0 1
    outer loop
      vertex 6.54193 -20.134 1.5
      vertex -20.7075 4.40152 1.5
      vertex 2.21288 -21.0542 1.5
    endloop
  endfacet
  facet normal -0 0 1
    outer loop
      vertex 10.5851 -18.3339 1.5
      vertex -20.7075 4.40152 1.5
      vertex 6.54193 -20.134 1.5
    endloop
  endfacet
  facet normal -0 0 1
    outer loop
      vertex 14.1656 -15.7325 1.5
      vertex -20.7075 4.40152 1.5
      vertex 10.5851 -18.3339 1.5
    endloop
  endfacet
  facet normal -0 -0 1
    outer loop
      vertex -2.75 -4.76314 1.5
      vertex -20.7075 4.40152 1.5
      vertex 14.1656 -15.7325 1.5
    endloop
  endfacet
  facet normal 0 -0 1
    outer loop
      vertex 2.75 -4.76314 1.5
      vertex 0.955065 -5.41644 1.5
      vertex 17.127 -12.4435 1.5
    endloop
  endfacet
  facet normal 0 0 1
    outer loop
      vertex -5.5 0 1.5
      vertex -5.16831 1.88111 1.5
      vertex -20.7075 4.40152 1.5
    endloop
  endfacet
  facet normal 0 0 1
    outer loop
      vertex -4.21324 3.53533 1.5
      vertex -2.75 4.76314 1.5
      vertex -20.7075 4.40152 1.5
    endloop
  endfacet
  facet normal 0 -0 1
    outer loop
      vertex 17.127 12.4435 1.5
      vertex -20.7075 4.40152 1.5
      vertex 19.3399 8.61067 1.5
    endloop
  endfacet
  facet normal 0 -0 1
    outer loop
      vertex 14.1656 15.7325 1.5
      vertex -20.7075 4.40152 1.5
      vertex 17.127 12.4435 1.5
    endloop
  endfacet
  facet normal 0 -0 1
    outer loop
      vertex 10.5851 18.3339 1.5
      vertex -20.7075 4.40152 1.5
      vertex 14.1656 15.7325 1.5
    endloop
  endfacet
  facet normal 0 -0 1
    outer loop
      vertex 6.54193 20.134 1.5
      vertex -20.7075 4.40152 1.5
      vertex 10.5851 18.3339 1.5
    endloop
  endfacet
  facet normal 0 -0 1
    outer loop
      vertex 2.21288 21.0542 1.5
      vertex -20.7075 4.40152 1.5
      vertex 6.54193 20.134 1.5
    endloop
  endfacet
  facet normal 0 -0 1
    outer loop
      vertex -2.21288 21.0542 1.5
      vertex -20.7075 4.40152 1.5
      vertex 2.21288 21.0542 1.5
    endloop
  endfacet
  facet normal 0 -0 1
    outer loop
      vertex -6.54193 20.134 1.5
      vertex -20.7075 4.40152 1.5
      vertex -2.21288 21.0542 1.5
    endloop
  endfacet
  facet normal 0 -0 1
    outer loop
      vertex -10.5851 18.3339 1.5
      vertex -20.7075 4.40152 1.5
      vertex -6.54193 20.134 1.5
    endloop
  endfacet
  facet normal 0 -0 1
    outer loop
      vertex -14.1656 15.7325 1.5
      vertex -20.7075 4.40152 1.5
      vertex -10.5851 18.3339 1.5
    endloop
  endfacet
  facet normal 0 -0 1
    outer loop
      vertex -17.127 12.4435 1.5
      vertex -20.7075 4.40152 1.5
      vertex -14.1656 15.7325 1.5
    endloop
  endfacet
  facet normal 0 -0 1
    outer loop
      vertex -19.3399 8.61067 1.5
      vertex -20.7075 4.40152 1.5
      vertex -17.127 12.4435 1.5
    endloop
  endfacet
  facet normal 0 0 1
    outer loop
      vertex -2.75 -4.76314 1.5
      vertex -4.21324 -3.53533 1.5
      vertex -20.7075 4.40152 1.5
    endloop
  endfacet
  facet normal 0 0 1
    outer loop
      vertex -5.16831 1.88111 1.5
      vertex -4.21324 3.53533 1.5
      vertex -20.7075 4.40152 1.5
    endloop
  endfacet
  facet normal 0 -0 1
    outer loop
      vertex 4.21324 -3.53533 1.5
      vertex 2.75 -4.76314 1.5
      vertex 19.3399 -8.61067 1.5
    endloop
  endfacet
  facet normal 0 0 1
    outer loop
      vertex 2.75 4.76314 1.5
      vertex 4.21324 3.53533 1.5
      vertex 20.7075 4.40152 1.5
    endloop
  endfacet
  facet normal 0 0 1
    outer loop
      vertex 5.16831 1.88111 1.5
      vertex 5.5 0 1.5
      vertex 21.1701 0 1.5
    endloop
  endfacet
  facet normal 0 0 1
    outer loop
      vertex 0.955065 5.41644 1.5
      vertex 2.75 4.76314 1.5
      vertex 19.3399 8.61067 1.5
    endloop
  endfacet
  facet normal 0 -0 1
    outer loop
      vertex 5.5 0 1.5
      vertex 5.16831 -1.88111 1.5
      vertex 20.7075 -4.40152 1.5
    endloop
  endfacet
  facet normal 0 0 1
    outer loop
      vertex -0.955065 5.41644 1.5
      vertex -20.7075 4.40152 1.5
      vertex -2.75 4.76314 1.5
    endloop
  endfacet
  facet normal 0 0 1
    outer loop
      vertex 19.3399 8.61067 1.5
      vertex -20.7075 4.40152 1.5
      vertex -0.955065 5.41644 1.5
    endloop
  endfacet
  facet normal 0 0 1
    outer loop
      vertex 19.3399 8.61067 1.5
      vertex -0.955065 5.41644 1.5
      vertex 0.955065 5.41644 1.5
    endloop
  endfacet
  facet normal 0 -0 1
    outer loop
      vertex 19.3399 8.61067 1.5
      vertex 2.75 4.76314 1.5
      vertex 20.7075 4.40152 1.5
    endloop
  endfacet
  facet normal 0 -0 1
    outer loop
      vertex 20.7075 4.40152 1.5
      vertex 4.21324 3.53533 1.5
      vertex 21.1701 0 1.5
    endloop
  endfacet
  facet normal 0 0 1
    outer loop
      vertex 4.21324 3.53533 1.5
      vertex 5.16831 1.88111 1.5
      vertex 21.1701 0 1.5
    endloop
  endfacet
  facet normal 0 0 1
    outer loop
      vertex 21.1701 0 1.5
      vertex 5.5 0 1.5
      vertex 20.7075 -4.40152 1.5
    endloop
  endfacet
  facet normal -0 0 1
    outer loop
      vertex 20.7075 -4.40152 1.5
      vertex 5.16831 -1.88111 1.5
      vertex 19.3399 -8.61067 1.5
    endloop
  endfacet
  facet normal 0 -0 1
    outer loop
      vertex 5.16831 -1.88111 1.5
      vertex 4.21324 -3.53533 1.5
      vertex 19.3399 -8.61067 1.5
    endloop
  endfacet
  facet normal -0 0 1
    outer loop
      vertex 19.3399 -8.61067 1.5
      vertex 2.75 -4.76314 1.5
      vertex 17.127 -12.4435 1.5
    endloop
  endfacet
  facet normal -0 0 1
    outer loop
      vertex 17.127 -12.4435 1.5
      vertex 0.955065 -5.41644 1.5
      vertex 14.1656 -15.7325 1.5
    endloop
  endfacet
  facet normal 0 -0 1
    outer loop
      vertex 0.955065 -5.41644 1.5
      vertex -0.955065 -5.41644 1.5
      vertex 14.1656 -15.7325 1.5
    endloop
  endfacet
  facet normal -0 -0 1
    outer loop
      vertex -0.955065 -5.41644 1.5
      vertex -2.75 -4.76314 1.5
      vertex 14.1656 -15.7325 1.5
    endloop
  endfacet
  facet normal 0 0 1
    outer loop
      vertex -5.16831 -1.88111 1.5
      vertex -5.5 0 1.5
      vertex -20.7075 4.40152 1.5
    endloop
  endfacet
  facet normal 0 0 1
    outer loop
      vertex -4.21324 -3.53533 1.5
      vertex -5.16831 -1.88111 1.5
      vertex -20.7075 4.40152 1.5
    endloop
  endfacet
  facet normal 0 0 1
    outer loop
      vertex -5.16831 1.88111 2
      vertex -5.5 0 2
      vertex -5.16831 -1.88111 2
    endloop
  endfacet
  facet normal 0 0 1
    outer loop
      vertex -2.75 -4.76314 2
      vertex -5.16831 1.88111 2
      vertex -4.21324 -3.53533 2
    endloop
  endfacet
  facet normal 0 0 1
    outer loop
      vertex -4.21324 -3.53533 2
      vertex -5.16831 1.88111 2
      vertex -5.16831 -1.88111 2
    endloop
  endfacet
  facet normal -0 -0 1
    outer loop
      vertex -3.88377 -0.957263 2
      vertex -5.16831 1.88111 2
      vertex -2.75 -4.76314 2
    endloop
  endfacet
  facet normal 0 0 1
    outer loop
      vertex 2.27226 3.29194 2
      vertex 5.16831 1.88111 2
      vertex 4.21324 3.53533 2
    endloop
  endfacet
  facet normal -0 0 1
    outer loop
      vertex -2.99404 2.65249 2
      vertex -1.41842 3.74006 2
      vertex -5.16831 1.88111 2
    endloop
  endfacet
  facet normal 0 0 1
    outer loop
      vertex 0.482147 3.97083 2
      vertex 4.21324 3.53533 2
      vertex 2.75 4.76314 2
    endloop
  endfacet
  facet normal 0 -0 1
    outer loop
      vertex -0.955065 5.41644 2
      vertex -5.16831 1.88111 2
      vertex 0.955065 5.41644 2
    endloop
  endfacet
  facet normal 0 -0 1
    outer loop
      vertex -2.75 4.76314 2
      vertex -5.16831 1.88111 2
      vertex -0.955065 5.41644 2
    endloop
  endfacet
  facet normal 0 -0 1
    outer loop
      vertex -4.21324 3.53533 2
      vertex -5.16831 1.88111 2
      vertex -2.75 4.76314 2
    endloop
  endfacet
  facet normal -0 -0 1
    outer loop
      vertex -2.99404 -2.65249 2
      vertex -3.88377 -0.957263 2
      vertex -2.75 -4.76314 2
    endloop
  endfacet
  facet normal -0 -0 1
    outer loop
      vertex 0.482147 -3.97083 2
      vertex -1.41842 -3.74006 2
      vertex 0.955065 -5.41644 2
    endloop
  endfacet
  facet normal 0 0 1
    outer loop
      vertex 2.27226 3.29194 2
      vertex 3.54182 1.85889 2
      vertex 5.16831 1.88111 2
    endloop
  endfacet
  facet normal 0 0 1
    outer loop
      vertex 0.482147 3.97083 2
      vertex 2.27226 3.29194 2
      vertex 4.21324 3.53533 2
    endloop
  endfacet
  facet normal 0 -0 1
    outer loop
      vertex 0.955065 5.41644 2
      vertex -1.41842 3.74006 2
      vertex 2.75 4.76314 2
    endloop
  endfacet
  facet normal 0 0 1
    outer loop
      vertex 0.955065 5.41644 2
      vertex -5.16831 1.88111 2
      vertex -1.41842 3.74006 2
    endloop
  endfacet
  facet normal 0 0 1
    outer loop
      vertex -1.41842 3.74006 2
      vertex 0.482147 3.97083 2
      vertex 2.75 4.76314 2
    endloop
  endfacet
  facet normal 0 -0 1
    outer loop
      vertex 3.54182 -1.85889 2
      vertex 2.27226 -3.29194 2
      vertex 4.21324 -3.53533 2
    endloop
  endfacet
  facet normal 0 -0 1
    outer loop
      vertex 5.16831 1.88111 2
      vertex 3.54182 1.85889 2
      vertex 5.5 0 2
    endloop
  endfacet
  facet normal 0 0 1
    outer loop
      vertex 5.5 0 2
      vertex 4 0 2
      vertex 5.16831 -1.88111 2
    endloop
  endfacet
  facet normal -0 0 1
    outer loop
      vertex 5.16831 -1.88111 2
      vertex 3.54182 -1.85889 2
      vertex 4.21324 -3.53533 2
    endloop
  endfacet
  facet normal -0 0 1
    outer loop
      vertex 4.21324 -3.53533 2
      vertex 2.27226 -3.29194 2
      vertex 2.75 -4.76314 2
    endloop
  endfacet
  facet normal -0 0 1
    outer loop
      vertex 2.75 -4.76314 2
      vertex 0.482147 -3.97083 2
      vertex 0.955065 -5.41644 2
    endloop
  endfacet
  facet normal 0 0 1
    outer loop
      vertex 3.54182 1.85889 2
      vertex 4 0 2
      vertex 5.5 0 2
    endloop
  endfacet
  facet normal -0 0 1
    outer loop
      vertex 0.955065 -5.41644 2
      vertex -1.41842 -3.74006 2
      vertex -0.955065 -5.41644 2
    endloop
  endfacet
  facet normal 0 -0 1
    outer loop
      vertex 4 0 2
      vertex 3.54182 -1.85889 2
      vertex 5.16831 -1.88111 2
    endloop
  endfacet
  facet normal 0 0 1
    outer loop
      vertex -0.955065 -5.41644 2
      vertex -2.99404 -2.65249 2
      vertex -2.75 -4.76314 2
    endloop
  endfacet
  facet normal 0 0 1
    outer loop
      vertex -3.88377 -0.957263 2
      vertex -3.88377 0.957263 2
      vertex -5.16831 1.88111 2
    endloop
  endfacet
  facet normal -0 -0 1
    outer loop
      vertex -1.41842 -3.74006 2
      vertex -2.99404 -2.65249 2
      vertex -0.955065 -5.41644 2
    endloop
  endfacet
  facet normal 0 -0 1
    outer loop
      vertex 2.27226 -3.29194 2
      vertex 0.482147 -3.97083 2
      vertex 2.75 -4.76314 2
    endloop
  endfacet
  facet normal 0 0 1
    outer loop
      vertex -3.88377 0.957263 2
      vertex -2.99404 2.65249 2
      vertex -5.16831 1.88111 2
    endloop
  endfacet
  facet normal -0.866025 -0.5 -0
    outer loop
      vertex -5.16831 -1.88111 1.5
      vertex -4.21324 -3.53533 1.5
      vertex -5.16831 -1.88111 2
    endloop
  endfacet
  facet normal -0.866025 -0.5 0
    outer loop
      vertex -5.16831 -1.88111 2
      vertex -4.21324 -3.53533 1.5
      vertex -4.21324 -3.53533 2
    endloop
  endfacet
  facet normal -0.984808 -0.173648 -0
    outer loop
      vertex -5.5 0 1.5
      vertex -5.16831 -1.88111 1.5
      vertex -5.5 0 2
    endloop
  endfacet
  facet normal -0.984808 -0.173648 0
    outer loop
      vertex -5.5 0 2
      vertex -5.16831 -1.88111 1.5
      vertex -5.16831 -1.88111 2
    endloop
  endfacet
  facet normal -0.642788 -0.766044 0
    outer loop
      vertex -4.21324 -3.53533 2
      vertex -4.21324 -3.53533 1.5
      vertex -2.75 -4.76314 1.5
    endloop
  endfacet
  facet normal -0.642788 -0.766044 0
    outer loop
      vertex -2.75 -4.76314 2
      vertex -4.21324 -3.53533 2
      vertex -2.75 -4.76314 1.5
    endloop
  endfacet
  facet normal -0.34202 -0.939693 0
    outer loop
      vertex -2.75 -4.76314 2
      vertex -2.75 -4.76314 1.5
      vertex -0.955065 -5.41644 1.5
    endloop
  endfacet
  facet normal -0.34202 -0.939693 0
    outer loop
      vertex -0.955065 -5.41644 2
      vertex -2.75 -4.76314 2
      vertex -0.955065 -5.41644 1.5
    endloop
  endfacet
  facet normal 0 -1 0
    outer loop
      vertex -0.955065 -5.41644 2
      vertex -0.955065 -5.41644 1.5
      vertex 0.955065 -5.41644 1.5
    endloop
  endfacet
  facet normal 0 -1 0
    outer loop
      vertex 0.955065 -5.41644 2
      vertex -0.955065 -5.41644 2
      vertex 0.955065 -5.41644 1.5
    endloop
  endfacet
  facet normal 0.34202 -0.939693 0
    outer loop
      vertex 0.955065 -5.41644 2
      vertex 0.955065 -5.41644 1.5
      vertex 2.75 -4.76314 1.5
    endloop
  endfacet
  facet normal 0.34202 -0.939693 0
    outer loop
      vertex 2.75 -4.76314 2
      vertex 0.955065 -5.41644 2
      vertex 2.75 -4.76314 1.5
    endloop
  endfacet
  facet normal 0.642788 -0.766044 0
    outer loop
      vertex 2.75 -4.76314 2
      vertex 2.75 -4.76314 1.5
      vertex 4.21324 -3.53533 1.5
    endloop
  endfacet
  facet normal 0.642788 -0.766044 0
    outer loop
      vertex 4.21324 -3.53533 2
      vertex 2.75 -4.76314 2
      vertex 4.21324 -3.53533 1.5
    endloop
  endfacet
  facet normal 0.866025 -0.5 0
    outer loop
      vertex 4.21324 -3.53533 2
      vertex 4.21324 -3.53533 1.5
      vertex 5.16831 -1.88111 1.5
    endloop
  endfacet
  facet normal 0.866025 -0.5 0
    outer loop
      vertex 5.16831 -1.88111 2
      vertex 4.21324 -3.53533 2
      vertex 5.16831 -1.88111 1.5
    endloop
  endfacet
  facet normal 0.984808 -0.173648 0
    outer loop
      vertex 5.16831 -1.88111 2
      vertex 5.16831 -1.88111 1.5
      vertex 5.5 0 1.5
    endloop
  endfacet
  facet normal 0.984808 -0.173648 0
    outer loop
      vertex 5.5 0 2
      vertex 5.16831 -1.88111 2
      vertex 5.5 0 1.5
    endloop
  endfacet
  facet normal 0.984808 0.173648 0
    outer loop
      vertex 5.5 0 1.5
      vertex 5.16831 1.88111 1.5
      vertex 5.16831 1.88111 2
    endloop
  endfacet
  facet normal 0.984808 0.173648 -0
    outer loop
      vertex 5.5 0 2
      vertex 5.5 0 1.5
      vertex 5.16831 1.88111 2
    endloop
  endfacet
  facet normal 0.866025 0.5 0
    outer loop
      vertex 5.16831 1.88111 1.5
      vertex 4.21324 3.53533 1.5
      vertex 4.21324 3.53533 2
    endloop
  endfacet
  facet normal 0.866025 0.5 -0
    outer loop
      vertex 5.16831 1.88111 2
      vertex 5.16831 1.88111 1.5
      vertex 4.21324 3.53533 2
    endloop
  endfacet
  facet normal 0.642788 0.766044 0
    outer loop
      vertex 2.75 4.76314 1.5
      vertex 2.75 4.76314 2
      vertex 4.21324 3.53533 1.5
    endloop
  endfacet
  facet normal 0.642788 0.766044 0
    outer loop
      vertex 4.21324 3.53533 1.5
      vertex 2.75 4.76314 2
      vertex 4.21324 3.53533 2
    endloop
  endfacet
  facet normal 0.34202 0.939693 0
    outer loop
      vertex 0.955065 5.41644 1.5
      vertex 0.955065 5.41644 2
      vertex 2.75 4.76314 1.5
    endloop
  endfacet
  facet normal 0.34202 0.939693 0
    outer loop
      vertex 2.75 4.76314 1.5
      vertex 0.955065 5.41644 2
      vertex 2.75 4.76314 2
    endloop
  endfacet
  facet normal 0 1 0
    outer loop
      vertex -0.955065 5.41644 1.5
      vertex -0.955065 5.41644 2
      vertex 0.955065 5.41644 1.5
    endloop
  endfacet
  facet normal 0 1 0
    outer loop
      vertex 0.955065 5.41644 1.5
      vertex -0.955065 5.41644 2
      vertex 0.955065 5.41644 2
    endloop
  endfacet
  facet normal -0.34202 0.939693 0
    outer loop
      vertex -2.75 4.76314 1.5
      vertex -2.75 4.76314 2
      vertex -0.955065 5.41644 1.5
    endloop
  endfacet
  facet normal -0.34202 0.939693 0
    outer loop
      vertex -0.955065 5.41644 1.5
      vertex -2.75 4.76314 2
      vertex -0.955065 5.41644 2
    endloop
  endfacet
  facet normal -0.642788 0.766044 0
    outer loop
      vertex -4.21324 3.53533 1.5
      vertex -4.21324 3.53533 2
      vertex -2.75 4.76314 1.5
    endloop
  endfacet
  facet normal -0.642788 0.766044 0
    outer loop
      vertex -2.75 4.76314 1.5
      vertex -4.21324 3.53533 2
      vertex -2.75 4.76314 2
    endloop
  endfacet
  facet normal -0.866025 0.5 0
    outer loop
      vertex -5.16831 1.88111 1.5
      vertex -5.16831 1.88111 2
      vertex -4.21324 3.53533 1.5
    endloop
  endfacet
  facet normal -0.866025 0.5 0
    outer loop
      vertex -4.21324 3.53533 1.5
      vertex -5.16831 1.88111 2
      vertex -4.21324 3.53533 2
    endloop
  endfacet
  facet normal -0.984808 0.173648 0
    outer loop
      vertex -5.5 0 1.5
      vertex -5.5 0 2
      vertex -5.16831 1.88111 1.5
    endloop
  endfacet
  facet normal -0.984808 0.173648 0
    outer loop
      vertex -5.16831 1.88111 1.5
      vertex -5.5 0 2
      vertex -5.16831 1.88111 2
    endloop
  endfacet
endsolid OpenSCAD_Model
