solid OpenSCAD_Model
  facet normal -0.368125 0.862074 -0.3483
    outer loop
      vertex 3.17089 10.8109 23
      vertex 2.8498 1.57504 0.479748
      vertex 2.8498 10.6738 23
    endloop
  endfacet
  facet normal -0.368125 0.862073 -0.3483
    outer loop
      vertex 2.8498 1.57504 0.479748
      vertex 3.17089 10.8109 23
      vertex 3.17089 1.69291 0.432124
    endloop
  endfacet
  facet normal -0.904827 0.394776 -0.1595
    outer loop
      vertex 4.55688 3.11017 0
      vertex 4.40984 12.0657 23
      vertex 4.55688 12.4028 23
    endloop
  endfacet
  facet normal -0.904827 0.394777 -0.1595
    outer loop
      vertex 4.40984 12.0657 23
      vertex 4.55688 3.11017 0
      vertex 4.40984 2.77315 0
    endloop
  endfacet
  facet normal 0 0.927184 -0.374607
    outer loop
      vertex 2.17267 1.45528 0.528135
      vertex 2 10.5345 23
      vertex 2.17267 10.5345 23
    endloop
  endfacet
  facet normal 0 0.927184 -0.374607
    outer loop
      vertex 2 10.5345 23
      vertex 2.17267 1.45528 0.528135
      vertex 2 1.45528 0.528135
    endloop
  endfacet
  facet normal -0.998027 0.0582187 -0.0235219
    outer loop
      vertex 4.75 4.20201 0
      vertex 4.72832 13.1229 23
      vertex 4.75 13.4946 23
    endloop
  endfacet
  facet normal -0.998027 0.0582187 -0.0235219
    outer loop
      vertex 4.72832 13.1229 23
      vertex 4.75 4.20201 0
      vertex 4.72832 3.83028 0
    endloop
  endfacet
  facet normal -0.770514 0.591009 -0.238783
    outer loop
      vertex 4.2248 2.50129 0.105518
      vertex 4.00466 11.4643 23
      vertex 4.2248 11.7513 23
    endloop
  endfacet
  facet normal -0.770514 0.591009 -0.238783
    outer loop
      vertex 4.00466 11.4643 23
      vertex 4.2248 2.50129 0.105518
      vertex 4.00466 2.25457 0.205199
    endloop
  endfacet
  facet normal -0.481754 0.812497 -0.32827
    outer loop
      vertex 3.47352 10.9904 23
      vertex 3.17089 1.69291 0.432124
      vertex 3.17089 10.8109 23
    endloop
  endfacet
  facet normal -0.481753 0.812498 -0.32827
    outer loop
      vertex 3.17089 1.69291 0.432124
      vertex 3.47352 10.9904 23
      vertex 3.47352 1.84717 0.3698
    endloop
  endfacet
  facet normal -0.248687 0.898055 -0.362838
    outer loop
      vertex 2.8498 10.6738 23
      vertex 2.5153 1.49541 0.511921
      vertex 2.5153 10.5812 23
    endloop
  endfacet
  facet normal -0.248689 0.898055 -0.362838
    outer loop
      vertex 2.5153 1.49541 0.511921
      vertex 2.8498 10.6738 23
      vertex 2.8498 1.57504 0.479748
    endloop
  endfacet
  facet normal -0.684546 -0.675889 0.273077
    outer loop
      vertex 3.75292 6.48733 0
      vertex 4.00466 15.525 23
      vertex 3.75292 15.7799 23
    endloop
  endfacet
  facet normal -0.684546 -0.675889 0.273077
    outer loop
      vertex 4.00466 15.525 23
      vertex 3.75292 6.48733 0
      vertex 4.00466 6.23236 0
    endloop
  endfacet
  facet normal -0.951057 0.286515 -0.11576
    outer loop
      vertex 4.6636 3.46441 0
      vertex 4.55688 12.4028 23
      vertex 4.6636 12.757 23
    endloop
  endfacet
  facet normal -0.951057 0.286515 -0.115759
    outer loop
      vertex 4.55688 12.4028 23
      vertex 4.6636 3.46441 0
      vertex 4.55688 3.11017 0
    endloop
  endfacet
  facet normal -0.982287 0.173738 -0.0701949
    outer loop
      vertex 4.72832 3.83028 0
      vertex 4.6636 12.757 23
      vertex 4.72832 13.1229 23
    endloop
  endfacet
  facet normal -0.982287 0.173739 -0.070195
    outer loop
      vertex 4.6636 12.757 23
      vertex 4.72832 3.83028 0
      vertex 4.6636 3.46441 0
    endloop
  endfacet
  facet normal -0.844328 0.496809 -0.200724
    outer loop
      vertex 4.40984 2.77315 0
      vertex 4.2248 11.7513 23
      vertex 4.40984 12.0657 23
    endloop
  endfacet
  facet normal -0.844329 0.496824 -0.200686
    outer loop
      vertex 4.2248 2.50129 0.105518
      vertex 4.40984 2.77315 0
      vertex 4.40355 2.76246 0
    endloop
  endfacet
  facet normal -0.844329 0.496809 -0.200724
    outer loop
      vertex 4.40984 2.77315 0
      vertex 4.2248 2.50129 0.105518
      vertex 4.2248 11.7513 23
    endloop
  endfacet
  facet normal -0.125335 0.919873 -0.371653
    outer loop
      vertex 2.5153 10.5812 23
      vertex 2.17267 1.45528 0.528135
      vertex 2.17267 10.5345 23
    endloop
  endfacet
  facet normal -0.125333 0.919873 -0.371653
    outer loop
      vertex 2.17267 1.45528 0.528135
      vertex 2.5153 10.5812 23
      vertex 2.5153 1.49541 0.511921
    endloop
  endfacet
  facet normal -0.587785 0.750107 -0.303063
    outer loop
      vertex 3.75292 11.2093 23
      vertex 3.47352 1.84717 0.3698
      vertex 3.47352 10.9904 23
    endloop
  endfacet
  facet normal -0.587786 0.750107 -0.303063
    outer loop
      vertex 3.47352 1.84717 0.3698
      vertex 3.75292 11.2093 23
      vertex 3.75292 2.03538 0.293758
    endloop
  endfacet
  facet normal -0.684546 0.675889 -0.273077
    outer loop
      vertex 4.00466 2.25457 0.205199
      vertex 3.75292 11.2093 23
      vertex 4.00466 11.4643 23
    endloop
  endfacet
  facet normal -0.684546 0.675889 -0.273077
    outer loop
      vertex 3.75292 11.2093 23
      vertex 4.00466 2.25457 0.205199
      vertex 3.75292 2.03538 0.293758
    endloop
  endfacet
  facet normal -0.998027 -0.0582187 0.0235219
    outer loop
      vertex 4.72832 4.57375 0
      vertex 4.75 13.4946 23
      vertex 4.72832 13.8664 23
    endloop
  endfacet
  facet normal -0.998027 -0.0582187 0.0235219
    outer loop
      vertex 4.75 13.4946 23
      vertex 4.72832 4.57375 0
      vertex 4.75 4.20201 0
    endloop
  endfacet
  facet normal -0.770513 -0.59101 0.238783
    outer loop
      vertex 4.00466 6.23236 0
      vertex 4.2248 15.238 23
      vertex 4.00466 15.525 23
    endloop
  endfacet
  facet normal -0.770513 -0.591009 0.238783
    outer loop
      vertex 4.2248 15.238 23
      vertex 4.00466 6.23236 0
      vertex 4.2248 5.94537 0
    endloop
  endfacet
  facet normal -0.368125 -0.862074 0.3483
    outer loop
      vertex 2.8498 7.02282 0
      vertex 3.17089 16.1783 23
      vertex 2.8498 16.3154 23
    endloop
  endfacet
  facet normal -0.368126 -0.862073 0.3483
    outer loop
      vertex 3.17089 16.1783 23
      vertex 2.8498 7.02282 0
      vertex 3.17089 6.8857 0
    endloop
  endfacet
  facet normal 0 -0.927184 0.374607
    outer loop
      vertex 2 7.16213 0
      vertex 2.17267 16.4547 23
      vertex 2 16.4547 23
    endloop
  endfacet
  facet normal 0 -0.927184 0.374607
    outer loop
      vertex 2.17267 16.4547 23
      vertex 2 7.16213 0
      vertex 2.17267 7.16213 0
    endloop
  endfacet
  facet normal 1.56563e-06 0.374605 0.927184
    outer loop
      vertex 4.40355 2.76246 0
      vertex 4.00466 2.25457 0.205199
      vertex 4.2248 2.50129 0.105518
    endloop
  endfacet
  facet normal 7.32181e-07 0.374606 0.927184
    outer loop
      vertex 4.40355 2.76246 0
      vertex 3.75292 2.03538 0.293758
      vertex 4.00466 2.25457 0.205199
    endloop
  endfacet
  facet normal 2.68613e-07 0.374606 0.927184
    outer loop
      vertex 4.40355 2.76246 0
      vertex 3.47352 1.84717 0.3698
      vertex 3.75292 2.03538 0.293758
    endloop
  endfacet
  facet normal -0 0.374607 0.927184
    outer loop
      vertex 0 2.76246 0
      vertex 3.47352 1.84717 0.3698
      vertex 4.40355 2.76246 0
    endloop
  endfacet
  facet normal -4.86126e-08 0.374606 0.927184
    outer loop
      vertex 3.47352 1.84717 0.3698
      vertex 0 2.76246 0
      vertex 3.17089 1.69291 0.432124
    endloop
  endfacet
  facet normal 7.12451e-08 0.374607 0.927184
    outer loop
      vertex 3.17089 1.69291 0.432124
      vertex 0 2.76246 0
      vertex 2.8498 1.57504 0.479748
    endloop
  endfacet
  facet normal 1.97531e-08 0.374607 0.927184
    outer loop
      vertex 2.8498 1.57504 0.479748
      vertex 0 2.76246 0
      vertex 2.5153 1.49541 0.511921
    endloop
  endfacet
  facet normal -5.38657e-09 0.374607 0.927184
    outer loop
      vertex 2.5153 1.49541 0.511921
      vertex 0 2.76246 0
      vertex 2.17267 1.45528 0.528135
    endloop
  endfacet
  facet normal 0 0.374607 0.927184
    outer loop
      vertex 2.17267 1.45528 0.528135
      vertex 0 2.76246 0
      vertex 2 1.45528 0.528135
    endloop
  endfacet
  facet normal -8.72308e-09 0.374607 0.927184
    outer loop
      vertex 0 1.45024 0.530168
      vertex 2 1.45528 0.528135
      vertex 0 2.76246 0
    endloop
  endfacet
  facet normal 0 0.374604 0.927185
    outer loop
      vertex 2 1.45528 0.528135
      vertex 0 1.45024 0.530168
      vertex 2 1.45024 0.530168
    endloop
  endfacet
  facet normal -0.951057 -0.286514 0.115759
    outer loop
      vertex 4.55688 5.29386 0
      vertex 4.6636 14.2322 23
      vertex 4.55688 14.5865 23
    endloop
  endfacet
  facet normal -0.951057 -0.286515 0.11576
    outer loop
      vertex 4.6636 14.2322 23
      vertex 4.55688 5.29386 0
      vertex 4.6636 4.93962 0
    endloop
  endfacet
  facet normal -0.982287 -0.173739 0.0701951
    outer loop
      vertex 4.6636 4.93962 0
      vertex 4.72832 13.8664 23
      vertex 4.6636 14.2322 23
    endloop
  endfacet
  facet normal -0.982287 -0.173738 0.0701949
    outer loop
      vertex 4.72832 13.8664 23
      vertex 4.6636 4.93962 0
      vertex 4.72832 4.57375 0
    endloop
  endfacet
  facet normal -0.248687 -0.898055 0.362838
    outer loop
      vertex 2.5153 7.11545 0
      vertex 2.8498 16.3154 23
      vertex 2.5153 16.4081 23
    endloop
  endfacet
  facet normal -0.248688 -0.898055 0.362838
    outer loop
      vertex 2.8498 16.3154 23
      vertex 2.5153 7.11545 0
      vertex 2.8498 7.02282 0
    endloop
  endfacet
  facet normal -0.481754 -0.812497 0.32827
    outer loop
      vertex 3.17089 6.8857 0
      vertex 3.47352 15.9989 23
      vertex 3.17089 16.1783 23
    endloop
  endfacet
  facet normal -0.481753 -0.812498 0.32827
    outer loop
      vertex 3.47352 15.9989 23
      vertex 3.17089 6.8857 0
      vertex 3.47352 6.70626 0
    endloop
  endfacet
  facet normal -0.844329 -0.496808 0.200723
    outer loop
      vertex 4.2248 5.94537 0
      vertex 4.40984 14.9235 23
      vertex 4.2248 15.238 23
    endloop
  endfacet
  facet normal -0.844328 -0.496809 0.200724
    outer loop
      vertex 4.40984 14.9235 23
      vertex 4.2248 5.94537 0
      vertex 4.40984 5.63088 0
    endloop
  endfacet
  facet normal -0.904826 -0.394777 0.1595
    outer loop
      vertex 4.40984 5.63088 0
      vertex 4.55688 14.5865 23
      vertex 4.40984 14.9235 23
    endloop
  endfacet
  facet normal -0.904827 -0.394776 0.1595
    outer loop
      vertex 4.55688 14.5865 23
      vertex 4.40984 5.63088 0
      vertex 4.55688 5.29386 0
    endloop
  endfacet
  facet normal -0.125332 -0.919873 0.371653
    outer loop
      vertex 2.17267 7.16213 0
      vertex 2.5153 16.4081 23
      vertex 2.17267 16.4547 23
    endloop
  endfacet
  facet normal -0.125332 -0.919873 0.371653
    outer loop
      vertex 2.5153 16.4081 23
      vertex 2.17267 7.16213 0
      vertex 2.5153 7.11545 0
    endloop
  endfacet
  facet normal -0.587787 -0.750106 0.303063
    outer loop
      vertex 3.47352 6.70626 0
      vertex 3.75292 15.7799 23
      vertex 3.47352 15.9989 23
    endloop
  endfacet
  facet normal -0.587786 -0.750107 0.303063
    outer loop
      vertex 3.75292 15.7799 23
      vertex 3.47352 6.70626 0
      vertex 3.75292 6.48733 0
    endloop
  endfacet
  facet normal -1 0 0
    outer loop
      vertex 2 7.16798 0
      vertex 2 16.4547 23
      vertex 2 16.4606 23
    endloop
  endfacet
  facet normal -1 0 0
    outer loop
      vertex 2 16.4547 23
      vertex 2 7.16798 0
      vertex 2 7.16213 0
    endloop
  endfacet
  facet normal -1 0 0
    outer loop
      vertex 2 1.45528 0.528135
      vertex 2 10.5286 23
      vertex 2 10.5345 23
    endloop
  endfacet
  facet normal -1 0 0
    outer loop
      vertex 2 10.5286 23
      vertex 2 1.45528 0.528135
      vertex 2 1.45024 0.530168
    endloop
  endfacet
  facet normal 0 -0.927184 0.374607
    outer loop
      vertex 0 7.16798 0
      vertex 2 16.4606 23
      vertex 0 16.4606 23
    endloop
  endfacet
  facet normal 0 -0.927184 0.374607
    outer loop
      vertex 2 16.4606 23
      vertex 0 7.16798 0
      vertex 2 7.16798 0
    endloop
  endfacet
  facet normal 0 0.927184 -0.374607
    outer loop
      vertex 2 1.45024 0.530168
      vertex 0 10.5286 23
      vertex 2 10.5286 23
    endloop
  endfacet
  facet normal 0 0.927184 -0.374607
    outer loop
      vertex 0 10.5286 23
      vertex 2 1.45024 0.530168
      vertex 0 1.45024 0.530168
    endloop
  endfacet
  facet normal -1 0 0
    outer loop
      vertex 0 2.76246 0
      vertex 0 0 0
      vertex 0 1.45024 0.530168
    endloop
  endfacet
  facet normal -1 0 0
    outer loop
      vertex 0 0 23
      vertex 0 1.45024 0.530168
      vertex 0 0 0
    endloop
  endfacet
  facet normal -1 0 0
    outer loop
      vertex 0 1.45024 0.530168
      vertex 0 0 23
      vertex 0 10.5286 23
    endloop
  endfacet
  facet normal -1 0 0
    outer loop
      vertex 0 19.5 0
      vertex 0 16.4606 23
      vertex 0 19.5 23
    endloop
  endfacet
  facet normal -1 0 -0
    outer loop
      vertex 0 16.4606 23
      vertex 0 19.5 0
      vertex 0 7.16798 0
    endloop
  endfacet
  facet normal 0 0 1
    outer loop
      vertex 4.72832 13.1229 23
      vertex 21.5 19.5 23
      vertex 4.75 13.4946 23
    endloop
  endfacet
  facet normal 0 0 1
    outer loop
      vertex 21.5 19.5 23
      vertex 4.72832 13.8664 23
      vertex 4.75 13.4946 23
    endloop
  endfacet
  facet normal 0 0 1
    outer loop
      vertex 21.5 19.5 23
      vertex 4.6636 14.2322 23
      vertex 4.72832 13.8664 23
    endloop
  endfacet
  facet normal 0 0 1
    outer loop
      vertex 21.5 19.5 23
      vertex 4.55688 14.5865 23
      vertex 4.6636 14.2322 23
    endloop
  endfacet
  facet normal 0 0 1
    outer loop
      vertex 21.5 19.5 23
      vertex 4.40984 14.9235 23
      vertex 4.55688 14.5865 23
    endloop
  endfacet
  facet normal 0 0 1
    outer loop
      vertex 21.5 19.5 23
      vertex 4.2248 15.238 23
      vertex 4.40984 14.9235 23
    endloop
  endfacet
  facet normal 0 0 1
    outer loop
      vertex 21.5 19.5 23
      vertex 4.00466 15.525 23
      vertex 4.2248 15.238 23
    endloop
  endfacet
  facet normal 0 0 1
    outer loop
      vertex 21.5 19.5 23
      vertex 3.75292 15.7799 23
      vertex 4.00466 15.525 23
    endloop
  endfacet
  facet normal 0 0 1
    outer loop
      vertex 21.5 19.5 23
      vertex 3.47352 15.9989 23
      vertex 3.75292 15.7799 23
    endloop
  endfacet
  facet normal -0 0 1
    outer loop
      vertex 0 19.5 23
      vertex 3.47352 15.9989 23
      vertex 21.5 19.5 23
    endloop
  endfacet
  facet normal 0 0 1
    outer loop
      vertex 3.47352 15.9989 23
      vertex 0 19.5 23
      vertex 3.17089 16.1783 23
    endloop
  endfacet
  facet normal 0 0 1
    outer loop
      vertex 3.17089 16.1783 23
      vertex 0 19.5 23
      vertex 2.8498 16.3154 23
    endloop
  endfacet
  facet normal 0 0 1
    outer loop
      vertex 2.8498 16.3154 23
      vertex 0 19.5 23
      vertex 2.5153 16.4081 23
    endloop
  endfacet
  facet normal 0 0 1
    outer loop
      vertex 2.5153 16.4081 23
      vertex 0 19.5 23
      vertex 2.17267 16.4547 23
    endloop
  endfacet
  facet normal 0 0 1
    outer loop
      vertex 2.17267 16.4547 23
      vertex 0 19.5 23
      vertex 2 16.4606 23
    endloop
  endfacet
  facet normal 0 0 1
    outer loop
      vertex 2 16.4606 23
      vertex 0 19.5 23
      vertex 0 16.4606 23
    endloop
  endfacet
  facet normal 0 0 1
    outer loop
      vertex 4.6636 12.757 23
      vertex 21.5 19.5 23
      vertex 4.72832 13.1229 23
    endloop
  endfacet
  facet normal 0 0 1
    outer loop
      vertex 21.5 19.5 23
      vertex 4.6636 12.757 23
      vertex 21.5 0 23
    endloop
  endfacet
  facet normal -0 0 1
    outer loop
      vertex 4.55688 12.4028 23
      vertex 21.5 0 23
      vertex 4.6636 12.757 23
    endloop
  endfacet
  facet normal -0 0 1
    outer loop
      vertex 4.40984 12.0657 23
      vertex 21.5 0 23
      vertex 4.55688 12.4028 23
    endloop
  endfacet
  facet normal -0 0 1
    outer loop
      vertex 4.2248 11.7513 23
      vertex 21.5 0 23
      vertex 4.40984 12.0657 23
    endloop
  endfacet
  facet normal -0 0 1
    outer loop
      vertex 4.00466 11.4643 23
      vertex 21.5 0 23
      vertex 4.2248 11.7513 23
    endloop
  endfacet
  facet normal -0 0 1
    outer loop
      vertex 3.75292 11.2093 23
      vertex 21.5 0 23
      vertex 4.00466 11.4643 23
    endloop
  endfacet
  facet normal 0 0 1
    outer loop
      vertex 0 0 23
      vertex 3.75292 11.2093 23
      vertex 3.47352 10.9904 23
    endloop
  endfacet
  facet normal 0 0 1
    outer loop
      vertex 0 0 23
      vertex 3.47352 10.9904 23
      vertex 3.17089 10.8109 23
    endloop
  endfacet
  facet normal 0 0 1
    outer loop
      vertex 0 0 23
      vertex 3.17089 10.8109 23
      vertex 2.8498 10.6738 23
    endloop
  endfacet
  facet normal 0 0 1
    outer loop
      vertex 0 0 23
      vertex 2.8498 10.6738 23
      vertex 2.5153 10.5812 23
    endloop
  endfacet
  facet normal 0 0 1
    outer loop
      vertex 0 0 23
      vertex 2.5153 10.5812 23
      vertex 2.17267 10.5345 23
    endloop
  endfacet
  facet normal 0 0 1
    outer loop
      vertex 2 10.5286 23
      vertex 2.17267 10.5345 23
      vertex 2 10.5345 23
    endloop
  endfacet
  facet normal 0 0 1
    outer loop
      vertex 0 0 23
      vertex 2.17267 10.5345 23
      vertex 2 10.5286 23
    endloop
  endfacet
  facet normal 0 0 1
    outer loop
      vertex 0 0 23
      vertex 2 10.5286 23
      vertex 0 10.5286 23
    endloop
  endfacet
  facet normal 0 0 1
    outer loop
      vertex 3.75292 11.2093 23
      vertex 0 0 23
      vertex 21.5 0 23
    endloop
  endfacet
  facet normal 0 0 1
    outer loop
      vertex 2.17267 16.4547 23
      vertex 2 16.4606 23
      vertex 2 16.4547 23
    endloop
  endfacet
  facet normal 1 -0 0
    outer loop
      vertex 21.5 0 23
      vertex 21.5 19.5 0
      vertex 21.5 19.5 23
    endloop
  endfacet
  facet normal 1 0 0
    outer loop
      vertex 21.5 19.5 0
      vertex 21.5 0 23
      vertex 21.5 0 0
    endloop
  endfacet
  facet normal 0 1 -0
    outer loop
      vertex 21.5 19.5 0
      vertex 0 19.5 23
      vertex 21.5 19.5 23
    endloop
  endfacet
  facet normal 0 1 0
    outer loop
      vertex 0 19.5 23
      vertex 21.5 19.5 0
      vertex 0 19.5 0
    endloop
  endfacet
  facet normal 0 0 -1
    outer loop
      vertex 4.72832 4.57375 0
      vertex 21.5 0 0
      vertex 4.75 4.20201 0
    endloop
  endfacet
  facet normal 0 0 -1
    outer loop
      vertex 21.5 0 0
      vertex 4.72832 3.83028 0
      vertex 4.75 4.20201 0
    endloop
  endfacet
  facet normal 0 0 -1
    outer loop
      vertex 21.5 0 0
      vertex 4.6636 3.46441 0
      vertex 4.72832 3.83028 0
    endloop
  endfacet
  facet normal 0 0 -1
    outer loop
      vertex 21.5 0 0
      vertex 4.55688 3.11017 0
      vertex 4.6636 3.46441 0
    endloop
  endfacet
  facet normal 0 0 -1
    outer loop
      vertex 21.5 0 0
      vertex 4.40984 2.77315 0
      vertex 4.55688 3.11017 0
    endloop
  endfacet
  facet normal 0 0 -1
    outer loop
      vertex 21.5 0 0
      vertex 4.40355 2.76246 0
      vertex 4.40984 2.77315 0
    endloop
  endfacet
  facet normal 0 0 -1
    outer loop
      vertex 0 0 0
      vertex 4.40355 2.76246 0
      vertex 21.5 0 0
    endloop
  endfacet
  facet normal -0 0 -1
    outer loop
      vertex 4.40355 2.76246 0
      vertex 0 0 0
      vertex 0 2.76246 0
    endloop
  endfacet
  facet normal 0 0 -1
    outer loop
      vertex 4.6636 4.93962 0
      vertex 21.5 0 0
      vertex 4.72832 4.57375 0
    endloop
  endfacet
  facet normal 0 0 -1
    outer loop
      vertex 4.55688 5.29386 0
      vertex 21.5 0 0
      vertex 4.6636 4.93962 0
    endloop
  endfacet
  facet normal 0 0 -1
    outer loop
      vertex 21.5 0 0
      vertex 4.55688 5.29386 0
      vertex 21.5 19.5 0
    endloop
  endfacet
  facet normal 0 0 -1
    outer loop
      vertex 4.40984 5.63088 0
      vertex 21.5 19.5 0
      vertex 4.55688 5.29386 0
    endloop
  endfacet
  facet normal 0 0 -1
    outer loop
      vertex 4.2248 5.94537 0
      vertex 21.5 19.5 0
      vertex 4.40984 5.63088 0
    endloop
  endfacet
  facet normal 0 0 -1
    outer loop
      vertex 4.00466 6.23236 0
      vertex 21.5 19.5 0
      vertex 4.2248 5.94537 0
    endloop
  endfacet
  facet normal 0 0 -1
    outer loop
      vertex 3.75292 6.48733 0
      vertex 21.5 19.5 0
      vertex 4.00466 6.23236 0
    endloop
  endfacet
  facet normal 0 0 -1
    outer loop
      vertex 3.47352 6.70626 0
      vertex 21.5 19.5 0
      vertex 3.75292 6.48733 0
    endloop
  endfacet
  facet normal 0 0 -1
    outer loop
      vertex 0 19.5 0
      vertex 3.47352 6.70626 0
      vertex 3.17089 6.8857 0
    endloop
  endfacet
  facet normal 0 0 -1
    outer loop
      vertex 0 19.5 0
      vertex 3.17089 6.8857 0
      vertex 2.8498 7.02282 0
    endloop
  endfacet
  facet normal 0 0 -1
    outer loop
      vertex 0 19.5 0
      vertex 2.8498 7.02282 0
      vertex 2.5153 7.11545 0
    endloop
  endfacet
  facet normal 0 0 -1
    outer loop
      vertex 0 19.5 0
      vertex 2.5153 7.11545 0
      vertex 2.17267 7.16213 0
    endloop
  endfacet
  facet normal 0 0 -1
    outer loop
      vertex 2 7.16798 0
      vertex 2.17267 7.16213 0
      vertex 2 7.16213 0
    endloop
  endfacet
  facet normal 0 0 -1
    outer loop
      vertex 0 19.5 0
      vertex 2.17267 7.16213 0
      vertex 2 7.16798 0
    endloop
  endfacet
  facet normal 0 0 -1
    outer loop
      vertex 0 19.5 0
      vertex 2 7.16798 0
      vertex 0 7.16798 0
    endloop
  endfacet
  facet normal 0 0 -1
    outer loop
      vertex 3.47352 6.70626 0
      vertex 0 19.5 0
      vertex 21.5 19.5 0
    endloop
  endfacet
  facet normal 0 -1 0
    outer loop
      vertex 0 0 0
      vertex 21.5 0 23
      vertex 0 0 23
    endloop
  endfacet
  facet normal 0 -1 -0
    outer loop
      vertex 21.5 0 23
      vertex 0 0 0
      vertex 21.5 0 0
    endloop
  endfacet
endsolid OpenSCAD_Model
