solid OpenSCAD_Model
  facet normal 1 -0 1.22465e-16
    outer loop
      vertex 0 0 0
      vertex 2.14313e-16 29 -1.75
      vertex 0 29 0
    endloop
  endfacet
  facet normal 1 0 1.22465e-16
    outer loop
      vertex 2.14313e-16 29 -1.75
      vertex 0 0 0
      vertex 2.14313e-16 0 -1.75
    endloop
  endfacet
  facet normal 0 0 -1
    outer loop
      vertex 2.14313e-16 0 -1.75
      vertex -3.11 14.5 -1.75
      vertex 2.14313e-16 29 -1.75
    endloop
  endfacet
  facet normal 0 0 -1
    outer loop
      vertex 2.14313e-16 0 -1.75
      vertex -3.12096 14.3258 -1.75
      vertex -3.11 14.5 -1.75
    endloop
  endfacet
  facet normal 0 0 -1
    outer loop
      vertex 2.14313e-16 0 -1.75
      vertex -3.15367 14.1543 -1.75
      vertex -3.12096 14.3258 -1.75
    endloop
  endfacet
  facet normal 0 0 -1
    outer loop
      vertex 2.14313e-16 0 -1.75
      vertex -3.20761 13.9883 -1.75
      vertex -3.15367 14.1543 -1.75
    endloop
  endfacet
  facet normal 0 0 -1
    outer loop
      vertex 2.14313e-16 0 -1.75
      vertex -3.28193 13.8304 -1.75
      vertex -3.20761 13.9883 -1.75
    endloop
  endfacet
  facet normal 0 0 -1
    outer loop
      vertex 2.14313e-16 0 -1.75
      vertex -3.37547 13.683 -1.75
      vertex -3.28193 13.8304 -1.75
    endloop
  endfacet
  facet normal 0 0 -1
    outer loop
      vertex 2.14313e-16 0 -1.75
      vertex -3.48673 13.5485 -1.75
      vertex -3.37547 13.683 -1.75
    endloop
  endfacet
  facet normal 0 0 -1
    outer loop
      vertex 2.14313e-16 0 -1.75
      vertex -3.61398 13.429 -1.75
      vertex -3.48673 13.5485 -1.75
    endloop
  endfacet
  facet normal 0 0 -1
    outer loop
      vertex 2.14313e-16 0 -1.75
      vertex -3.7552 13.3264 -1.75
      vertex -3.61398 13.429 -1.75
    endloop
  endfacet
  facet normal 0 0 -1
    outer loop
      vertex 2.14313e-16 0 -1.75
      vertex -3.90817 13.2423 -1.75
      vertex -3.7552 13.3264 -1.75
    endloop
  endfacet
  facet normal 0 0 -1
    outer loop
      vertex 2.14313e-16 0 -1.75
      vertex -4.07047 13.178 -1.75
      vertex -3.90817 13.2423 -1.75
    endloop
  endfacet
  facet normal 0 0 -1
    outer loop
      vertex 2.14313e-16 0 -1.75
      vertex -4.23954 13.1346 -1.75
      vertex -4.07047 13.178 -1.75
    endloop
  endfacet
  facet normal 0 0 -1
    outer loop
      vertex 2.14313e-16 0 -1.75
      vertex -4.41272 13.1127 -1.75
      vertex -4.23954 13.1346 -1.75
    endloop
  endfacet
  facet normal 0 0 -1
    outer loop
      vertex 2.14313e-16 0 -1.75
      vertex -4.58728 13.1127 -1.75
      vertex -4.41272 13.1127 -1.75
    endloop
  endfacet
  facet normal 0 0 -1
    outer loop
      vertex -9 0 -1.75
      vertex -4.58728 13.1127 -1.75
      vertex 2.14313e-16 0 -1.75
    endloop
  endfacet
  facet normal -0 0 -1
    outer loop
      vertex -4.58728 13.1127 -1.75
      vertex -9 0 -1.75
      vertex -4.76046 13.1346 -1.75
    endloop
  endfacet
  facet normal -0 0 -1
    outer loop
      vertex -4.76046 13.1346 -1.75
      vertex -9 0 -1.75
      vertex -4.92953 13.178 -1.75
    endloop
  endfacet
  facet normal -0 0 -1
    outer loop
      vertex -4.92953 13.178 -1.75
      vertex -9 0 -1.75
      vertex -5.09183 13.2423 -1.75
    endloop
  endfacet
  facet normal -0 0 -1
    outer loop
      vertex -5.09183 13.2423 -1.75
      vertex -9 0 -1.75
      vertex -5.2448 13.3264 -1.75
    endloop
  endfacet
  facet normal -0 0 -1
    outer loop
      vertex -5.2448 13.3264 -1.75
      vertex -9 0 -1.75
      vertex -5.38602 13.429 -1.75
    endloop
  endfacet
  facet normal -0 0 -1
    outer loop
      vertex -5.38602 13.429 -1.75
      vertex -9 0 -1.75
      vertex -5.51327 13.5485 -1.75
    endloop
  endfacet
  facet normal -0 0 -1
    outer loop
      vertex -5.51327 13.5485 -1.75
      vertex -9 0 -1.75
      vertex -5.62453 13.683 -1.75
    endloop
  endfacet
  facet normal -0 0 -1
    outer loop
      vertex -5.62453 13.683 -1.75
      vertex -9 0 -1.75
      vertex -5.71807 13.8304 -1.75
    endloop
  endfacet
  facet normal -0 0 -1
    outer loop
      vertex -5.87904 14.3258 -1.75
      vertex -9 0 -1.75
      vertex -5.89 14.5 -1.75
    endloop
  endfacet
  facet normal -0 0 -1
    outer loop
      vertex -5.84633 14.1543 -1.75
      vertex -9 0 -1.75
      vertex -5.87904 14.3258 -1.75
    endloop
  endfacet
  facet normal -0 0 -1
    outer loop
      vertex -5.79239 13.9883 -1.75
      vertex -9 0 -1.75
      vertex -5.84633 14.1543 -1.75
    endloop
  endfacet
  facet normal -0 0 -1
    outer loop
      vertex -5.71807 13.8304 -1.75
      vertex -9 0 -1.75
      vertex -5.79239 13.9883 -1.75
    endloop
  endfacet
  facet normal 0 0 -1
    outer loop
      vertex -3.12096 14.6742 -1.75
      vertex 2.14313e-16 29 -1.75
      vertex -3.11 14.5 -1.75
    endloop
  endfacet
  facet normal 0 0 -1
    outer loop
      vertex -3.15367 14.8457 -1.75
      vertex 2.14313e-16 29 -1.75
      vertex -3.12096 14.6742 -1.75
    endloop
  endfacet
  facet normal 0 0 -1
    outer loop
      vertex -3.20761 15.0117 -1.75
      vertex 2.14313e-16 29 -1.75
      vertex -3.15367 14.8457 -1.75
    endloop
  endfacet
  facet normal 0 0 -1
    outer loop
      vertex -3.28193 15.1696 -1.75
      vertex 2.14313e-16 29 -1.75
      vertex -3.20761 15.0117 -1.75
    endloop
  endfacet
  facet normal 0 0 -1
    outer loop
      vertex -3.37547 15.317 -1.75
      vertex 2.14313e-16 29 -1.75
      vertex -3.28193 15.1696 -1.75
    endloop
  endfacet
  facet normal 0 0 -1
    outer loop
      vertex -3.48673 15.4515 -1.75
      vertex 2.14313e-16 29 -1.75
      vertex -3.37547 15.317 -1.75
    endloop
  endfacet
  facet normal 0 0 -1
    outer loop
      vertex -3.61398 15.571 -1.75
      vertex 2.14313e-16 29 -1.75
      vertex -3.48673 15.4515 -1.75
    endloop
  endfacet
  facet normal 0 0 -1
    outer loop
      vertex -3.7552 15.6736 -1.75
      vertex 2.14313e-16 29 -1.75
      vertex -3.61398 15.571 -1.75
    endloop
  endfacet
  facet normal 0 0 -1
    outer loop
      vertex -3.90817 15.7577 -1.75
      vertex 2.14313e-16 29 -1.75
      vertex -3.7552 15.6736 -1.75
    endloop
  endfacet
  facet normal 0 0 -1
    outer loop
      vertex -4.07047 15.822 -1.75
      vertex 2.14313e-16 29 -1.75
      vertex -3.90817 15.7577 -1.75
    endloop
  endfacet
  facet normal 0 0 -1
    outer loop
      vertex -4.23954 15.8654 -1.75
      vertex 2.14313e-16 29 -1.75
      vertex -4.07047 15.822 -1.75
    endloop
  endfacet
  facet normal 0 0 -1
    outer loop
      vertex -4.41272 15.8873 -1.75
      vertex 2.14313e-16 29 -1.75
      vertex -4.23954 15.8654 -1.75
    endloop
  endfacet
  facet normal 0 0 -1
    outer loop
      vertex -4.58728 15.8873 -1.75
      vertex 2.14313e-16 29 -1.75
      vertex -4.41272 15.8873 -1.75
    endloop
  endfacet
  facet normal 0 0 -1
    outer loop
      vertex -9 29 -1.75
      vertex -4.58728 15.8873 -1.75
      vertex -4.76046 15.8654 -1.75
    endloop
  endfacet
  facet normal 0 0 -1
    outer loop
      vertex -9 29 -1.75
      vertex -4.76046 15.8654 -1.75
      vertex -4.92953 15.822 -1.75
    endloop
  endfacet
  facet normal 0 0 -1
    outer loop
      vertex -9 29 -1.75
      vertex -4.92953 15.822 -1.75
      vertex -5.09183 15.7577 -1.75
    endloop
  endfacet
  facet normal 0 0 -1
    outer loop
      vertex -9 29 -1.75
      vertex -5.09183 15.7577 -1.75
      vertex -5.2448 15.6736 -1.75
    endloop
  endfacet
  facet normal 0 0 -1
    outer loop
      vertex -9 29 -1.75
      vertex -5.2448 15.6736 -1.75
      vertex -5.38602 15.571 -1.75
    endloop
  endfacet
  facet normal 0 0 -1
    outer loop
      vertex -9 29 -1.75
      vertex -5.38602 15.571 -1.75
      vertex -5.51327 15.4515 -1.75
    endloop
  endfacet
  facet normal 0 0 -1
    outer loop
      vertex -9 29 -1.75
      vertex -5.51327 15.4515 -1.75
      vertex -5.62453 15.317 -1.75
    endloop
  endfacet
  facet normal 0 0 -1
    outer loop
      vertex -9 29 -1.75
      vertex -5.62453 15.317 -1.75
      vertex -5.71807 15.1696 -1.75
    endloop
  endfacet
  facet normal 0 0 -1
    outer loop
      vertex -9 29 -1.75
      vertex -5.71807 15.1696 -1.75
      vertex -5.79239 15.0117 -1.75
    endloop
  endfacet
  facet normal 0 0 -1
    outer loop
      vertex -9 29 -1.75
      vertex -5.89 14.5 -1.75
      vertex -9 0 -1.75
    endloop
  endfacet
  facet normal 0 0 -1
    outer loop
      vertex -5.89 14.5 -1.75
      vertex -9 29 -1.75
      vertex -5.87904 14.6742 -1.75
    endloop
  endfacet
  facet normal 0 0 -1
    outer loop
      vertex -4.58728 15.8873 -1.75
      vertex -9 29 -1.75
      vertex 2.14313e-16 29 -1.75
    endloop
  endfacet
  facet normal 0 0 -1
    outer loop
      vertex -5.84633 14.8457 -1.75
      vertex -9 29 -1.75
      vertex -5.79239 15.0117 -1.75
    endloop
  endfacet
  facet normal 0 0 -1
    outer loop
      vertex -5.87904 14.6742 -1.75
      vertex -9 29 -1.75
      vertex -5.84633 14.8457 -1.75
    endloop
  endfacet
  facet normal -1 0 0
    outer loop
      vertex -9 0 -1.75
      vertex -9 29 -1.10218e-15
      vertex -9 29 -1.75
    endloop
  endfacet
  facet normal -1 -0 0
    outer loop
      vertex -9 29 -1.10218e-15
      vertex -9 0 -1.75
      vertex -9 0 -1.10218e-15
    endloop
  endfacet
  facet normal -1.22465e-16 0 1
    outer loop
      vertex -9 29 -1.10218e-15
      vertex -5.5 20.8 -6.73556e-16
      vertex -5.5 29 -6.73556e-16
    endloop
  endfacet
  facet normal -1.22465e-16 -8.06812e-25 1
    outer loop
      vertex -5.84633 14.8457 -7.15969e-16
      vertex -5.5 20.8 -6.73556e-16
      vertex -9 29 -1.10218e-15
    endloop
  endfacet
  facet normal -1.22465e-16 3.13784e-24 1
    outer loop
      vertex -5.5 20.8 -6.73556e-16
      vertex -5.62453 15.317 -6.88807e-16
      vertex -5.51327 15.4515 -6.7518e-16
    endloop
  endfacet
  facet normal -1.22464e-16 -9.48476e-24 1
    outer loop
      vertex -5.5 20.8 -6.73556e-16
      vertex -5.71807 15.1696 -7.00261e-16
      vertex -5.62453 15.317 -6.88807e-16
    endloop
  endfacet
  facet normal -1.22465e-16 -4.9844e-24 1
    outer loop
      vertex -5.5 20.8 -6.73556e-16
      vertex -5.79239 15.0117 -7.09363e-16
      vertex -5.71807 15.1696 -7.00261e-16
    endloop
  endfacet
  facet normal -1.22465e-16 1.35197e-23 1
    outer loop
      vertex -5.5 20.8 -6.73556e-16
      vertex -5.84633 14.8457 -7.15969e-16
      vertex -5.79239 15.0117 -7.09363e-16
    endloop
  endfacet
  facet normal -1.22465e-16 -3.8725e-23 1
    outer loop
      vertex -5.84633 14.8457 -7.15969e-16
      vertex -9 29 -1.10218e-15
      vertex -5.87904 14.6742 -7.19975e-16
    endloop
  endfacet
  facet normal -1.22465e-16 5.80379e-24 1
    outer loop
      vertex -5.87904 14.6742 -7.19975e-16
      vertex -9 29 -1.10218e-15
      vertex -5.89 14.5 -7.21317e-16
    endloop
  endfacet
  facet normal -1.22465e-16 -7.84976e-25 1
    outer loop
      vertex -3.61398 13.429 -4.42585e-16
      vertex -3.5 8.2 -4.28626e-16
      vertex -3.48673 13.5485 -4.27002e-16
    endloop
  endfacet
  facet normal -1.22465e-16 -7.54265e-24 1
    outer loop
      vertex -3.7552 13.3264 -4.59879e-16
      vertex -3.5 8.2 -4.28626e-16
      vertex -3.61398 13.429 -4.42585e-16
    endloop
  endfacet
  facet normal -1.22465e-16 4.45874e-24 1
    outer loop
      vertex -3.90817 13.2423 -4.78612e-16
      vertex -3.5 8.2 -4.28626e-16
      vertex -3.7552 13.3264 -4.59879e-16
    endloop
  endfacet
  facet normal -1.22464e-16 1.92069e-23 1
    outer loop
      vertex -4.07047 13.178 -4.98488e-16
      vertex -3.5 8.2 -4.28626e-16
      vertex -3.90817 13.2423 -4.78612e-16
    endloop
  endfacet
  facet normal -1.22465e-16 -1.91039e-23 1
    outer loop
      vertex -4.23954 13.1346 -5.19194e-16
      vertex -3.5 8.2 -4.28626e-16
      vertex -4.07047 13.178 -4.98488e-16
    endloop
  endfacet
  facet normal -1.22465e-16 2.58928e-23 1
    outer loop
      vertex -4.41272 13.1127 -5.40402e-16
      vertex -3.5 8.2 -4.28626e-16
      vertex -4.23954 13.1346 -5.19194e-16
    endloop
  endfacet
  facet normal -1.22465e-16 -5.17257e-24 1
    outer loop
      vertex -4.58728 13.1127 -5.6178e-16
      vertex -3.5 8.2 -4.28626e-16
      vertex -4.41272 13.1127 -5.40402e-16
    endloop
  endfacet
  facet normal -1.22465e-16 2.65034e-23 1
    outer loop
      vertex -5.5 8.2 -6.73556e-16
      vertex -4.58728 13.1127 -5.6178e-16
      vertex -4.76046 13.1346 -5.82988e-16
    endloop
  endfacet
  facet normal -1.22465e-16 -1.87885e-23 1
    outer loop
      vertex -5.5 8.2 -6.73556e-16
      vertex -4.76046 13.1346 -5.82988e-16
      vertex -4.92953 13.178 -6.03694e-16
    endloop
  endfacet
  facet normal -1.22465e-16 1.35607e-23 1
    outer loop
      vertex -5.5 8.2 -6.73556e-16
      vertex -4.92953 13.178 -6.03694e-16
      vertex -5.09183 13.2423 -6.2357e-16
    endloop
  endfacet
  facet normal -1.22465e-16 2.6391e-24 1
    outer loop
      vertex -5.5 8.2 -6.73556e-16
      vertex -5.09183 13.2423 -6.2357e-16
      vertex -5.2448 13.3264 -6.42303e-16
    endloop
  endfacet
  facet normal -1.22465e-16 -3.43023e-24 1
    outer loop
      vertex -5.5 8.2 -6.73556e-16
      vertex -5.2448 13.3264 -6.42303e-16
      vertex -5.38602 13.429 -6.59597e-16
    endloop
  endfacet
  facet normal -1.22465e-16 -1.27012e-24 1
    outer loop
      vertex -4.58728 13.1127 -5.6178e-16
      vertex -5.5 8.2 -6.73556e-16
      vertex -3.5 8.2 -4.28626e-16
    endloop
  endfacet
  facet normal -1.22465e-16 -2.1306e-24 1
    outer loop
      vertex -5.51327 13.5485 -6.7518e-16
      vertex -5.5 8.2 -6.73556e-16
      vertex -5.38602 13.429 -6.59597e-16
    endloop
  endfacet
  facet normal -1.22465e-16 -3.13784e-24 1
    outer loop
      vertex -5.62453 13.683 -6.88807e-16
      vertex -5.5 8.2 -6.73556e-16
      vertex -5.51327 13.5485 -6.7518e-16
    endloop
  endfacet
  facet normal -1.22464e-16 9.48476e-24 1
    outer loop
      vertex -5.71807 13.8304 -7.00261e-16
      vertex -5.5 8.2 -6.73556e-16
      vertex -5.62453 13.683 -6.88807e-16
    endloop
  endfacet
  facet normal -1.22465e-16 4.9844e-24 1
    outer loop
      vertex -5.79239 13.9883 -7.09363e-16
      vertex -5.5 8.2 -6.73556e-16
      vertex -5.71807 13.8304 -7.00261e-16
    endloop
  endfacet
  facet normal -1.22465e-16 -1.35197e-23 1
    outer loop
      vertex -5.84633 14.1543 -7.15969e-16
      vertex -5.5 8.2 -6.73556e-16
      vertex -5.79239 13.9883 -7.09363e-16
    endloop
  endfacet
  facet normal -1.22465e-16 8.06812e-25 1
    outer loop
      vertex -5.5 8.2 -6.73556e-16
      vertex -5.84633 14.1543 -7.15969e-16
      vertex -9 0 -1.10218e-15
    endloop
  endfacet
  facet normal -1.22465e-16 3.8725e-23 1
    outer loop
      vertex -9 0 -1.10218e-15
      vertex -5.84633 14.1543 -7.15969e-16
      vertex -5.87904 14.3258 -7.19975e-16
    endloop
  endfacet
  facet normal -1.22465e-16 -5.80377e-24 1
    outer loop
      vertex -9 0 -1.10218e-15
      vertex -5.87904 14.3258 -7.19975e-16
      vertex -5.89 14.5 -7.21317e-16
    endloop
  endfacet
  facet normal -1.22465e-16 0 1
    outer loop
      vertex -9 0 -1.10218e-15
      vertex -5.89 14.5 -7.21317e-16
      vertex -9 29 -1.10218e-15
    endloop
  endfacet
  facet normal -1.22465e-16 0 1
    outer loop
      vertex -5.5 8.2 -6.73556e-16
      vertex -9 0 -1.10218e-15
      vertex -5.5 0 -6.73556e-16
    endloop
  endfacet
  facet normal -1.22465e-16 0 1
    outer loop
      vertex 0 29 0
      vertex -3.11 14.5 -3.80865e-16
      vertex 0 0 0
    endloop
  endfacet
  facet normal -1.22465e-16 -5.56045e-24 1
    outer loop
      vertex 0 29 0
      vertex -3.12096 14.6742 -3.82207e-16
      vertex -3.11 14.5 -3.80865e-16
    endloop
  endfacet
  facet normal -1.22465e-16 3.92319e-23 1
    outer loop
      vertex 0 29 0
      vertex -3.15367 14.8457 -3.86213e-16
      vertex -3.12096 14.6742 -3.82207e-16
    endloop
  endfacet
  facet normal -1.22465e-16 -4.18938e-25 1
    outer loop
      vertex -3.5 20.8 -4.28626e-16
      vertex -3.15367 14.8457 -3.86213e-16
      vertex 0 29 0
    endloop
  endfacet
  facet normal -1.22464e-16 1.90141e-23 1
    outer loop
      vertex -3.15367 14.8457 -3.86213e-16
      vertex -3.5 20.8 -4.28626e-16
      vertex -3.20761 15.0117 -3.92819e-16
    endloop
  endfacet
  facet normal -1.22465e-16 -1.21584e-23 1
    outer loop
      vertex -3.20761 15.0117 -3.92819e-16
      vertex -3.5 20.8 -4.28626e-16
      vertex -3.28193 15.1696 -4.01921e-16
    endloop
  endfacet
  facet normal -1.22464e-16 7.42071e-24 1
    outer loop
      vertex -3.28193 15.1696 -4.01921e-16
      vertex -3.5 20.8 -4.28626e-16
      vertex -3.37547 15.317 -4.13375e-16
    endloop
  endfacet
  facet normal -1.22465e-16 0 1
    outer loop
      vertex -3.5 20.8 -4.28626e-16
      vertex 0 29 0
      vertex -3.5 29 -4.28626e-16
    endloop
  endfacet
  facet normal -1.22465e-16 3.71468e-25 1
    outer loop
      vertex -3.37547 15.317 -4.13375e-16
      vertex -3.5 20.8 -4.28626e-16
      vertex -3.48673 15.4515 -4.27002e-16
    endloop
  endfacet
  facet normal -1.22465e-16 7.84976e-25 1
    outer loop
      vertex -3.5 20.8 -4.28626e-16
      vertex -3.61398 15.571 -4.42585e-16
      vertex -3.48673 15.4515 -4.27002e-16
    endloop
  endfacet
  facet normal -1.22465e-16 7.54265e-24 1
    outer loop
      vertex -3.5 20.8 -4.28626e-16
      vertex -3.7552 15.6736 -4.59879e-16
      vertex -3.61398 15.571 -4.42585e-16
    endloop
  endfacet
  facet normal -1.22465e-16 -4.45874e-24 1
    outer loop
      vertex -3.5 20.8 -4.28626e-16
      vertex -3.90817 15.7577 -4.78612e-16
      vertex -3.7552 15.6736 -4.59879e-16
    endloop
  endfacet
  facet normal -1.22464e-16 -1.92069e-23 1
    outer loop
      vertex -3.5 20.8 -4.28626e-16
      vertex -4.07047 15.822 -4.98488e-16
      vertex -3.90817 15.7577 -4.78612e-16
    endloop
  endfacet
  facet normal -1.22465e-16 1.91039e-23 1
    outer loop
      vertex -3.5 20.8 -4.28626e-16
      vertex -4.23954 15.8654 -5.19194e-16
      vertex -4.07047 15.822 -4.98488e-16
    endloop
  endfacet
  facet normal -1.22465e-16 -2.58928e-23 1
    outer loop
      vertex -3.5 20.8 -4.28626e-16
      vertex -4.41272 15.8873 -5.40402e-16
      vertex -4.23954 15.8654 -5.19194e-16
    endloop
  endfacet
  facet normal -1.22465e-16 5.17257e-24 1
    outer loop
      vertex -3.5 20.8 -4.28626e-16
      vertex -4.58728 15.8873 -5.6178e-16
      vertex -4.41272 15.8873 -5.40402e-16
    endloop
  endfacet
  facet normal -1.22465e-16 1.27012e-24 1
    outer loop
      vertex -5.5 20.8 -6.73556e-16
      vertex -4.58728 15.8873 -5.6178e-16
      vertex -3.5 20.8 -4.28626e-16
    endloop
  endfacet
  facet normal -1.22465e-16 -2.65034e-23 1
    outer loop
      vertex -4.58728 15.8873 -5.6178e-16
      vertex -5.5 20.8 -6.73556e-16
      vertex -4.76046 15.8654 -5.82988e-16
    endloop
  endfacet
  facet normal -1.22465e-16 1.87885e-23 1
    outer loop
      vertex -4.76046 15.8654 -5.82988e-16
      vertex -5.5 20.8 -6.73556e-16
      vertex -4.92953 15.822 -6.03694e-16
    endloop
  endfacet
  facet normal -1.22465e-16 -1.35607e-23 1
    outer loop
      vertex -4.92953 15.822 -6.03694e-16
      vertex -5.5 20.8 -6.73556e-16
      vertex -5.09183 15.7577 -6.2357e-16
    endloop
  endfacet
  facet normal -1.22465e-16 -2.6391e-24 1
    outer loop
      vertex -5.09183 15.7577 -6.2357e-16
      vertex -5.5 20.8 -6.73556e-16
      vertex -5.2448 15.6736 -6.42303e-16
    endloop
  endfacet
  facet normal -1.22465e-16 3.43023e-24 1
    outer loop
      vertex -5.2448 15.6736 -6.42303e-16
      vertex -5.5 20.8 -6.73556e-16
      vertex -5.38602 15.571 -6.59597e-16
    endloop
  endfacet
  facet normal -1.22465e-16 2.1306e-24 1
    outer loop
      vertex -5.38602 15.571 -6.59597e-16
      vertex -5.5 20.8 -6.73556e-16
      vertex -5.51327 15.4515 -6.7518e-16
    endloop
  endfacet
  facet normal -1.22465e-16 5.56042e-24 1
    outer loop
      vertex -3.12096 14.3258 -3.82207e-16
      vertex 0 0 0
      vertex -3.11 14.5 -3.80865e-16
    endloop
  endfacet
  facet normal -1.22465e-16 -3.92319e-23 1
    outer loop
      vertex -3.15367 14.1543 -3.86213e-16
      vertex 0 0 0
      vertex -3.12096 14.3258 -3.82207e-16
    endloop
  endfacet
  facet normal -1.22464e-16 -1.90141e-23 1
    outer loop
      vertex -3.5 8.2 -4.28626e-16
      vertex -3.15367 14.1543 -3.86213e-16
      vertex -3.20761 13.9883 -3.92819e-16
    endloop
  endfacet
  facet normal -1.22465e-16 1.21584e-23 1
    outer loop
      vertex -3.5 8.2 -4.28626e-16
      vertex -3.20761 13.9883 -3.92819e-16
      vertex -3.28193 13.8304 -4.01921e-16
    endloop
  endfacet
  facet normal -1.22464e-16 -7.42071e-24 1
    outer loop
      vertex -3.5 8.2 -4.28626e-16
      vertex -3.28193 13.8304 -4.01921e-16
      vertex -3.37547 13.683 -4.13375e-16
    endloop
  endfacet
  facet normal -1.22465e-16 -3.71468e-25 1
    outer loop
      vertex -3.5 8.2 -4.28626e-16
      vertex -3.37547 13.683 -4.13375e-16
      vertex -3.48673 13.5485 -4.27002e-16
    endloop
  endfacet
  facet normal -1.22465e-16 4.18938e-25 1
    outer loop
      vertex -3.15367 14.1543 -3.86213e-16
      vertex -3.5 8.2 -4.28626e-16
      vertex 0 0 0
    endloop
  endfacet
  facet normal -1.22465e-16 0 1
    outer loop
      vertex 0 0 0
      vertex -3.5 8.2 -4.28626e-16
      vertex -3.5 0 -4.28626e-16
    endloop
  endfacet
  facet normal 0 -1 0
    outer loop
      vertex -5.5 0 1.75
      vertex -3.5 0 -4.28626e-16
      vertex -3.5 0 1.75
    endloop
  endfacet
  facet normal -0 -1 0
    outer loop
      vertex -3.5 0 -4.28626e-16
      vertex -5.5 0 1.75
      vertex -5.5 0 -6.73556e-16
    endloop
  endfacet
  facet normal 0 -1 0
    outer loop
      vertex -9 0 -1.75
      vertex -5.5 0 -6.73556e-16
      vertex -9 0 -1.10218e-15
    endloop
  endfacet
  facet normal 0 -1 -0
    outer loop
      vertex -5.5 0 -6.73556e-16
      vertex -9 0 -1.75
      vertex -3.5 0 -4.28626e-16
    endloop
  endfacet
  facet normal 0 -1 0
    outer loop
      vertex 2.14313e-16 0 -1.75
      vertex -3.5 0 -4.28626e-16
      vertex -9 0 -1.75
    endloop
  endfacet
  facet normal 0 -1 0
    outer loop
      vertex -3.5 0 -4.28626e-16
      vertex 2.14313e-16 0 -1.75
      vertex 0 0 0
    endloop
  endfacet
  facet normal 0 1 0
    outer loop
      vertex -9 29 -1.75
      vertex -5.5 29 -6.73556e-16
      vertex -3.5 29 -4.28626e-16
    endloop
  endfacet
  facet normal 0 1 0
    outer loop
      vertex 2.14313e-16 29 -1.75
      vertex -3.5 29 -4.28626e-16
      vertex 0 29 0
    endloop
  endfacet
  facet normal 0 1 0
    outer loop
      vertex -9 29 -1.75
      vertex -3.5 29 -4.28626e-16
      vertex 2.14313e-16 29 -1.75
    endloop
  endfacet
  facet normal 0 1 0
    outer loop
      vertex -5.5 29 -6.73556e-16
      vertex -9 29 -1.75
      vertex -9 29 -1.10218e-15
    endloop
  endfacet
  facet normal 0 1 -0
    outer loop
      vertex -3.5 29 -4.28626e-16
      vertex -5.5 29 1.75
      vertex -3.5 29 1.75
    endloop
  endfacet
  facet normal 0 1 0
    outer loop
      vertex -5.5 29 1.75
      vertex -3.5 29 -4.28626e-16
      vertex -5.5 29 -6.73556e-16
    endloop
  endfacet
  facet normal 1 -0 0
    outer loop
      vertex -3.5 0 1.75
      vertex -3.5 8.2 -4.28626e-16
      vertex -3.5 8.2 1.75
    endloop
  endfacet
  facet normal 1 0 0
    outer loop
      vertex -3.5 8.2 -4.28626e-16
      vertex -3.5 0 1.75
      vertex -3.5 0 -4.28626e-16
    endloop
  endfacet
  facet normal -1 0 0
    outer loop
      vertex -5.5 0 -6.73556e-16
      vertex -5.5 8.2 1.75
      vertex -5.5 8.2 -6.73556e-16
    endloop
  endfacet
  facet normal -1 -0 0
    outer loop
      vertex -5.5 8.2 1.75
      vertex -5.5 0 -6.73556e-16
      vertex -5.5 0 1.75
    endloop
  endfacet
  facet normal 0 1 -0
    outer loop
      vertex -3.5 8.2 -4.28626e-16
      vertex -5.5 8.2 1.75
      vertex -3.5 8.2 1.75
    endloop
  endfacet
  facet normal 0 1 0
    outer loop
      vertex -5.5 8.2 1.75
      vertex -3.5 8.2 -4.28626e-16
      vertex -5.5 8.2 -6.73556e-16
    endloop
  endfacet
  facet normal -0 0 1
    outer loop
      vertex -5.5 8.2 1.75
      vertex -3.5 0 1.75
      vertex -3.5 8.2 1.75
    endloop
  endfacet
  facet normal 0 0 1
    outer loop
      vertex -3.5 0 1.75
      vertex -5.5 8.2 1.75
      vertex -5.5 0 1.75
    endloop
  endfacet
  facet normal 1 -0 0
    outer loop
      vertex -3.5 20.8 1.75
      vertex -3.5 29 -4.28626e-16
      vertex -3.5 29 1.75
    endloop
  endfacet
  facet normal 1 0 0
    outer loop
      vertex -3.5 29 -4.28626e-16
      vertex -3.5 20.8 1.75
      vertex -3.5 20.8 -4.28626e-16
    endloop
  endfacet
  facet normal -1 0 0
    outer loop
      vertex -5.5 20.8 -6.73556e-16
      vertex -5.5 29 1.75
      vertex -5.5 29 -6.73556e-16
    endloop
  endfacet
  facet normal -1 -0 0
    outer loop
      vertex -5.5 29 1.75
      vertex -5.5 20.8 -6.73556e-16
      vertex -5.5 20.8 1.75
    endloop
  endfacet
  facet normal -0 0 1
    outer loop
      vertex -5.5 29 1.75
      vertex -3.5 20.8 1.75
      vertex -3.5 29 1.75
    endloop
  endfacet
  facet normal 0 0 1
    outer loop
      vertex -3.5 20.8 1.75
      vertex -5.5 29 1.75
      vertex -5.5 20.8 1.75
    endloop
  endfacet
  facet normal 0 -1 0
    outer loop
      vertex -5.5 20.8 1.75
      vertex -3.5 20.8 -4.28626e-16
      vertex -3.5 20.8 1.75
    endloop
  endfacet
  facet normal -0 -1 0
    outer loop
      vertex -3.5 20.8 -4.28626e-16
      vertex -5.5 20.8 1.75
      vertex -5.5 20.8 -6.73556e-16
    endloop
  endfacet
  facet normal 0.998027 -0.0627909 0
    outer loop
      vertex -5.89 14.5 -7.21317e-16
      vertex -5.87904 14.6742 -1.75
      vertex -5.87904 14.6742 -7.19975e-16
    endloop
  endfacet
  facet normal 0.998027 -0.0627909 0
    outer loop
      vertex -5.87904 14.6742 -1.75
      vertex -5.89 14.5 -7.21317e-16
      vertex -5.89 14.5 -1.75
    endloop
  endfacet
  facet normal 0 -1 0
    outer loop
      vertex -4.58728 15.8873 -1.75
      vertex -4.41272 15.8873 -5.40402e-16
      vertex -4.58728 15.8873 -5.6178e-16
    endloop
  endfacet
  facet normal 0 -1 -0
    outer loop
      vertex -4.41272 15.8873 -5.40402e-16
      vertex -4.58728 15.8873 -1.75
      vertex -4.41272 15.8873 -1.75
    endloop
  endfacet
  facet normal 0.684546 -0.728969 0
    outer loop
      vertex -5.51327 15.4515 -1.75
      vertex -5.38602 15.571 -6.59597e-16
      vertex -5.51327 15.4515 -6.7518e-16
    endloop
  endfacet
  facet normal 0.684546 -0.728969 0
    outer loop
      vertex -5.38602 15.571 -6.59597e-16
      vertex -5.51327 15.4515 -1.75
      vertex -5.38602 15.571 -1.75
    endloop
  endfacet
  facet normal -0.770513 -0.637425 0
    outer loop
      vertex -3.37547 15.317 -1.75
      vertex -3.48673 15.4515 -4.27002e-16
      vertex -3.48673 15.4515 -1.75
    endloop
  endfacet
  facet normal -0.770513 -0.637425 0
    outer loop
      vertex -3.48673 15.4515 -4.27002e-16
      vertex -3.37547 15.317 -1.75
      vertex -3.37547 15.317 -4.13375e-16
    endloop
  endfacet
  facet normal -0.368122 -0.929778 0
    outer loop
      vertex -4.07047 15.822 -1.75
      vertex -3.90817 15.7577 -4.78612e-16
      vertex -4.07047 15.822 -4.98488e-16
    endloop
  endfacet
  facet normal -0.368122 -0.929778 -0
    outer loop
      vertex -3.90817 15.7577 -4.78612e-16
      vertex -4.07047 15.822 -1.75
      vertex -3.90817 15.7577 -1.75
    endloop
  endfacet
  facet normal 0.904827 -0.425779 0
    outer loop
      vertex -5.79239 15.0117 -7.09363e-16
      vertex -5.71807 15.1696 -1.75
      vertex -5.71807 15.1696 -7.00261e-16
    endloop
  endfacet
  facet normal 0.904827 -0.425779 0
    outer loop
      vertex -5.71807 15.1696 -1.75
      vertex -5.79239 15.0117 -7.09363e-16
      vertex -5.79239 15.0117 -1.75
    endloop
  endfacet
  facet normal 0.368122 -0.929778 0
    outer loop
      vertex -5.09183 15.7577 -1.75
      vertex -4.92953 15.822 -6.03694e-16
      vertex -5.09183 15.7577 -6.2357e-16
    endloop
  endfacet
  facet normal 0.368122 -0.929778 0
    outer loop
      vertex -4.92953 15.822 -6.03694e-16
      vertex -5.09183 15.7577 -1.75
      vertex -4.92953 15.822 -1.75
    endloop
  endfacet
  facet normal 0.481756 -0.876305 0
    outer loop
      vertex -5.2448 15.6736 -1.75
      vertex -5.09183 15.7577 -6.2357e-16
      vertex -5.2448 15.6736 -6.42303e-16
    endloop
  endfacet
  facet normal 0.481756 -0.876305 0
    outer loop
      vertex -5.09183 15.7577 -6.2357e-16
      vertex -5.2448 15.6736 -1.75
      vertex -5.09183 15.7577 -1.75
    endloop
  endfacet
  facet normal -0.951058 -0.309014 0
    outer loop
      vertex -3.15367 14.8457 -1.75
      vertex -3.20761 15.0117 -3.92819e-16
      vertex -3.20761 15.0117 -1.75
    endloop
  endfacet
  facet normal -0.951058 -0.309014 0
    outer loop
      vertex -3.20761 15.0117 -3.92819e-16
      vertex -3.15367 14.8457 -1.75
      vertex -3.15367 14.8457 -3.86213e-16
    endloop
  endfacet
  facet normal -0.982287 -0.187383 0
    outer loop
      vertex -3.12096 14.6742 -1.75
      vertex -3.15367 14.8457 -3.86213e-16
      vertex -3.15367 14.8457 -1.75
    endloop
  endfacet
  facet normal -0.982287 -0.187383 0
    outer loop
      vertex -3.15367 14.8457 -3.86213e-16
      vertex -3.12096 14.6742 -1.75
      vertex -3.12096 14.6742 -3.82207e-16
    endloop
  endfacet
  facet normal -0.248688 -0.968584 0
    outer loop
      vertex -4.23954 15.8654 -1.75
      vertex -4.07047 15.822 -4.98488e-16
      vertex -4.23954 15.8654 -5.19194e-16
    endloop
  endfacet
  facet normal -0.248688 -0.968584 -0
    outer loop
      vertex -4.07047 15.822 -4.98488e-16
      vertex -4.23954 15.8654 -1.75
      vertex -4.07047 15.822 -1.75
    endloop
  endfacet
  facet normal 0.982287 0.187383 0
    outer loop
      vertex -5.84633 14.1543 -7.15969e-16
      vertex -5.87904 14.3258 -1.75
      vertex -5.87904 14.3258 -7.19975e-16
    endloop
  endfacet
  facet normal 0.982287 0.187383 0
    outer loop
      vertex -5.87904 14.3258 -1.75
      vertex -5.84633 14.1543 -7.15969e-16
      vertex -5.84633 14.1543 -1.75
    endloop
  endfacet
  facet normal 0.951058 -0.309014 0
    outer loop
      vertex -5.84633 14.8457 -7.15969e-16
      vertex -5.79239 15.0117 -1.75
      vertex -5.79239 15.0117 -7.09363e-16
    endloop
  endfacet
  facet normal 0.951058 -0.309014 0
    outer loop
      vertex -5.79239 15.0117 -1.75
      vertex -5.84633 14.8457 -7.15969e-16
      vertex -5.84633 14.8457 -1.75
    endloop
  endfacet
  facet normal 0.982287 -0.187383 0
    outer loop
      vertex -5.87904 14.6742 -7.19975e-16
      vertex -5.84633 14.8457 -1.75
      vertex -5.84633 14.8457 -7.15969e-16
    endloop
  endfacet
  facet normal 0.982287 -0.187383 0
    outer loop
      vertex -5.84633 14.8457 -1.75
      vertex -5.87904 14.6742 -7.19975e-16
      vertex -5.87904 14.6742 -1.75
    endloop
  endfacet
  facet normal 0.770513 -0.637425 0
    outer loop
      vertex -5.62453 15.317 -6.88807e-16
      vertex -5.51327 15.4515 -1.75
      vertex -5.51327 15.4515 -6.7518e-16
    endloop
  endfacet
  facet normal 0.770513 -0.637425 0
    outer loop
      vertex -5.51327 15.4515 -1.75
      vertex -5.62453 15.317 -6.88807e-16
      vertex -5.62453 15.317 -1.75
    endloop
  endfacet
  facet normal 0.844327 -0.535828 0
    outer loop
      vertex -5.71807 15.1696 -7.00261e-16
      vertex -5.62453 15.317 -1.75
      vertex -5.62453 15.317 -6.88807e-16
    endloop
  endfacet
  facet normal 0.844327 -0.535828 0
    outer loop
      vertex -5.62453 15.317 -1.75
      vertex -5.71807 15.1696 -7.00261e-16
      vertex -5.71807 15.1696 -1.75
    endloop
  endfacet
  facet normal 0.248688 -0.968584 0
    outer loop
      vertex -4.92953 15.822 -1.75
      vertex -4.76046 15.8654 -5.82988e-16
      vertex -4.92953 15.822 -6.03694e-16
    endloop
  endfacet
  facet normal 0.248688 -0.968584 0
    outer loop
      vertex -4.76046 15.8654 -5.82988e-16
      vertex -4.92953 15.822 -1.75
      vertex -4.76046 15.8654 -1.75
    endloop
  endfacet
  facet normal 0.125335 -0.992114 0
    outer loop
      vertex -4.76046 15.8654 -1.75
      vertex -4.58728 15.8873 -5.6178e-16
      vertex -4.76046 15.8654 -5.82988e-16
    endloop
  endfacet
  facet normal 0.125335 -0.992114 0
    outer loop
      vertex -4.58728 15.8873 -5.6178e-16
      vertex -4.76046 15.8654 -1.75
      vertex -4.58728 15.8873 -1.75
    endloop
  endfacet
  facet normal 0.587787 -0.809015 0
    outer loop
      vertex -5.38602 15.571 -1.75
      vertex -5.2448 15.6736 -6.42303e-16
      vertex -5.38602 15.571 -6.59597e-16
    endloop
  endfacet
  facet normal 0.587787 -0.809015 0
    outer loop
      vertex -5.2448 15.6736 -6.42303e-16
      vertex -5.38602 15.571 -1.75
      vertex -5.2448 15.6736 -1.75
    endloop
  endfacet
  facet normal -0.904827 -0.425779 0
    outer loop
      vertex -3.20761 15.0117 -1.75
      vertex -3.28193 15.1696 -4.01921e-16
      vertex -3.28193 15.1696 -1.75
    endloop
  endfacet
  facet normal -0.904827 -0.425779 0
    outer loop
      vertex -3.28193 15.1696 -4.01921e-16
      vertex -3.20761 15.0117 -1.75
      vertex -3.20761 15.0117 -3.92819e-16
    endloop
  endfacet
  facet normal -0.844327 -0.535828 0
    outer loop
      vertex -3.28193 15.1696 -1.75
      vertex -3.37547 15.317 -4.13375e-16
      vertex -3.37547 15.317 -1.75
    endloop
  endfacet
  facet normal -0.844327 -0.535828 0
    outer loop
      vertex -3.37547 15.317 -4.13375e-16
      vertex -3.28193 15.1696 -1.75
      vertex -3.28193 15.1696 -4.01921e-16
    endloop
  endfacet
  facet normal -0.998027 -0.0627909 0
    outer loop
      vertex -3.11 14.5 -1.75
      vertex -3.12096 14.6742 -3.82207e-16
      vertex -3.12096 14.6742 -1.75
    endloop
  endfacet
  facet normal -0.998027 -0.0627909 0
    outer loop
      vertex -3.12096 14.6742 -3.82207e-16
      vertex -3.11 14.5 -1.75
      vertex -3.11 14.5 -3.80865e-16
    endloop
  endfacet
  facet normal -0.587787 -0.809015 0
    outer loop
      vertex -3.7552 15.6736 -1.75
      vertex -3.61398 15.571 -4.42585e-16
      vertex -3.7552 15.6736 -4.59879e-16
    endloop
  endfacet
  facet normal -0.587787 -0.809015 -0
    outer loop
      vertex -3.61398 15.571 -4.42585e-16
      vertex -3.7552 15.6736 -1.75
      vertex -3.61398 15.571 -1.75
    endloop
  endfacet
  facet normal -0.481756 -0.876305 0
    outer loop
      vertex -3.90817 15.7577 -1.75
      vertex -3.7552 15.6736 -4.59879e-16
      vertex -3.90817 15.7577 -4.78612e-16
    endloop
  endfacet
  facet normal -0.481756 -0.876305 -0
    outer loop
      vertex -3.7552 15.6736 -4.59879e-16
      vertex -3.90817 15.7577 -1.75
      vertex -3.7552 15.6736 -1.75
    endloop
  endfacet
  facet normal -0.684546 -0.728969 0
    outer loop
      vertex -3.61398 15.571 -1.75
      vertex -3.48673 15.4515 -4.27002e-16
      vertex -3.61398 15.571 -4.42585e-16
    endloop
  endfacet
  facet normal -0.684546 -0.728969 -0
    outer loop
      vertex -3.48673 15.4515 -4.27002e-16
      vertex -3.61398 15.571 -1.75
      vertex -3.48673 15.4515 -1.75
    endloop
  endfacet
  facet normal -0.125335 -0.992114 0
    outer loop
      vertex -4.41272 15.8873 -1.75
      vertex -4.23954 15.8654 -5.19194e-16
      vertex -4.41272 15.8873 -5.40402e-16
    endloop
  endfacet
  facet normal -0.125335 -0.992114 -0
    outer loop
      vertex -4.23954 15.8654 -5.19194e-16
      vertex -4.41272 15.8873 -1.75
      vertex -4.23954 15.8654 -1.75
    endloop
  endfacet
  facet normal 0.998027 0.0627905 0
    outer loop
      vertex -5.87904 14.3258 -7.19975e-16
      vertex -5.89 14.5 -1.75
      vertex -5.89 14.5 -7.21317e-16
    endloop
  endfacet
  facet normal 0.998027 0.0627905 0
    outer loop
      vertex -5.89 14.5 -1.75
      vertex -5.87904 14.3258 -7.19975e-16
      vertex -5.87904 14.3258 -1.75
    endloop
  endfacet
  facet normal 0.125335 0.992114 -0
    outer loop
      vertex -4.58728 13.1127 -1.75
      vertex -4.76046 13.1346 -5.82988e-16
      vertex -4.58728 13.1127 -5.6178e-16
    endloop
  endfacet
  facet normal 0.125335 0.992114 0
    outer loop
      vertex -4.76046 13.1346 -5.82988e-16
      vertex -4.58728 13.1127 -1.75
      vertex -4.76046 13.1346 -1.75
    endloop
  endfacet
  facet normal 0.368122 0.929778 -0
    outer loop
      vertex -4.92953 13.178 -1.75
      vertex -5.09183 13.2423 -6.2357e-16
      vertex -4.92953 13.178 -6.03694e-16
    endloop
  endfacet
  facet normal 0.368122 0.929778 0
    outer loop
      vertex -5.09183 13.2423 -6.2357e-16
      vertex -4.92953 13.178 -1.75
      vertex -5.09183 13.2423 -1.75
    endloop
  endfacet
  facet normal 0.684546 0.728969 -0
    outer loop
      vertex -5.38602 13.429 -1.75
      vertex -5.51327 13.5485 -6.7518e-16
      vertex -5.38602 13.429 -6.59597e-16
    endloop
  endfacet
  facet normal 0.684546 0.728969 0
    outer loop
      vertex -5.51327 13.5485 -6.7518e-16
      vertex -5.38602 13.429 -1.75
      vertex -5.51327 13.5485 -1.75
    endloop
  endfacet
  facet normal 0.481756 0.876305 -0
    outer loop
      vertex -5.09183 13.2423 -1.75
      vertex -5.2448 13.3264 -6.42303e-16
      vertex -5.09183 13.2423 -6.2357e-16
    endloop
  endfacet
  facet normal 0.481756 0.876305 0
    outer loop
      vertex -5.2448 13.3264 -6.42303e-16
      vertex -5.09183 13.2423 -1.75
      vertex -5.2448 13.3264 -1.75
    endloop
  endfacet
  facet normal 0.844327 0.535828 0
    outer loop
      vertex -5.62453 13.683 -6.88807e-16
      vertex -5.71807 13.8304 -1.75
      vertex -5.71807 13.8304 -7.00261e-16
    endloop
  endfacet
  facet normal 0.844327 0.535828 0
    outer loop
      vertex -5.71807 13.8304 -1.75
      vertex -5.62453 13.683 -6.88807e-16
      vertex -5.62453 13.683 -1.75
    endloop
  endfacet
  facet normal -0.587787 0.809015 0
    outer loop
      vertex -3.61398 13.429 -1.75
      vertex -3.7552 13.3264 -4.59879e-16
      vertex -3.61398 13.429 -4.42585e-16
    endloop
  endfacet
  facet normal -0.587787 0.809015 0
    outer loop
      vertex -3.7552 13.3264 -4.59879e-16
      vertex -3.61398 13.429 -1.75
      vertex -3.7552 13.3264 -1.75
    endloop
  endfacet
  facet normal -0.368122 0.929778 0
    outer loop
      vertex -3.90817 13.2423 -1.75
      vertex -4.07047 13.178 -4.98488e-16
      vertex -3.90817 13.2423 -4.78612e-16
    endloop
  endfacet
  facet normal -0.368122 0.929778 0
    outer loop
      vertex -4.07047 13.178 -4.98488e-16
      vertex -3.90817 13.2423 -1.75
      vertex -4.07047 13.178 -1.75
    endloop
  endfacet
  facet normal -0.248688 0.968584 0
    outer loop
      vertex -4.07047 13.178 -1.75
      vertex -4.23954 13.1346 -5.19194e-16
      vertex -4.07047 13.178 -4.98488e-16
    endloop
  endfacet
  facet normal -0.248688 0.968584 0
    outer loop
      vertex -4.23954 13.1346 -5.19194e-16
      vertex -4.07047 13.178 -1.75
      vertex -4.23954 13.1346 -1.75
    endloop
  endfacet
  facet normal 0 1 -0
    outer loop
      vertex -4.41272 13.1127 -1.75
      vertex -4.58728 13.1127 -5.6178e-16
      vertex -4.41272 13.1127 -5.40402e-16
    endloop
  endfacet
  facet normal 0 1 0
    outer loop
      vertex -4.58728 13.1127 -5.6178e-16
      vertex -4.41272 13.1127 -1.75
      vertex -4.58728 13.1127 -1.75
    endloop
  endfacet
  facet normal -0.844327 0.535828 0
    outer loop
      vertex -3.37547 13.683 -1.75
      vertex -3.28193 13.8304 -4.01921e-16
      vertex -3.28193 13.8304 -1.75
    endloop
  endfacet
  facet normal -0.844327 0.535828 0
    outer loop
      vertex -3.28193 13.8304 -4.01921e-16
      vertex -3.37547 13.683 -1.75
      vertex -3.37547 13.683 -4.13375e-16
    endloop
  endfacet
  facet normal -0.684546 0.728969 0
    outer loop
      vertex -3.48673 13.5485 -1.75
      vertex -3.61398 13.429 -4.42585e-16
      vertex -3.48673 13.5485 -4.27002e-16
    endloop
  endfacet
  facet normal -0.684546 0.728969 0
    outer loop
      vertex -3.61398 13.429 -4.42585e-16
      vertex -3.48673 13.5485 -1.75
      vertex -3.61398 13.429 -1.75
    endloop
  endfacet
  facet normal -0.904827 0.425779 0
    outer loop
      vertex -3.28193 13.8304 -1.75
      vertex -3.20761 13.9883 -3.92819e-16
      vertex -3.20761 13.9883 -1.75
    endloop
  endfacet
  facet normal -0.904827 0.425779 0
    outer loop
      vertex -3.20761 13.9883 -3.92819e-16
      vertex -3.28193 13.8304 -1.75
      vertex -3.28193 13.8304 -4.01921e-16
    endloop
  endfacet
  facet normal -0.982287 0.187383 0
    outer loop
      vertex -3.15367 14.1543 -1.75
      vertex -3.12096 14.3258 -3.82207e-16
      vertex -3.12096 14.3258 -1.75
    endloop
  endfacet
  facet normal -0.982287 0.187383 0
    outer loop
      vertex -3.12096 14.3258 -3.82207e-16
      vertex -3.15367 14.1543 -1.75
      vertex -3.15367 14.1543 -3.86213e-16
    endloop
  endfacet
  facet normal -0.998027 0.0627905 0
    outer loop
      vertex -3.12096 14.3258 -1.75
      vertex -3.11 14.5 -3.80865e-16
      vertex -3.11 14.5 -1.75
    endloop
  endfacet
  facet normal -0.998027 0.0627905 0
    outer loop
      vertex -3.11 14.5 -3.80865e-16
      vertex -3.12096 14.3258 -1.75
      vertex -3.12096 14.3258 -3.82207e-16
    endloop
  endfacet
  facet normal 0.951058 0.309014 0
    outer loop
      vertex -5.79239 13.9883 -7.09363e-16
      vertex -5.84633 14.1543 -1.75
      vertex -5.84633 14.1543 -7.15969e-16
    endloop
  endfacet
  facet normal 0.951058 0.309014 0
    outer loop
      vertex -5.84633 14.1543 -1.75
      vertex -5.79239 13.9883 -7.09363e-16
      vertex -5.79239 13.9883 -1.75
    endloop
  endfacet
  facet normal 0.248688 0.968584 -0
    outer loop
      vertex -4.76046 13.1346 -1.75
      vertex -4.92953 13.178 -6.03694e-16
      vertex -4.76046 13.1346 -5.82988e-16
    endloop
  endfacet
  facet normal 0.248688 0.968584 0
    outer loop
      vertex -4.92953 13.178 -6.03694e-16
      vertex -4.76046 13.1346 -1.75
      vertex -4.92953 13.178 -1.75
    endloop
  endfacet
  facet normal 0.770513 0.637425 0
    outer loop
      vertex -5.51327 13.5485 -6.7518e-16
      vertex -5.62453 13.683 -1.75
      vertex -5.62453 13.683 -6.88807e-16
    endloop
  endfacet
  facet normal 0.770513 0.637425 0
    outer loop
      vertex -5.62453 13.683 -1.75
      vertex -5.51327 13.5485 -6.7518e-16
      vertex -5.51327 13.5485 -1.75
    endloop
  endfacet
  facet normal 0.587787 0.809015 -0
    outer loop
      vertex -5.2448 13.3264 -1.75
      vertex -5.38602 13.429 -6.59597e-16
      vertex -5.2448 13.3264 -6.42303e-16
    endloop
  endfacet
  facet normal 0.587787 0.809015 0
    outer loop
      vertex -5.38602 13.429 -6.59597e-16
      vertex -5.2448 13.3264 -1.75
      vertex -5.38602 13.429 -1.75
    endloop
  endfacet
  facet normal -0.481756 0.876305 0
    outer loop
      vertex -3.7552 13.3264 -1.75
      vertex -3.90817 13.2423 -4.78612e-16
      vertex -3.7552 13.3264 -4.59879e-16
    endloop
  endfacet
  facet normal -0.481756 0.876305 0
    outer loop
      vertex -3.90817 13.2423 -4.78612e-16
      vertex -3.7552 13.3264 -1.75
      vertex -3.90817 13.2423 -1.75
    endloop
  endfacet
  facet normal -0.125335 0.992114 0
    outer loop
      vertex -4.23954 13.1346 -1.75
      vertex -4.41272 13.1127 -5.40402e-16
      vertex -4.23954 13.1346 -5.19194e-16
    endloop
  endfacet
  facet normal -0.125335 0.992114 0
    outer loop
      vertex -4.41272 13.1127 -5.40402e-16
      vertex -4.23954 13.1346 -1.75
      vertex -4.41272 13.1127 -1.75
    endloop
  endfacet
  facet normal -0.770513 0.637425 0
    outer loop
      vertex -3.48673 13.5485 -1.75
      vertex -3.37547 13.683 -4.13375e-16
      vertex -3.37547 13.683 -1.75
    endloop
  endfacet
  facet normal -0.770513 0.637425 0
    outer loop
      vertex -3.37547 13.683 -4.13375e-16
      vertex -3.48673 13.5485 -1.75
      vertex -3.48673 13.5485 -4.27002e-16
    endloop
  endfacet
  facet normal -0.951058 0.309014 0
    outer loop
      vertex -3.20761 13.9883 -1.75
      vertex -3.15367 14.1543 -3.86213e-16
      vertex -3.15367 14.1543 -1.75
    endloop
  endfacet
  facet normal -0.951058 0.309014 0
    outer loop
      vertex -3.15367 14.1543 -3.86213e-16
      vertex -3.20761 13.9883 -1.75
      vertex -3.20761 13.9883 -3.92819e-16
    endloop
  endfacet
  facet normal 0.904827 0.425779 0
    outer loop
      vertex -5.71807 13.8304 -7.00261e-16
      vertex -5.79239 13.9883 -1.75
      vertex -5.79239 13.9883 -7.09363e-16
    endloop
  endfacet
  facet normal 0.904827 0.425779 0
    outer loop
      vertex -5.79239 13.9883 -1.75
      vertex -5.71807 13.8304 -7.00261e-16
      vertex -5.71807 13.8304 -1.75
    endloop
  endfacet
  facet normal 1 -0 0
    outer loop
      vertex 15 0 0
      vertex 15 29 -1.75
      vertex 15 29 0
    endloop
  endfacet
  facet normal 1 0 0
    outer loop
      vertex 15 29 -1.75
      vertex 15 0 0
      vertex 15 0 -1.75
    endloop
  endfacet
  facet normal 0 0 -1
    outer loop
      vertex 15 0 -1.75
      vertex 11.89 14.5 -1.75
      vertex 15 29 -1.75
    endloop
  endfacet
  facet normal 0 0 -1
    outer loop
      vertex 15 0 -1.75
      vertex 11.879 14.3258 -1.75
      vertex 11.89 14.5 -1.75
    endloop
  endfacet
  facet normal 0 0 -1
    outer loop
      vertex 15 0 -1.75
      vertex 11.8463 14.1543 -1.75
      vertex 11.879 14.3258 -1.75
    endloop
  endfacet
  facet normal 0 0 -1
    outer loop
      vertex 15 0 -1.75
      vertex 11.7924 13.9883 -1.75
      vertex 11.8463 14.1543 -1.75
    endloop
  endfacet
  facet normal 0 0 -1
    outer loop
      vertex 15 0 -1.75
      vertex 11.7181 13.8304 -1.75
      vertex 11.7924 13.9883 -1.75
    endloop
  endfacet
  facet normal 0 0 -1
    outer loop
      vertex 15 0 -1.75
      vertex 11.6245 13.683 -1.75
      vertex 11.7181 13.8304 -1.75
    endloop
  endfacet
  facet normal 0 0 -1
    outer loop
      vertex 15 0 -1.75
      vertex 11.5133 13.5485 -1.75
      vertex 11.6245 13.683 -1.75
    endloop
  endfacet
  facet normal 0 0 -1
    outer loop
      vertex 15 0 -1.75
      vertex 11.386 13.429 -1.75
      vertex 11.5133 13.5485 -1.75
    endloop
  endfacet
  facet normal 0 0 -1
    outer loop
      vertex 15 0 -1.75
      vertex 11.2448 13.3264 -1.75
      vertex 11.386 13.429 -1.75
    endloop
  endfacet
  facet normal 0 0 -1
    outer loop
      vertex 15 0 -1.75
      vertex 11.0918 13.2423 -1.75
      vertex 11.2448 13.3264 -1.75
    endloop
  endfacet
  facet normal 0 0 -1
    outer loop
      vertex 15 0 -1.75
      vertex 10.9295 13.178 -1.75
      vertex 11.0918 13.2423 -1.75
    endloop
  endfacet
  facet normal 0 0 -1
    outer loop
      vertex 15 0 -1.75
      vertex 10.7605 13.1346 -1.75
      vertex 10.9295 13.178 -1.75
    endloop
  endfacet
  facet normal 0 0 -1
    outer loop
      vertex 15 0 -1.75
      vertex 10.5873 13.1127 -1.75
      vertex 10.7605 13.1346 -1.75
    endloop
  endfacet
  facet normal 0 0 -1
    outer loop
      vertex 15 0 -1.75
      vertex 10.4127 13.1127 -1.75
      vertex 10.5873 13.1127 -1.75
    endloop
  endfacet
  facet normal 0 0 -1
    outer loop
      vertex 6 0 -1.75
      vertex 10.4127 13.1127 -1.75
      vertex 15 0 -1.75
    endloop
  endfacet
  facet normal -0 0 -1
    outer loop
      vertex 10.4127 13.1127 -1.75
      vertex 6 0 -1.75
      vertex 10.2395 13.1346 -1.75
    endloop
  endfacet
  facet normal -0 0 -1
    outer loop
      vertex 10.2395 13.1346 -1.75
      vertex 6 0 -1.75
      vertex 10.0705 13.178 -1.75
    endloop
  endfacet
  facet normal -0 0 -1
    outer loop
      vertex 10.0705 13.178 -1.75
      vertex 6 0 -1.75
      vertex 9.90817 13.2423 -1.75
    endloop
  endfacet
  facet normal -0 0 -1
    outer loop
      vertex 9.90817 13.2423 -1.75
      vertex 6 0 -1.75
      vertex 9.7552 13.3264 -1.75
    endloop
  endfacet
  facet normal -0 0 -1
    outer loop
      vertex 9.7552 13.3264 -1.75
      vertex 6 0 -1.75
      vertex 9.61398 13.429 -1.75
    endloop
  endfacet
  facet normal -0 0 -1
    outer loop
      vertex 9.61398 13.429 -1.75
      vertex 6 0 -1.75
      vertex 9.48673 13.5485 -1.75
    endloop
  endfacet
  facet normal -0 0 -1
    outer loop
      vertex 9.48673 13.5485 -1.75
      vertex 6 0 -1.75
      vertex 9.37547 13.683 -1.75
    endloop
  endfacet
  facet normal -0 0 -1
    outer loop
      vertex 9.37547 13.683 -1.75
      vertex 6 0 -1.75
      vertex 9.28193 13.8304 -1.75
    endloop
  endfacet
  facet normal -0 0 -1
    outer loop
      vertex 9.12096 14.3258 -1.75
      vertex 6 0 -1.75
      vertex 9.11 14.5 -1.75
    endloop
  endfacet
  facet normal -0 0 -1
    outer loop
      vertex 9.15367 14.1543 -1.75
      vertex 6 0 -1.75
      vertex 9.12096 14.3258 -1.75
    endloop
  endfacet
  facet normal -0 0 -1
    outer loop
      vertex 9.20761 13.9883 -1.75
      vertex 6 0 -1.75
      vertex 9.15367 14.1543 -1.75
    endloop
  endfacet
  facet normal -0 0 -1
    outer loop
      vertex 9.28193 13.8304 -1.75
      vertex 6 0 -1.75
      vertex 9.20761 13.9883 -1.75
    endloop
  endfacet
  facet normal 0 0 -1
    outer loop
      vertex 11.879 14.6742 -1.75
      vertex 15 29 -1.75
      vertex 11.89 14.5 -1.75
    endloop
  endfacet
  facet normal 0 0 -1
    outer loop
      vertex 11.8463 14.8457 -1.75
      vertex 15 29 -1.75
      vertex 11.879 14.6742 -1.75
    endloop
  endfacet
  facet normal 0 0 -1
    outer loop
      vertex 11.7924 15.0117 -1.75
      vertex 15 29 -1.75
      vertex 11.8463 14.8457 -1.75
    endloop
  endfacet
  facet normal 0 0 -1
    outer loop
      vertex 11.7181 15.1696 -1.75
      vertex 15 29 -1.75
      vertex 11.7924 15.0117 -1.75
    endloop
  endfacet
  facet normal 0 0 -1
    outer loop
      vertex 11.6245 15.317 -1.75
      vertex 15 29 -1.75
      vertex 11.7181 15.1696 -1.75
    endloop
  endfacet
  facet normal 0 0 -1
    outer loop
      vertex 11.5133 15.4515 -1.75
      vertex 15 29 -1.75
      vertex 11.6245 15.317 -1.75
    endloop
  endfacet
  facet normal 0 0 -1
    outer loop
      vertex 11.386 15.571 -1.75
      vertex 15 29 -1.75
      vertex 11.5133 15.4515 -1.75
    endloop
  endfacet
  facet normal 0 0 -1
    outer loop
      vertex 11.2448 15.6736 -1.75
      vertex 15 29 -1.75
      vertex 11.386 15.571 -1.75
    endloop
  endfacet
  facet normal 0 0 -1
    outer loop
      vertex 11.0918 15.7577 -1.75
      vertex 15 29 -1.75
      vertex 11.2448 15.6736 -1.75
    endloop
  endfacet
  facet normal 0 0 -1
    outer loop
      vertex 10.9295 15.822 -1.75
      vertex 15 29 -1.75
      vertex 11.0918 15.7577 -1.75
    endloop
  endfacet
  facet normal 0 0 -1
    outer loop
      vertex 10.7605 15.8654 -1.75
      vertex 15 29 -1.75
      vertex 10.9295 15.822 -1.75
    endloop
  endfacet
  facet normal 0 0 -1
    outer loop
      vertex 10.5873 15.8873 -1.75
      vertex 15 29 -1.75
      vertex 10.7605 15.8654 -1.75
    endloop
  endfacet
  facet normal 0 0 -1
    outer loop
      vertex 10.4127 15.8873 -1.75
      vertex 15 29 -1.75
      vertex 10.5873 15.8873 -1.75
    endloop
  endfacet
  facet normal 0 0 -1
    outer loop
      vertex 6 29 -1.75
      vertex 10.4127 15.8873 -1.75
      vertex 10.2395 15.8654 -1.75
    endloop
  endfacet
  facet normal 0 0 -1
    outer loop
      vertex 6 29 -1.75
      vertex 10.2395 15.8654 -1.75
      vertex 10.0705 15.822 -1.75
    endloop
  endfacet
  facet normal 0 0 -1
    outer loop
      vertex 6 29 -1.75
      vertex 10.0705 15.822 -1.75
      vertex 9.90817 15.7577 -1.75
    endloop
  endfacet
  facet normal 0 0 -1
    outer loop
      vertex 6 29 -1.75
      vertex 9.90817 15.7577 -1.75
      vertex 9.7552 15.6736 -1.75
    endloop
  endfacet
  facet normal 0 0 -1
    outer loop
      vertex 6 29 -1.75
      vertex 9.7552 15.6736 -1.75
      vertex 9.61398 15.571 -1.75
    endloop
  endfacet
  facet normal 0 0 -1
    outer loop
      vertex 6 29 -1.75
      vertex 9.61398 15.571 -1.75
      vertex 9.48673 15.4515 -1.75
    endloop
  endfacet
  facet normal 0 0 -1
    outer loop
      vertex 6 29 -1.75
      vertex 9.48673 15.4515 -1.75
      vertex 9.37547 15.317 -1.75
    endloop
  endfacet
  facet normal 0 0 -1
    outer loop
      vertex 6 29 -1.75
      vertex 9.37547 15.317 -1.75
      vertex 9.28193 15.1696 -1.75
    endloop
  endfacet
  facet normal 0 0 -1
    outer loop
      vertex 6 29 -1.75
      vertex 9.28193 15.1696 -1.75
      vertex 9.20761 15.0117 -1.75
    endloop
  endfacet
  facet normal 0 0 -1
    outer loop
      vertex 6 29 -1.75
      vertex 9.11 14.5 -1.75
      vertex 6 0 -1.75
    endloop
  endfacet
  facet normal 0 0 -1
    outer loop
      vertex 9.11 14.5 -1.75
      vertex 6 29 -1.75
      vertex 9.12096 14.6742 -1.75
    endloop
  endfacet
  facet normal 0 0 -1
    outer loop
      vertex 10.4127 15.8873 -1.75
      vertex 6 29 -1.75
      vertex 15 29 -1.75
    endloop
  endfacet
  facet normal 0 0 -1
    outer loop
      vertex 9.15367 14.8457 -1.75
      vertex 6 29 -1.75
      vertex 9.20761 15.0117 -1.75
    endloop
  endfacet
  facet normal 0 0 -1
    outer loop
      vertex 9.12096 14.6742 -1.75
      vertex 6 29 -1.75
      vertex 9.15367 14.8457 -1.75
    endloop
  endfacet
  facet normal -1 0 0
    outer loop
      vertex 6 0 -1.75
      vertex 6 29 -1.10218e-15
      vertex 6 29 -1.75
    endloop
  endfacet
  facet normal -1 -0 0
    outer loop
      vertex 6 29 -1.10218e-15
      vertex 6 0 -1.75
      vertex 6 0 -1.10218e-15
    endloop
  endfacet
  facet normal -1.22465e-16 0 1
    outer loop
      vertex 6 29 -1.10218e-15
      vertex 9.5 20.8 -6.73556e-16
      vertex 9.5 29 -6.73556e-16
    endloop
  endfacet
  facet normal -1.22465e-16 -8.06812e-25 1
    outer loop
      vertex 9.15367 14.8457 -7.15969e-16
      vertex 9.5 20.8 -6.73556e-16
      vertex 6 29 -1.10218e-15
    endloop
  endfacet
  facet normal -1.22465e-16 3.13784e-24 1
    outer loop
      vertex 9.5 20.8 -6.73556e-16
      vertex 9.37547 15.317 -6.88807e-16
      vertex 9.48673 15.4515 -6.7518e-16
    endloop
  endfacet
  facet normal -1.22464e-16 -9.48476e-24 1
    outer loop
      vertex 9.5 20.8 -6.73556e-16
      vertex 9.28193 15.1696 -7.00261e-16
      vertex 9.37547 15.317 -6.88807e-16
    endloop
  endfacet
  facet normal -1.22465e-16 -4.9844e-24 1
    outer loop
      vertex 9.5 20.8 -6.73556e-16
      vertex 9.20761 15.0117 -7.09363e-16
      vertex 9.28193 15.1696 -7.00261e-16
    endloop
  endfacet
  facet normal -1.22465e-16 1.35197e-23 1
    outer loop
      vertex 9.5 20.8 -6.73556e-16
      vertex 9.15367 14.8457 -7.15969e-16
      vertex 9.20761 15.0117 -7.09363e-16
    endloop
  endfacet
  facet normal -1.22465e-16 -3.8725e-23 1
    outer loop
      vertex 9.15367 14.8457 -7.15969e-16
      vertex 6 29 -1.10218e-15
      vertex 9.12096 14.6742 -7.19975e-16
    endloop
  endfacet
  facet normal -1.22465e-16 5.80379e-24 1
    outer loop
      vertex 9.12096 14.6742 -7.19975e-16
      vertex 6 29 -1.10218e-15
      vertex 9.11 14.5 -7.21317e-16
    endloop
  endfacet
  facet normal -1.22465e-16 -7.84976e-25 1
    outer loop
      vertex 11.386 13.429 -4.42585e-16
      vertex 11.5 8.2 -4.28626e-16
      vertex 11.5133 13.5485 -4.27002e-16
    endloop
  endfacet
  facet normal -1.22465e-16 -7.54265e-24 1
    outer loop
      vertex 11.2448 13.3264 -4.59879e-16
      vertex 11.5 8.2 -4.28626e-16
      vertex 11.386 13.429 -4.42585e-16
    endloop
  endfacet
  facet normal -1.22465e-16 4.45874e-24 1
    outer loop
      vertex 11.0918 13.2423 -4.78612e-16
      vertex 11.5 8.2 -4.28626e-16
      vertex 11.2448 13.3264 -4.59879e-16
    endloop
  endfacet
  facet normal -1.22464e-16 1.92069e-23 1
    outer loop
      vertex 10.9295 13.178 -4.98488e-16
      vertex 11.5 8.2 -4.28626e-16
      vertex 11.0918 13.2423 -4.78612e-16
    endloop
  endfacet
  facet normal -1.22465e-16 -1.91039e-23 1
    outer loop
      vertex 10.7605 13.1346 -5.19194e-16
      vertex 11.5 8.2 -4.28626e-16
      vertex 10.9295 13.178 -4.98488e-16
    endloop
  endfacet
  facet normal -1.22465e-16 2.58928e-23 1
    outer loop
      vertex 10.5873 13.1127 -5.40402e-16
      vertex 11.5 8.2 -4.28626e-16
      vertex 10.7605 13.1346 -5.19194e-16
    endloop
  endfacet
  facet normal -1.22465e-16 -5.17257e-24 1
    outer loop
      vertex 10.4127 13.1127 -5.6178e-16
      vertex 11.5 8.2 -4.28626e-16
      vertex 10.5873 13.1127 -5.40402e-16
    endloop
  endfacet
  facet normal -1.22465e-16 2.65034e-23 1
    outer loop
      vertex 9.5 8.2 -6.73556e-16
      vertex 10.4127 13.1127 -5.6178e-16
      vertex 10.2395 13.1346 -5.82988e-16
    endloop
  endfacet
  facet normal -1.22465e-16 -1.87885e-23 1
    outer loop
      vertex 9.5 8.2 -6.73556e-16
      vertex 10.2395 13.1346 -5.82988e-16
      vertex 10.0705 13.178 -6.03694e-16
    endloop
  endfacet
  facet normal -1.22465e-16 1.35607e-23 1
    outer loop
      vertex 9.5 8.2 -6.73556e-16
      vertex 10.0705 13.178 -6.03694e-16
      vertex 9.90817 13.2423 -6.2357e-16
    endloop
  endfacet
  facet normal -1.22465e-16 2.6391e-24 1
    outer loop
      vertex 9.5 8.2 -6.73556e-16
      vertex 9.90817 13.2423 -6.2357e-16
      vertex 9.7552 13.3264 -6.42303e-16
    endloop
  endfacet
  facet normal -1.22465e-16 -3.43023e-24 1
    outer loop
      vertex 9.5 8.2 -6.73556e-16
      vertex 9.7552 13.3264 -6.42303e-16
      vertex 9.61398 13.429 -6.59597e-16
    endloop
  endfacet
  facet normal -1.22465e-16 -1.27012e-24 1
    outer loop
      vertex 10.4127 13.1127 -5.6178e-16
      vertex 9.5 8.2 -6.73556e-16
      vertex 11.5 8.2 -4.28626e-16
    endloop
  endfacet
  facet normal -1.22465e-16 -2.1306e-24 1
    outer loop
      vertex 9.48673 13.5485 -6.7518e-16
      vertex 9.5 8.2 -6.73556e-16
      vertex 9.61398 13.429 -6.59597e-16
    endloop
  endfacet
  facet normal -1.22465e-16 -3.13784e-24 1
    outer loop
      vertex 9.37547 13.683 -6.88807e-16
      vertex 9.5 8.2 -6.73556e-16
      vertex 9.48673 13.5485 -6.7518e-16
    endloop
  endfacet
  facet normal -1.22464e-16 9.48476e-24 1
    outer loop
      vertex 9.28193 13.8304 -7.00261e-16
      vertex 9.5 8.2 -6.73556e-16
      vertex 9.37547 13.683 -6.88807e-16
    endloop
  endfacet
  facet normal -1.22465e-16 4.9844e-24 1
    outer loop
      vertex 9.20761 13.9883 -7.09363e-16
      vertex 9.5 8.2 -6.73556e-16
      vertex 9.28193 13.8304 -7.00261e-16
    endloop
  endfacet
  facet normal -1.22465e-16 -1.35197e-23 1
    outer loop
      vertex 9.15367 14.1543 -7.15969e-16
      vertex 9.5 8.2 -6.73556e-16
      vertex 9.20761 13.9883 -7.09363e-16
    endloop
  endfacet
  facet normal -1.22465e-16 8.06812e-25 1
    outer loop
      vertex 9.5 8.2 -6.73556e-16
      vertex 9.15367 14.1543 -7.15969e-16
      vertex 6 0 -1.10218e-15
    endloop
  endfacet
  facet normal -1.22465e-16 3.8725e-23 1
    outer loop
      vertex 6 0 -1.10218e-15
      vertex 9.15367 14.1543 -7.15969e-16
      vertex 9.12096 14.3258 -7.19975e-16
    endloop
  endfacet
  facet normal -1.22465e-16 -5.80377e-24 1
    outer loop
      vertex 6 0 -1.10218e-15
      vertex 9.12096 14.3258 -7.19975e-16
      vertex 9.11 14.5 -7.21317e-16
    endloop
  endfacet
  facet normal -1.22465e-16 0 1
    outer loop
      vertex 6 0 -1.10218e-15
      vertex 9.11 14.5 -7.21317e-16
      vertex 6 29 -1.10218e-15
    endloop
  endfacet
  facet normal -1.22465e-16 0 1
    outer loop
      vertex 9.5 8.2 -6.73556e-16
      vertex 6 0 -1.10218e-15
      vertex 9.5 0 -6.73556e-16
    endloop
  endfacet
  facet normal -1.22465e-16 0 1
    outer loop
      vertex 15 29 0
      vertex 11.89 14.5 -3.80865e-16
      vertex 15 0 0
    endloop
  endfacet
  facet normal -1.22465e-16 -5.56045e-24 1
    outer loop
      vertex 15 29 0
      vertex 11.879 14.6742 -3.82207e-16
      vertex 11.89 14.5 -3.80865e-16
    endloop
  endfacet
  facet normal -1.22465e-16 3.92319e-23 1
    outer loop
      vertex 15 29 0
      vertex 11.8463 14.8457 -3.86213e-16
      vertex 11.879 14.6742 -3.82207e-16
    endloop
  endfacet
  facet normal -1.22465e-16 -4.18938e-25 1
    outer loop
      vertex 11.5 20.8 -4.28626e-16
      vertex 11.8463 14.8457 -3.86213e-16
      vertex 15 29 0
    endloop
  endfacet
  facet normal -1.22464e-16 1.90141e-23 1
    outer loop
      vertex 11.8463 14.8457 -3.86213e-16
      vertex 11.5 20.8 -4.28626e-16
      vertex 11.7924 15.0117 -3.92819e-16
    endloop
  endfacet
  facet normal -1.22465e-16 -1.21584e-23 1
    outer loop
      vertex 11.7924 15.0117 -3.92819e-16
      vertex 11.5 20.8 -4.28626e-16
      vertex 11.7181 15.1696 -4.01921e-16
    endloop
  endfacet
  facet normal -1.22464e-16 7.42071e-24 1
    outer loop
      vertex 11.7181 15.1696 -4.01921e-16
      vertex 11.5 20.8 -4.28626e-16
      vertex 11.6245 15.317 -4.13375e-16
    endloop
  endfacet
  facet normal -1.22465e-16 0 1
    outer loop
      vertex 11.5 20.8 -4.28626e-16
      vertex 15 29 0
      vertex 11.5 29 -4.28626e-16
    endloop
  endfacet
  facet normal -1.22465e-16 3.71468e-25 1
    outer loop
      vertex 11.6245 15.317 -4.13375e-16
      vertex 11.5 20.8 -4.28626e-16
      vertex 11.5133 15.4515 -4.27002e-16
    endloop
  endfacet
  facet normal -1.22465e-16 7.84976e-25 1
    outer loop
      vertex 11.5 20.8 -4.28626e-16
      vertex 11.386 15.571 -4.42585e-16
      vertex 11.5133 15.4515 -4.27002e-16
    endloop
  endfacet
  facet normal -1.22465e-16 7.54265e-24 1
    outer loop
      vertex 11.5 20.8 -4.28626e-16
      vertex 11.2448 15.6736 -4.59879e-16
      vertex 11.386 15.571 -4.42585e-16
    endloop
  endfacet
  facet normal -1.22465e-16 -4.45874e-24 1
    outer loop
      vertex 11.5 20.8 -4.28626e-16
      vertex 11.0918 15.7577 -4.78612e-16
      vertex 11.2448 15.6736 -4.59879e-16
    endloop
  endfacet
  facet normal -1.22464e-16 -1.92069e-23 1
    outer loop
      vertex 11.5 20.8 -4.28626e-16
      vertex 10.9295 15.822 -4.98488e-16
      vertex 11.0918 15.7577 -4.78612e-16
    endloop
  endfacet
  facet normal -1.22465e-16 1.91039e-23 1
    outer loop
      vertex 11.5 20.8 -4.28626e-16
      vertex 10.7605 15.8654 -5.19194e-16
      vertex 10.9295 15.822 -4.98488e-16
    endloop
  endfacet
  facet normal -1.22465e-16 -2.58928e-23 1
    outer loop
      vertex 11.5 20.8 -4.28626e-16
      vertex 10.5873 15.8873 -5.40402e-16
      vertex 10.7605 15.8654 -5.19194e-16
    endloop
  endfacet
  facet normal -1.22465e-16 5.17257e-24 1
    outer loop
      vertex 11.5 20.8 -4.28626e-16
      vertex 10.4127 15.8873 -5.6178e-16
      vertex 10.5873 15.8873 -5.40402e-16
    endloop
  endfacet
  facet normal -1.22465e-16 1.27012e-24 1
    outer loop
      vertex 9.5 20.8 -6.73556e-16
      vertex 10.4127 15.8873 -5.6178e-16
      vertex 11.5 20.8 -4.28626e-16
    endloop
  endfacet
  facet normal -1.22465e-16 -2.65034e-23 1
    outer loop
      vertex 10.4127 15.8873 -5.6178e-16
      vertex 9.5 20.8 -6.73556e-16
      vertex 10.2395 15.8654 -5.82988e-16
    endloop
  endfacet
  facet normal -1.22465e-16 1.87885e-23 1
    outer loop
      vertex 10.2395 15.8654 -5.82988e-16
      vertex 9.5 20.8 -6.73556e-16
      vertex 10.0705 15.822 -6.03694e-16
    endloop
  endfacet
  facet normal -1.22465e-16 -1.35607e-23 1
    outer loop
      vertex 10.0705 15.822 -6.03694e-16
      vertex 9.5 20.8 -6.73556e-16
      vertex 9.90817 15.7577 -6.2357e-16
    endloop
  endfacet
  facet normal -1.22465e-16 -2.6391e-24 1
    outer loop
      vertex 9.90817 15.7577 -6.2357e-16
      vertex 9.5 20.8 -6.73556e-16
      vertex 9.7552 15.6736 -6.42303e-16
    endloop
  endfacet
  facet normal -1.22465e-16 3.43023e-24 1
    outer loop
      vertex 9.7552 15.6736 -6.42303e-16
      vertex 9.5 20.8 -6.73556e-16
      vertex 9.61398 15.571 -6.59597e-16
    endloop
  endfacet
  facet normal -1.22465e-16 2.1306e-24 1
    outer loop
      vertex 9.61398 15.571 -6.59597e-16
      vertex 9.5 20.8 -6.73556e-16
      vertex 9.48673 15.4515 -6.7518e-16
    endloop
  endfacet
  facet normal -1.22465e-16 5.56042e-24 1
    outer loop
      vertex 11.879 14.3258 -3.82207e-16
      vertex 15 0 0
      vertex 11.89 14.5 -3.80865e-16
    endloop
  endfacet
  facet normal -1.22465e-16 -3.92319e-23 1
    outer loop
      vertex 11.8463 14.1543 -3.86213e-16
      vertex 15 0 0
      vertex 11.879 14.3258 -3.82207e-16
    endloop
  endfacet
  facet normal -1.22464e-16 -1.90141e-23 1
    outer loop
      vertex 11.5 8.2 -4.28626e-16
      vertex 11.8463 14.1543 -3.86213e-16
      vertex 11.7924 13.9883 -3.92819e-16
    endloop
  endfacet
  facet normal -1.22465e-16 1.21584e-23 1
    outer loop
      vertex 11.5 8.2 -4.28626e-16
      vertex 11.7924 13.9883 -3.92819e-16
      vertex 11.7181 13.8304 -4.01921e-16
    endloop
  endfacet
  facet normal -1.22464e-16 -7.42071e-24 1
    outer loop
      vertex 11.5 8.2 -4.28626e-16
      vertex 11.7181 13.8304 -4.01921e-16
      vertex 11.6245 13.683 -4.13375e-16
    endloop
  endfacet
  facet normal -1.22465e-16 -3.71468e-25 1
    outer loop
      vertex 11.5 8.2 -4.28626e-16
      vertex 11.6245 13.683 -4.13375e-16
      vertex 11.5133 13.5485 -4.27002e-16
    endloop
  endfacet
  facet normal -1.22465e-16 4.18938e-25 1
    outer loop
      vertex 11.8463 14.1543 -3.86213e-16
      vertex 11.5 8.2 -4.28626e-16
      vertex 15 0 0
    endloop
  endfacet
  facet normal -1.22465e-16 0 1
    outer loop
      vertex 15 0 0
      vertex 11.5 8.2 -4.28626e-16
      vertex 11.5 0 -4.28626e-16
    endloop
  endfacet
  facet normal 0 -1 0
    outer loop
      vertex 9.5 0 1.75
      vertex 11.5 0 -4.28626e-16
      vertex 11.5 0 1.75
    endloop
  endfacet
  facet normal -0 -1 0
    outer loop
      vertex 11.5 0 -4.28626e-16
      vertex 9.5 0 1.75
      vertex 9.5 0 -6.73556e-16
    endloop
  endfacet
  facet normal 0 -1 0
    outer loop
      vertex 6 0 -1.75
      vertex 9.5 0 -6.73556e-16
      vertex 6 0 -1.10218e-15
    endloop
  endfacet
  facet normal 0 -1 -0
    outer loop
      vertex 9.5 0 -6.73556e-16
      vertex 6 0 -1.75
      vertex 11.5 0 -4.28626e-16
    endloop
  endfacet
  facet normal 0 -1 0
    outer loop
      vertex 15 0 -1.75
      vertex 11.5 0 -4.28626e-16
      vertex 6 0 -1.75
    endloop
  endfacet
  facet normal 0 -1 0
    outer loop
      vertex 11.5 0 -4.28626e-16
      vertex 15 0 -1.75
      vertex 15 0 0
    endloop
  endfacet
  facet normal 0 1 0
    outer loop
      vertex 6 29 -1.75
      vertex 9.5 29 -6.73556e-16
      vertex 11.5 29 -4.28626e-16
    endloop
  endfacet
  facet normal 0 1 -0
    outer loop
      vertex 15 29 -1.75
      vertex 11.5 29 -4.28626e-16
      vertex 15 29 0
    endloop
  endfacet
  facet normal 0 1 0
    outer loop
      vertex 6 29 -1.75
      vertex 11.5 29 -4.28626e-16
      vertex 15 29 -1.75
    endloop
  endfacet
  facet normal 0 1 0
    outer loop
      vertex 9.5 29 -6.73556e-16
      vertex 6 29 -1.75
      vertex 6 29 -1.10218e-15
    endloop
  endfacet
  facet normal 0 1 -0
    outer loop
      vertex 11.5 29 -4.28626e-16
      vertex 9.5 29 1.75
      vertex 11.5 29 1.75
    endloop
  endfacet
  facet normal 0 1 0
    outer loop
      vertex 9.5 29 1.75
      vertex 11.5 29 -4.28626e-16
      vertex 9.5 29 -6.73556e-16
    endloop
  endfacet
  facet normal 1 -0 0
    outer loop
      vertex 11.5 0 1.75
      vertex 11.5 8.2 -4.28626e-16
      vertex 11.5 8.2 1.75
    endloop
  endfacet
  facet normal 1 0 0
    outer loop
      vertex 11.5 8.2 -4.28626e-16
      vertex 11.5 0 1.75
      vertex 11.5 0 -4.28626e-16
    endloop
  endfacet
  facet normal -1 0 0
    outer loop
      vertex 9.5 0 -6.73556e-16
      vertex 9.5 8.2 1.75
      vertex 9.5 8.2 -6.73556e-16
    endloop
  endfacet
  facet normal -1 -0 0
    outer loop
      vertex 9.5 8.2 1.75
      vertex 9.5 0 -6.73556e-16
      vertex 9.5 0 1.75
    endloop
  endfacet
  facet normal 0 1 -0
    outer loop
      vertex 11.5 8.2 -4.28626e-16
      vertex 9.5 8.2 1.75
      vertex 11.5 8.2 1.75
    endloop
  endfacet
  facet normal 0 1 0
    outer loop
      vertex 9.5 8.2 1.75
      vertex 11.5 8.2 -4.28626e-16
      vertex 9.5 8.2 -6.73556e-16
    endloop
  endfacet
  facet normal -0 0 1
    outer loop
      vertex 9.5 8.2 1.75
      vertex 11.5 0 1.75
      vertex 11.5 8.2 1.75
    endloop
  endfacet
  facet normal 0 0 1
    outer loop
      vertex 11.5 0 1.75
      vertex 9.5 8.2 1.75
      vertex 9.5 0 1.75
    endloop
  endfacet
  facet normal 1 -0 0
    outer loop
      vertex 11.5 20.8 1.75
      vertex 11.5 29 -4.28626e-16
      vertex 11.5 29 1.75
    endloop
  endfacet
  facet normal 1 0 0
    outer loop
      vertex 11.5 29 -4.28626e-16
      vertex 11.5 20.8 1.75
      vertex 11.5 20.8 -4.28626e-16
    endloop
  endfacet
  facet normal -1 0 0
    outer loop
      vertex 9.5 20.8 -6.73556e-16
      vertex 9.5 29 1.75
      vertex 9.5 29 -6.73556e-16
    endloop
  endfacet
  facet normal -1 -0 0
    outer loop
      vertex 9.5 29 1.75
      vertex 9.5 20.8 -6.73556e-16
      vertex 9.5 20.8 1.75
    endloop
  endfacet
  facet normal -0 0 1
    outer loop
      vertex 9.5 29 1.75
      vertex 11.5 20.8 1.75
      vertex 11.5 29 1.75
    endloop
  endfacet
  facet normal 0 0 1
    outer loop
      vertex 11.5 20.8 1.75
      vertex 9.5 29 1.75
      vertex 9.5 20.8 1.75
    endloop
  endfacet
  facet normal 0 -1 0
    outer loop
      vertex 9.5 20.8 1.75
      vertex 11.5 20.8 -4.28626e-16
      vertex 11.5 20.8 1.75
    endloop
  endfacet
  facet normal -0 -1 0
    outer loop
      vertex 11.5 20.8 -4.28626e-16
      vertex 9.5 20.8 1.75
      vertex 9.5 20.8 -6.73556e-16
    endloop
  endfacet
  facet normal 0.998027 -0.0627909 0
    outer loop
      vertex 9.11 14.5 -7.21317e-16
      vertex 9.12096 14.6742 -1.75
      vertex 9.12096 14.6742 -7.19975e-16
    endloop
  endfacet
  facet normal 0.998027 -0.0627909 0
    outer loop
      vertex 9.12096 14.6742 -1.75
      vertex 9.11 14.5 -7.21317e-16
      vertex 9.11 14.5 -1.75
    endloop
  endfacet
  facet normal 0 -1 0
    outer loop
      vertex 10.4127 15.8873 -1.75
      vertex 10.5873 15.8873 -5.40402e-16
      vertex 10.4127 15.8873 -5.6178e-16
    endloop
  endfacet
  facet normal 0 -1 -0
    outer loop
      vertex 10.5873 15.8873 -5.40402e-16
      vertex 10.4127 15.8873 -1.75
      vertex 10.5873 15.8873 -1.75
    endloop
  endfacet
  facet normal 0.684546 -0.728969 0
    outer loop
      vertex 9.48673 15.4515 -1.75
      vertex 9.61398 15.571 -6.59597e-16
      vertex 9.48673 15.4515 -6.7518e-16
    endloop
  endfacet
  facet normal 0.684546 -0.728969 0
    outer loop
      vertex 9.61398 15.571 -6.59597e-16
      vertex 9.48673 15.4515 -1.75
      vertex 9.61398 15.571 -1.75
    endloop
  endfacet
  facet normal -0.770513 -0.637425 0
    outer loop
      vertex 11.6245 15.317 -1.75
      vertex 11.5133 15.4515 -4.27002e-16
      vertex 11.5133 15.4515 -1.75
    endloop
  endfacet
  facet normal -0.770513 -0.637425 0
    outer loop
      vertex 11.5133 15.4515 -4.27002e-16
      vertex 11.6245 15.317 -1.75
      vertex 11.6245 15.317 -4.13375e-16
    endloop
  endfacet
  facet normal -0.368122 -0.929778 0
    outer loop
      vertex 10.9295 15.822 -1.75
      vertex 11.0918 15.7577 -4.78612e-16
      vertex 10.9295 15.822 -4.98488e-16
    endloop
  endfacet
  facet normal -0.368122 -0.929778 -0
    outer loop
      vertex 11.0918 15.7577 -4.78612e-16
      vertex 10.9295 15.822 -1.75
      vertex 11.0918 15.7577 -1.75
    endloop
  endfacet
  facet normal 0.904827 -0.425779 0
    outer loop
      vertex 9.20761 15.0117 -7.09363e-16
      vertex 9.28193 15.1696 -1.75
      vertex 9.28193 15.1696 -7.00261e-16
    endloop
  endfacet
  facet normal 0.904827 -0.425779 0
    outer loop
      vertex 9.28193 15.1696 -1.75
      vertex 9.20761 15.0117 -7.09363e-16
      vertex 9.20761 15.0117 -1.75
    endloop
  endfacet
  facet normal 0.368122 -0.929778 0
    outer loop
      vertex 9.90817 15.7577 -1.75
      vertex 10.0705 15.822 -6.03694e-16
      vertex 9.90817 15.7577 -6.2357e-16
    endloop
  endfacet
  facet normal 0.368122 -0.929778 0
    outer loop
      vertex 10.0705 15.822 -6.03694e-16
      vertex 9.90817 15.7577 -1.75
      vertex 10.0705 15.822 -1.75
    endloop
  endfacet
  facet normal 0.481756 -0.876305 0
    outer loop
      vertex 9.7552 15.6736 -1.75
      vertex 9.90817 15.7577 -6.2357e-16
      vertex 9.7552 15.6736 -6.42303e-16
    endloop
  endfacet
  facet normal 0.481756 -0.876305 0
    outer loop
      vertex 9.90817 15.7577 -6.2357e-16
      vertex 9.7552 15.6736 -1.75
      vertex 9.90817 15.7577 -1.75
    endloop
  endfacet
  facet normal -0.951058 -0.309014 0
    outer loop
      vertex 11.8463 14.8457 -1.75
      vertex 11.7924 15.0117 -3.92819e-16
      vertex 11.7924 15.0117 -1.75
    endloop
  endfacet
  facet normal -0.951058 -0.309014 0
    outer loop
      vertex 11.7924 15.0117 -3.92819e-16
      vertex 11.8463 14.8457 -1.75
      vertex 11.8463 14.8457 -3.86213e-16
    endloop
  endfacet
  facet normal -0.982287 -0.187383 0
    outer loop
      vertex 11.879 14.6742 -1.75
      vertex 11.8463 14.8457 -3.86213e-16
      vertex 11.8463 14.8457 -1.75
    endloop
  endfacet
  facet normal -0.982287 -0.187383 0
    outer loop
      vertex 11.8463 14.8457 -3.86213e-16
      vertex 11.879 14.6742 -1.75
      vertex 11.879 14.6742 -3.82207e-16
    endloop
  endfacet
  facet normal -0.248688 -0.968584 0
    outer loop
      vertex 10.7605 15.8654 -1.75
      vertex 10.9295 15.822 -4.98488e-16
      vertex 10.7605 15.8654 -5.19194e-16
    endloop
  endfacet
  facet normal -0.248688 -0.968584 -0
    outer loop
      vertex 10.9295 15.822 -4.98488e-16
      vertex 10.7605 15.8654 -1.75
      vertex 10.9295 15.822 -1.75
    endloop
  endfacet
  facet normal 0.982287 0.187383 0
    outer loop
      vertex 9.15367 14.1543 -7.15969e-16
      vertex 9.12096 14.3258 -1.75
      vertex 9.12096 14.3258 -7.19975e-16
    endloop
  endfacet
  facet normal 0.982287 0.187383 0
    outer loop
      vertex 9.12096 14.3258 -1.75
      vertex 9.15367 14.1543 -7.15969e-16
      vertex 9.15367 14.1543 -1.75
    endloop
  endfacet
  facet normal 0.951058 -0.309014 0
    outer loop
      vertex 9.15367 14.8457 -7.15969e-16
      vertex 9.20761 15.0117 -1.75
      vertex 9.20761 15.0117 -7.09363e-16
    endloop
  endfacet
  facet normal 0.951058 -0.309014 0
    outer loop
      vertex 9.20761 15.0117 -1.75
      vertex 9.15367 14.8457 -7.15969e-16
      vertex 9.15367 14.8457 -1.75
    endloop
  endfacet
  facet normal 0.982287 -0.187383 0
    outer loop
      vertex 9.12096 14.6742 -7.19975e-16
      vertex 9.15367 14.8457 -1.75
      vertex 9.15367 14.8457 -7.15969e-16
    endloop
  endfacet
  facet normal 0.982287 -0.187383 0
    outer loop
      vertex 9.15367 14.8457 -1.75
      vertex 9.12096 14.6742 -7.19975e-16
      vertex 9.12096 14.6742 -1.75
    endloop
  endfacet
  facet normal 0.770513 -0.637425 0
    outer loop
      vertex 9.37547 15.317 -6.88807e-16
      vertex 9.48673 15.4515 -1.75
      vertex 9.48673 15.4515 -6.7518e-16
    endloop
  endfacet
  facet normal 0.770513 -0.637425 0
    outer loop
      vertex 9.48673 15.4515 -1.75
      vertex 9.37547 15.317 -6.88807e-16
      vertex 9.37547 15.317 -1.75
    endloop
  endfacet
  facet normal 0.844327 -0.535828 0
    outer loop
      vertex 9.28193 15.1696 -7.00261e-16
      vertex 9.37547 15.317 -1.75
      vertex 9.37547 15.317 -6.88807e-16
    endloop
  endfacet
  facet normal 0.844327 -0.535828 0
    outer loop
      vertex 9.37547 15.317 -1.75
      vertex 9.28193 15.1696 -7.00261e-16
      vertex 9.28193 15.1696 -1.75
    endloop
  endfacet
  facet normal 0.248688 -0.968584 0
    outer loop
      vertex 10.0705 15.822 -1.75
      vertex 10.2395 15.8654 -5.82988e-16
      vertex 10.0705 15.822 -6.03694e-16
    endloop
  endfacet
  facet normal 0.248688 -0.968584 0
    outer loop
      vertex 10.2395 15.8654 -5.82988e-16
      vertex 10.0705 15.822 -1.75
      vertex 10.2395 15.8654 -1.75
    endloop
  endfacet
  facet normal 0.125335 -0.992114 0
    outer loop
      vertex 10.2395 15.8654 -1.75
      vertex 10.4127 15.8873 -5.6178e-16
      vertex 10.2395 15.8654 -5.82988e-16
    endloop
  endfacet
  facet normal 0.125335 -0.992114 0
    outer loop
      vertex 10.4127 15.8873 -5.6178e-16
      vertex 10.2395 15.8654 -1.75
      vertex 10.4127 15.8873 -1.75
    endloop
  endfacet
  facet normal 0.587787 -0.809015 0
    outer loop
      vertex 9.61398 15.571 -1.75
      vertex 9.7552 15.6736 -6.42303e-16
      vertex 9.61398 15.571 -6.59597e-16
    endloop
  endfacet
  facet normal 0.587787 -0.809015 0
    outer loop
      vertex 9.7552 15.6736 -6.42303e-16
      vertex 9.61398 15.571 -1.75
      vertex 9.7552 15.6736 -1.75
    endloop
  endfacet
  facet normal -0.904827 -0.425779 0
    outer loop
      vertex 11.7924 15.0117 -1.75
      vertex 11.7181 15.1696 -4.01921e-16
      vertex 11.7181 15.1696 -1.75
    endloop
  endfacet
  facet normal -0.904827 -0.425779 0
    outer loop
      vertex 11.7181 15.1696 -4.01921e-16
      vertex 11.7924 15.0117 -1.75
      vertex 11.7924 15.0117 -3.92819e-16
    endloop
  endfacet
  facet normal -0.844327 -0.535828 0
    outer loop
      vertex 11.7181 15.1696 -1.75
      vertex 11.6245 15.317 -4.13375e-16
      vertex 11.6245 15.317 -1.75
    endloop
  endfacet
  facet normal -0.844327 -0.535828 0
    outer loop
      vertex 11.6245 15.317 -4.13375e-16
      vertex 11.7181 15.1696 -1.75
      vertex 11.7181 15.1696 -4.01921e-16
    endloop
  endfacet
  facet normal -0.998027 -0.0627909 0
    outer loop
      vertex 11.89 14.5 -1.75
      vertex 11.879 14.6742 -3.82207e-16
      vertex 11.879 14.6742 -1.75
    endloop
  endfacet
  facet normal -0.998027 -0.0627909 0
    outer loop
      vertex 11.879 14.6742 -3.82207e-16
      vertex 11.89 14.5 -1.75
      vertex 11.89 14.5 -3.80865e-16
    endloop
  endfacet
  facet normal -0.587787 -0.809015 0
    outer loop
      vertex 11.2448 15.6736 -1.75
      vertex 11.386 15.571 -4.42585e-16
      vertex 11.2448 15.6736 -4.59879e-16
    endloop
  endfacet
  facet normal -0.587787 -0.809015 -0
    outer loop
      vertex 11.386 15.571 -4.42585e-16
      vertex 11.2448 15.6736 -1.75
      vertex 11.386 15.571 -1.75
    endloop
  endfacet
  facet normal -0.481756 -0.876305 0
    outer loop
      vertex 11.0918 15.7577 -1.75
      vertex 11.2448 15.6736 -4.59879e-16
      vertex 11.0918 15.7577 -4.78612e-16
    endloop
  endfacet
  facet normal -0.481756 -0.876305 -0
    outer loop
      vertex 11.2448 15.6736 -4.59879e-16
      vertex 11.0918 15.7577 -1.75
      vertex 11.2448 15.6736 -1.75
    endloop
  endfacet
  facet normal -0.684546 -0.728969 0
    outer loop
      vertex 11.386 15.571 -1.75
      vertex 11.5133 15.4515 -4.27002e-16
      vertex 11.386 15.571 -4.42585e-16
    endloop
  endfacet
  facet normal -0.684546 -0.728969 -0
    outer loop
      vertex 11.5133 15.4515 -4.27002e-16
      vertex 11.386 15.571 -1.75
      vertex 11.5133 15.4515 -1.75
    endloop
  endfacet
  facet normal -0.125335 -0.992114 0
    outer loop
      vertex 10.5873 15.8873 -1.75
      vertex 10.7605 15.8654 -5.19194e-16
      vertex 10.5873 15.8873 -5.40402e-16
    endloop
  endfacet
  facet normal -0.125335 -0.992114 -0
    outer loop
      vertex 10.7605 15.8654 -5.19194e-16
      vertex 10.5873 15.8873 -1.75
      vertex 10.7605 15.8654 -1.75
    endloop
  endfacet
  facet normal 0.998027 0.0627905 0
    outer loop
      vertex 9.12096 14.3258 -7.19975e-16
      vertex 9.11 14.5 -1.75
      vertex 9.11 14.5 -7.21317e-16
    endloop
  endfacet
  facet normal 0.998027 0.0627905 0
    outer loop
      vertex 9.11 14.5 -1.75
      vertex 9.12096 14.3258 -7.19975e-16
      vertex 9.12096 14.3258 -1.75
    endloop
  endfacet
  facet normal 0.125335 0.992114 -0
    outer loop
      vertex 10.4127 13.1127 -1.75
      vertex 10.2395 13.1346 -5.82988e-16
      vertex 10.4127 13.1127 -5.6178e-16
    endloop
  endfacet
  facet normal 0.125335 0.992114 0
    outer loop
      vertex 10.2395 13.1346 -5.82988e-16
      vertex 10.4127 13.1127 -1.75
      vertex 10.2395 13.1346 -1.75
    endloop
  endfacet
  facet normal 0.368122 0.929778 -0
    outer loop
      vertex 10.0705 13.178 -1.75
      vertex 9.90817 13.2423 -6.2357e-16
      vertex 10.0705 13.178 -6.03694e-16
    endloop
  endfacet
  facet normal 0.368122 0.929778 0
    outer loop
      vertex 9.90817 13.2423 -6.2357e-16
      vertex 10.0705 13.178 -1.75
      vertex 9.90817 13.2423 -1.75
    endloop
  endfacet
  facet normal 0.684546 0.728969 -0
    outer loop
      vertex 9.61398 13.429 -1.75
      vertex 9.48673 13.5485 -6.7518e-16
      vertex 9.61398 13.429 -6.59597e-16
    endloop
  endfacet
  facet normal 0.684546 0.728969 0
    outer loop
      vertex 9.48673 13.5485 -6.7518e-16
      vertex 9.61398 13.429 -1.75
      vertex 9.48673 13.5485 -1.75
    endloop
  endfacet
  facet normal 0.481756 0.876305 -0
    outer loop
      vertex 9.90817 13.2423 -1.75
      vertex 9.7552 13.3264 -6.42303e-16
      vertex 9.90817 13.2423 -6.2357e-16
    endloop
  endfacet
  facet normal 0.481756 0.876305 0
    outer loop
      vertex 9.7552 13.3264 -6.42303e-16
      vertex 9.90817 13.2423 -1.75
      vertex 9.7552 13.3264 -1.75
    endloop
  endfacet
  facet normal 0.844327 0.535828 0
    outer loop
      vertex 9.37547 13.683 -6.88807e-16
      vertex 9.28193 13.8304 -1.75
      vertex 9.28193 13.8304 -7.00261e-16
    endloop
  endfacet
  facet normal 0.844327 0.535828 0
    outer loop
      vertex 9.28193 13.8304 -1.75
      vertex 9.37547 13.683 -6.88807e-16
      vertex 9.37547 13.683 -1.75
    endloop
  endfacet
  facet normal -0.587787 0.809015 0
    outer loop
      vertex 11.386 13.429 -1.75
      vertex 11.2448 13.3264 -4.59879e-16
      vertex 11.386 13.429 -4.42585e-16
    endloop
  endfacet
  facet normal -0.587787 0.809015 0
    outer loop
      vertex 11.2448 13.3264 -4.59879e-16
      vertex 11.386 13.429 -1.75
      vertex 11.2448 13.3264 -1.75
    endloop
  endfacet
  facet normal -0.368122 0.929778 0
    outer loop
      vertex 11.0918 13.2423 -1.75
      vertex 10.9295 13.178 -4.98488e-16
      vertex 11.0918 13.2423 -4.78612e-16
    endloop
  endfacet
  facet normal -0.368122 0.929778 0
    outer loop
      vertex 10.9295 13.178 -4.98488e-16
      vertex 11.0918 13.2423 -1.75
      vertex 10.9295 13.178 -1.75
    endloop
  endfacet
  facet normal -0.248688 0.968584 0
    outer loop
      vertex 10.9295 13.178 -1.75
      vertex 10.7605 13.1346 -5.19194e-16
      vertex 10.9295 13.178 -4.98488e-16
    endloop
  endfacet
  facet normal -0.248688 0.968584 0
    outer loop
      vertex 10.7605 13.1346 -5.19194e-16
      vertex 10.9295 13.178 -1.75
      vertex 10.7605 13.1346 -1.75
    endloop
  endfacet
  facet normal 0 1 -0
    outer loop
      vertex 10.5873 13.1127 -1.75
      vertex 10.4127 13.1127 -5.6178e-16
      vertex 10.5873 13.1127 -5.40402e-16
    endloop
  endfacet
  facet normal 0 1 0
    outer loop
      vertex 10.4127 13.1127 -5.6178e-16
      vertex 10.5873 13.1127 -1.75
      vertex 10.4127 13.1127 -1.75
    endloop
  endfacet
  facet normal -0.844327 0.535828 0
    outer loop
      vertex 11.6245 13.683 -1.75
      vertex 11.7181 13.8304 -4.01921e-16
      vertex 11.7181 13.8304 -1.75
    endloop
  endfacet
  facet normal -0.844327 0.535828 0
    outer loop
      vertex 11.7181 13.8304 -4.01921e-16
      vertex 11.6245 13.683 -1.75
      vertex 11.6245 13.683 -4.13375e-16
    endloop
  endfacet
  facet normal -0.684546 0.728969 0
    outer loop
      vertex 11.5133 13.5485 -1.75
      vertex 11.386 13.429 -4.42585e-16
      vertex 11.5133 13.5485 -4.27002e-16
    endloop
  endfacet
  facet normal -0.684546 0.728969 0
    outer loop
      vertex 11.386 13.429 -4.42585e-16
      vertex 11.5133 13.5485 -1.75
      vertex 11.386 13.429 -1.75
    endloop
  endfacet
  facet normal -0.904827 0.425779 0
    outer loop
      vertex 11.7181 13.8304 -1.75
      vertex 11.7924 13.9883 -3.92819e-16
      vertex 11.7924 13.9883 -1.75
    endloop
  endfacet
  facet normal -0.904827 0.425779 0
    outer loop
      vertex 11.7924 13.9883 -3.92819e-16
      vertex 11.7181 13.8304 -1.75
      vertex 11.7181 13.8304 -4.01921e-16
    endloop
  endfacet
  facet normal -0.982287 0.187383 0
    outer loop
      vertex 11.8463 14.1543 -1.75
      vertex 11.879 14.3258 -3.82207e-16
      vertex 11.879 14.3258 -1.75
    endloop
  endfacet
  facet normal -0.982287 0.187383 0
    outer loop
      vertex 11.879 14.3258 -3.82207e-16
      vertex 11.8463 14.1543 -1.75
      vertex 11.8463 14.1543 -3.86213e-16
    endloop
  endfacet
  facet normal -0.998027 0.0627905 0
    outer loop
      vertex 11.879 14.3258 -1.75
      vertex 11.89 14.5 -3.80865e-16
      vertex 11.89 14.5 -1.75
    endloop
  endfacet
  facet normal -0.998027 0.0627905 0
    outer loop
      vertex 11.89 14.5 -3.80865e-16
      vertex 11.879 14.3258 -1.75
      vertex 11.879 14.3258 -3.82207e-16
    endloop
  endfacet
  facet normal 0.951058 0.309014 0
    outer loop
      vertex 9.20761 13.9883 -7.09363e-16
      vertex 9.15367 14.1543 -1.75
      vertex 9.15367 14.1543 -7.15969e-16
    endloop
  endfacet
  facet normal 0.951058 0.309014 0
    outer loop
      vertex 9.15367 14.1543 -1.75
      vertex 9.20761 13.9883 -7.09363e-16
      vertex 9.20761 13.9883 -1.75
    endloop
  endfacet
  facet normal 0.248688 0.968584 -0
    outer loop
      vertex 10.2395 13.1346 -1.75
      vertex 10.0705 13.178 -6.03694e-16
      vertex 10.2395 13.1346 -5.82988e-16
    endloop
  endfacet
  facet normal 0.248688 0.968584 0
    outer loop
      vertex 10.0705 13.178 -6.03694e-16
      vertex 10.2395 13.1346 -1.75
      vertex 10.0705 13.178 -1.75
    endloop
  endfacet
  facet normal 0.770513 0.637425 0
    outer loop
      vertex 9.48673 13.5485 -6.7518e-16
      vertex 9.37547 13.683 -1.75
      vertex 9.37547 13.683 -6.88807e-16
    endloop
  endfacet
  facet normal 0.770513 0.637425 0
    outer loop
      vertex 9.37547 13.683 -1.75
      vertex 9.48673 13.5485 -6.7518e-16
      vertex 9.48673 13.5485 -1.75
    endloop
  endfacet
  facet normal 0.587787 0.809015 -0
    outer loop
      vertex 9.7552 13.3264 -1.75
      vertex 9.61398 13.429 -6.59597e-16
      vertex 9.7552 13.3264 -6.42303e-16
    endloop
  endfacet
  facet normal 0.587787 0.809015 0
    outer loop
      vertex 9.61398 13.429 -6.59597e-16
      vertex 9.7552 13.3264 -1.75
      vertex 9.61398 13.429 -1.75
    endloop
  endfacet
  facet normal -0.481756 0.876305 0
    outer loop
      vertex 11.2448 13.3264 -1.75
      vertex 11.0918 13.2423 -4.78612e-16
      vertex 11.2448 13.3264 -4.59879e-16
    endloop
  endfacet
  facet normal -0.481756 0.876305 0
    outer loop
      vertex 11.0918 13.2423 -4.78612e-16
      vertex 11.2448 13.3264 -1.75
      vertex 11.0918 13.2423 -1.75
    endloop
  endfacet
  facet normal -0.125335 0.992114 0
    outer loop
      vertex 10.7605 13.1346 -1.75
      vertex 10.5873 13.1127 -5.40402e-16
      vertex 10.7605 13.1346 -5.19194e-16
    endloop
  endfacet
  facet normal -0.125335 0.992114 0
    outer loop
      vertex 10.5873 13.1127 -5.40402e-16
      vertex 10.7605 13.1346 -1.75
      vertex 10.5873 13.1127 -1.75
    endloop
  endfacet
  facet normal -0.770513 0.637425 0
    outer loop
      vertex 11.5133 13.5485 -1.75
      vertex 11.6245 13.683 -4.13375e-16
      vertex 11.6245 13.683 -1.75
    endloop
  endfacet
  facet normal -0.770513 0.637425 0
    outer loop
      vertex 11.6245 13.683 -4.13375e-16
      vertex 11.5133 13.5485 -1.75
      vertex 11.5133 13.5485 -4.27002e-16
    endloop
  endfacet
  facet normal -0.951058 0.309014 0
    outer loop
      vertex 11.7924 13.9883 -1.75
      vertex 11.8463 14.1543 -3.86213e-16
      vertex 11.8463 14.1543 -1.75
    endloop
  endfacet
  facet normal -0.951058 0.309014 0
    outer loop
      vertex 11.8463 14.1543 -3.86213e-16
      vertex 11.7924 13.9883 -1.75
      vertex 11.7924 13.9883 -3.92819e-16
    endloop
  endfacet
  facet normal 0.904827 0.425779 0
    outer loop
      vertex 9.28193 13.8304 -7.00261e-16
      vertex 9.20761 13.9883 -1.75
      vertex 9.20761 13.9883 -7.09363e-16
    endloop
  endfacet
  facet normal 0.904827 0.425779 0
    outer loop
      vertex 9.20761 13.9883 -1.75
      vertex 9.28193 13.8304 -7.00261e-16
      vertex 9.28193 13.8304 -1.75
    endloop
  endfacet
endsolid OpenSCAD_Model
