solid OpenSCAD_Model
  facet normal -1 0 0
    outer loop
      vertex 0 0 0
      vertex 0 37 3.5
      vertex 0 37 0
    endloop
  endfacet
  facet normal -1 -0 0
    outer loop
      vertex 0 37 3.5
      vertex 0 0 0
      vertex 0 0 3.5
    endloop
  endfacet
  facet normal 0 0 1
    outer loop
      vertex 21.3482 31.4662 3
      vertex 25 37 3
      vertex 21.4044 31.6394 3
    endloop
  endfacet
  facet normal 0 0 1
    outer loop
      vertex 25 0 3
      vertex 21.4386 5.18173 3
      vertex 21.45 5 3
    endloop
  endfacet
  facet normal 0 0 1
    outer loop
      vertex 21.2706 31.3015 3
      vertex 25 37 3
      vertex 21.3482 31.4662 3
    endloop
  endfacet
  facet normal 0 0 1
    outer loop
      vertex 25 0 3
      vertex 21.4044 5.3606 3
      vertex 21.4386 5.18173 3
    endloop
  endfacet
  facet normal 0 0 1
    outer loop
      vertex 25 37 3
      vertex 21.2706 31.3015 3
      vertex 25 0 3
    endloop
  endfacet
  facet normal 0 0 1
    outer loop
      vertex 25 0 3
      vertex 21.3482 5.53378 3
      vertex 21.4044 5.3606 3
    endloop
  endfacet
  facet normal -0 0 1
    outer loop
      vertex 21.2706 5.69854 3
      vertex 25 0 3
      vertex 21.2706 31.3015 3
    endloop
  endfacet
  facet normal 0 0 1
    outer loop
      vertex 25 0 3
      vertex 21.2706 5.69854 3
      vertex 21.3482 5.53378 3
    endloop
  endfacet
  facet normal -0 0 1
    outer loop
      vertex 21.1731 31.1477 3
      vertex 21.2706 5.69854 3
      vertex 21.2706 31.3015 3
    endloop
  endfacet
  facet normal 0 0 1
    outer loop
      vertex 21.1731 31.1477 3
      vertex 21.1731 5.85229 3
      vertex 21.2706 5.69854 3
    endloop
  endfacet
  facet normal -0 0 1
    outer loop
      vertex 21.057 31.0074 3
      vertex 21.1731 5.85229 3
      vertex 21.1731 31.1477 3
    endloop
  endfacet
  facet normal 0 0 1
    outer loop
      vertex 21.057 31.0074 3
      vertex 21.057 5.99259 3
      vertex 21.1731 5.85229 3
    endloop
  endfacet
  facet normal -0 0 1
    outer loop
      vertex 20.9243 30.8828 3
      vertex 21.057 5.99259 3
      vertex 21.057 31.0074 3
    endloop
  endfacet
  facet normal 0 0 1
    outer loop
      vertex 20.9243 30.8828 3
      vertex 20.9243 6.11724 3
      vertex 21.057 5.99259 3
    endloop
  endfacet
  facet normal -0 0 1
    outer loop
      vertex 20.7769 30.7757 3
      vertex 20.9243 6.11724 3
      vertex 20.9243 30.8828 3
    endloop
  endfacet
  facet normal 0 0 1
    outer loop
      vertex 20.7769 30.7757 3
      vertex 20.7769 6.22427 3
      vertex 20.9243 6.11724 3
    endloop
  endfacet
  facet normal -0 0 1
    outer loop
      vertex 20.6174 30.688 3
      vertex 20.7769 6.22427 3
      vertex 20.7769 30.7757 3
    endloop
  endfacet
  facet normal 0 0 1
    outer loop
      vertex 20.6174 30.688 3
      vertex 20.6174 6.312 3
      vertex 20.7769 6.22427 3
    endloop
  endfacet
  facet normal -0 0 1
    outer loop
      vertex 20.4481 30.621 3
      vertex 20.6174 6.312 3
      vertex 20.6174 30.688 3
    endloop
  endfacet
  facet normal 0 0 1
    outer loop
      vertex 20.4481 30.621 3
      vertex 20.4481 6.37903 3
      vertex 20.6174 6.312 3
    endloop
  endfacet
  facet normal -0 0 1
    outer loop
      vertex 20.2717 30.5757 3
      vertex 20.4481 6.37903 3
      vertex 20.4481 30.621 3
    endloop
  endfacet
  facet normal 0 0 1
    outer loop
      vertex 20.2717 30.5757 3
      vertex 20.2717 6.42432 3
      vertex 20.4481 6.37903 3
    endloop
  endfacet
  facet normal -0 0 1
    outer loop
      vertex 20.091 30.5529 3
      vertex 20.2717 6.42432 3
      vertex 20.2717 30.5757 3
    endloop
  endfacet
  facet normal 0 0 1
    outer loop
      vertex 20.091 30.5529 3
      vertex 20.091 6.44714 3
      vertex 20.2717 6.42432 3
    endloop
  endfacet
  facet normal -0 0 1
    outer loop
      vertex 19.909 30.5529 3
      vertex 20.091 6.44714 3
      vertex 20.091 30.5529 3
    endloop
  endfacet
  facet normal 0 0 1
    outer loop
      vertex 19.909 30.5529 3
      vertex 19.909 6.44714 3
      vertex 20.091 6.44714 3
    endloop
  endfacet
  facet normal 0 0 1
    outer loop
      vertex 19.7283 30.5757 3
      vertex 19.909 6.44714 3
      vertex 19.909 30.5529 3
    endloop
  endfacet
  facet normal 0 0 1
    outer loop
      vertex 19.7283 30.5757 3
      vertex 19.7283 6.42432 3
      vertex 19.909 6.44714 3
    endloop
  endfacet
  facet normal 0 0 1
    outer loop
      vertex 19.5519 30.621 3
      vertex 19.7283 6.42432 3
      vertex 19.7283 30.5757 3
    endloop
  endfacet
  facet normal 0 0 1
    outer loop
      vertex 19.5519 30.621 3
      vertex 19.5519 6.37903 3
      vertex 19.7283 6.42432 3
    endloop
  endfacet
  facet normal 0 0 1
    outer loop
      vertex 19.3826 30.688 3
      vertex 19.5519 6.37903 3
      vertex 19.5519 30.621 3
    endloop
  endfacet
  facet normal 0 0 1
    outer loop
      vertex 19.3826 30.688 3
      vertex 19.3826 6.312 3
      vertex 19.5519 6.37903 3
    endloop
  endfacet
  facet normal 0 0 1
    outer loop
      vertex 19.2231 30.7757 3
      vertex 19.3826 6.312 3
      vertex 19.3826 30.688 3
    endloop
  endfacet
  facet normal 0 0 1
    outer loop
      vertex 19.2231 30.7757 3
      vertex 19.2231 6.22427 3
      vertex 19.3826 6.312 3
    endloop
  endfacet
  facet normal 0 0 1
    outer loop
      vertex 19.0757 30.8828 3
      vertex 19.2231 6.22427 3
      vertex 19.2231 30.7757 3
    endloop
  endfacet
  facet normal 0 0 1
    outer loop
      vertex 19.0757 30.8828 3
      vertex 19.0757 6.11724 3
      vertex 19.2231 6.22427 3
    endloop
  endfacet
  facet normal 0 0 1
    outer loop
      vertex 18.943 31.0074 3
      vertex 19.0757 6.11724 3
      vertex 19.0757 30.8828 3
    endloop
  endfacet
  facet normal 0 0 1
    outer loop
      vertex 18.943 31.0074 3
      vertex 18.943 5.99259 3
      vertex 19.0757 6.11724 3
    endloop
  endfacet
  facet normal 0 0 1
    outer loop
      vertex 18.8269 31.1477 3
      vertex 18.943 5.99259 3
      vertex 18.943 31.0074 3
    endloop
  endfacet
  facet normal 0 0 1
    outer loop
      vertex 18.8269 31.1477 3
      vertex 18.8269 5.85229 3
      vertex 18.943 5.99259 3
    endloop
  endfacet
  facet normal 0 0 1
    outer loop
      vertex 18.7294 31.3015 3
      vertex 18.8269 5.85229 3
      vertex 18.8269 31.1477 3
    endloop
  endfacet
  facet normal 0 0 1
    outer loop
      vertex 18.7294 31.3015 3
      vertex 18.7294 5.69854 3
      vertex 18.8269 5.85229 3
    endloop
  endfacet
  facet normal 0 0 1
    outer loop
      vertex 14 37 3
      vertex 18.7294 31.3015 3
      vertex 18.6518 31.4662 3
    endloop
  endfacet
  facet normal 0 0 1
    outer loop
      vertex 18.7294 31.3015 3
      vertex 14 37 3
      vertex 18.7294 5.69854 3
    endloop
  endfacet
  facet normal 0 0 1
    outer loop
      vertex 14 37 3
      vertex 18.6518 31.4662 3
      vertex 18.5956 31.6394 3
    endloop
  endfacet
  facet normal 0 0 1
    outer loop
      vertex 14 0 3
      vertex 18.7294 5.69854 3
      vertex 14 37 3
    endloop
  endfacet
  facet normal 0 0 1
    outer loop
      vertex 14 37 3
      vertex 18.5956 31.6394 3
      vertex 18.5614 31.8183 3
    endloop
  endfacet
  facet normal 0 0 1
    outer loop
      vertex 18.7294 5.69854 3
      vertex 14 0 3
      vertex 18.6518 5.53378 3
    endloop
  endfacet
  facet normal 0 0 1
    outer loop
      vertex 14 37 3
      vertex 18.5614 31.8183 3
      vertex 18.55 32 3
    endloop
  endfacet
  facet normal 0 0 1
    outer loop
      vertex 18.6518 5.53378 3
      vertex 14 0 3
      vertex 18.5956 5.3606 3
    endloop
  endfacet
  facet normal 0 0 1
    outer loop
      vertex 21.4386 31.8183 3
      vertex 25 37 3
      vertex 21.45 32 3
    endloop
  endfacet
  facet normal 0 0 1
    outer loop
      vertex 25 37 3
      vertex 21.4386 32.1817 3
      vertex 21.45 32 3
    endloop
  endfacet
  facet normal 0 0 1
    outer loop
      vertex 25 37 3
      vertex 21.4044 32.3606 3
      vertex 21.4386 32.1817 3
    endloop
  endfacet
  facet normal 0 0 1
    outer loop
      vertex 25 37 3
      vertex 21.3482 32.5338 3
      vertex 21.4044 32.3606 3
    endloop
  endfacet
  facet normal 0 0 1
    outer loop
      vertex 25 37 3
      vertex 21.2706 32.6985 3
      vertex 21.3482 32.5338 3
    endloop
  endfacet
  facet normal 0 0 1
    outer loop
      vertex 25 37 3
      vertex 21.1731 32.8523 3
      vertex 21.2706 32.6985 3
    endloop
  endfacet
  facet normal 0 0 1
    outer loop
      vertex 25 37 3
      vertex 21.057 32.9926 3
      vertex 21.1731 32.8523 3
    endloop
  endfacet
  facet normal 0 0 1
    outer loop
      vertex 25 37 3
      vertex 20.9243 33.1172 3
      vertex 21.057 32.9926 3
    endloop
  endfacet
  facet normal 0 0 1
    outer loop
      vertex 25 37 3
      vertex 20.7769 33.2243 3
      vertex 20.9243 33.1172 3
    endloop
  endfacet
  facet normal 0 0 1
    outer loop
      vertex 25 37 3
      vertex 20.6174 33.312 3
      vertex 20.7769 33.2243 3
    endloop
  endfacet
  facet normal 0 0 1
    outer loop
      vertex 25 37 3
      vertex 20.4481 33.379 3
      vertex 20.6174 33.312 3
    endloop
  endfacet
  facet normal 0 0 1
    outer loop
      vertex 25 37 3
      vertex 20.2717 33.4243 3
      vertex 20.4481 33.379 3
    endloop
  endfacet
  facet normal 0 0 1
    outer loop
      vertex 25 37 3
      vertex 20.091 33.4471 3
      vertex 20.2717 33.4243 3
    endloop
  endfacet
  facet normal 0 0 1
    outer loop
      vertex 25 37 3
      vertex 19.909 33.4471 3
      vertex 20.091 33.4471 3
    endloop
  endfacet
  facet normal -0 0 1
    outer loop
      vertex 14 37 3
      vertex 19.909 33.4471 3
      vertex 25 37 3
    endloop
  endfacet
  facet normal 0 0 1
    outer loop
      vertex 19.909 33.4471 3
      vertex 14 37 3
      vertex 19.7283 33.4243 3
    endloop
  endfacet
  facet normal 0 0 1
    outer loop
      vertex 19.7283 33.4243 3
      vertex 14 37 3
      vertex 19.5519 33.379 3
    endloop
  endfacet
  facet normal 0 0 1
    outer loop
      vertex 19.5519 33.379 3
      vertex 14 37 3
      vertex 19.3826 33.312 3
    endloop
  endfacet
  facet normal 0 0 1
    outer loop
      vertex 18.5956 5.3606 3
      vertex 14 0 3
      vertex 18.5614 5.18173 3
    endloop
  endfacet
  facet normal 0 0 1
    outer loop
      vertex 18.5614 32.1817 3
      vertex 14 37 3
      vertex 18.55 32 3
    endloop
  endfacet
  facet normal 0 0 1
    outer loop
      vertex 18.5956 32.3606 3
      vertex 14 37 3
      vertex 18.5614 32.1817 3
    endloop
  endfacet
  facet normal 0 0 1
    outer loop
      vertex 18.6518 32.5338 3
      vertex 14 37 3
      vertex 18.5956 32.3606 3
    endloop
  endfacet
  facet normal 0 0 1
    outer loop
      vertex 18.7294 32.6985 3
      vertex 14 37 3
      vertex 18.6518 32.5338 3
    endloop
  endfacet
  facet normal 0 0 1
    outer loop
      vertex 18.8269 32.8523 3
      vertex 14 37 3
      vertex 18.7294 32.6985 3
    endloop
  endfacet
  facet normal 0 0 1
    outer loop
      vertex 18.943 32.9926 3
      vertex 14 37 3
      vertex 18.8269 32.8523 3
    endloop
  endfacet
  facet normal 0 0 1
    outer loop
      vertex 19.0757 33.1172 3
      vertex 14 37 3
      vertex 18.943 32.9926 3
    endloop
  endfacet
  facet normal 0 0 1
    outer loop
      vertex 19.2231 33.2243 3
      vertex 14 37 3
      vertex 19.0757 33.1172 3
    endloop
  endfacet
  facet normal 0 0 1
    outer loop
      vertex 19.3826 33.312 3
      vertex 14 37 3
      vertex 19.2231 33.2243 3
    endloop
  endfacet
  facet normal 0 0 1
    outer loop
      vertex 21.4044 31.6394 3
      vertex 25 37 3
      vertex 21.4386 31.8183 3
    endloop
  endfacet
  facet normal -0 0 1
    outer loop
      vertex 21.4386 4.81827 3
      vertex 25 0 3
      vertex 21.45 5 3
    endloop
  endfacet
  facet normal -0 0 1
    outer loop
      vertex 21.4044 4.6394 3
      vertex 25 0 3
      vertex 21.4386 4.81827 3
    endloop
  endfacet
  facet normal -0 0 1
    outer loop
      vertex 21.3482 4.46622 3
      vertex 25 0 3
      vertex 21.4044 4.6394 3
    endloop
  endfacet
  facet normal -0 0 1
    outer loop
      vertex 21.2706 4.30146 3
      vertex 25 0 3
      vertex 21.3482 4.46622 3
    endloop
  endfacet
  facet normal -0 0 1
    outer loop
      vertex 21.1731 4.14771 3
      vertex 25 0 3
      vertex 21.2706 4.30146 3
    endloop
  endfacet
  facet normal -0 0 1
    outer loop
      vertex 21.057 4.00741 3
      vertex 25 0 3
      vertex 21.1731 4.14771 3
    endloop
  endfacet
  facet normal -0 0 1
    outer loop
      vertex 20.9243 3.88276 3
      vertex 25 0 3
      vertex 21.057 4.00741 3
    endloop
  endfacet
  facet normal -0 0 1
    outer loop
      vertex 20.7769 3.77572 3
      vertex 25 0 3
      vertex 20.9243 3.88276 3
    endloop
  endfacet
  facet normal -0 0 1
    outer loop
      vertex 20.6174 3.688 3
      vertex 25 0 3
      vertex 20.7769 3.77572 3
    endloop
  endfacet
  facet normal -0 0 1
    outer loop
      vertex 20.4481 3.62097 3
      vertex 25 0 3
      vertex 20.6174 3.688 3
    endloop
  endfacet
  facet normal -0 0 1
    outer loop
      vertex 20.2717 3.57568 3
      vertex 25 0 3
      vertex 20.4481 3.62097 3
    endloop
  endfacet
  facet normal -0 0 1
    outer loop
      vertex 20.091 3.55286 3
      vertex 25 0 3
      vertex 20.2717 3.57568 3
    endloop
  endfacet
  facet normal -0 0 1
    outer loop
      vertex 19.909 3.55286 3
      vertex 25 0 3
      vertex 20.091 3.55286 3
    endloop
  endfacet
  facet normal 0 0 1
    outer loop
      vertex 14 0 3
      vertex 19.909 3.55286 3
      vertex 19.7283 3.57568 3
    endloop
  endfacet
  facet normal 0 0 1
    outer loop
      vertex 14 0 3
      vertex 19.7283 3.57568 3
      vertex 19.5519 3.62097 3
    endloop
  endfacet
  facet normal 0 0 1
    outer loop
      vertex 14 0 3
      vertex 19.5519 3.62097 3
      vertex 19.3826 3.688 3
    endloop
  endfacet
  facet normal 0 0 1
    outer loop
      vertex 14 0 3
      vertex 19.3826 3.688 3
      vertex 19.2231 3.77572 3
    endloop
  endfacet
  facet normal 0 0 1
    outer loop
      vertex 18.5614 5.18173 3
      vertex 14 0 3
      vertex 18.55 5 3
    endloop
  endfacet
  facet normal 0 0 1
    outer loop
      vertex 19.909 3.55286 3
      vertex 14 0 3
      vertex 25 0 3
    endloop
  endfacet
  facet normal 0 0 1
    outer loop
      vertex 19.0757 3.88276 3
      vertex 14 0 3
      vertex 19.2231 3.77572 3
    endloop
  endfacet
  facet normal 0 0 1
    outer loop
      vertex 18.943 4.00741 3
      vertex 14 0 3
      vertex 19.0757 3.88276 3
    endloop
  endfacet
  facet normal 0 0 1
    outer loop
      vertex 18.8269 4.14771 3
      vertex 14 0 3
      vertex 18.943 4.00741 3
    endloop
  endfacet
  facet normal 0 0 1
    outer loop
      vertex 18.7294 4.30146 3
      vertex 14 0 3
      vertex 18.8269 4.14771 3
    endloop
  endfacet
  facet normal 0 0 1
    outer loop
      vertex 18.6518 4.46622 3
      vertex 14 0 3
      vertex 18.7294 4.30146 3
    endloop
  endfacet
  facet normal 0 0 1
    outer loop
      vertex 18.5956 4.6394 3
      vertex 14 0 3
      vertex 18.6518 4.46622 3
    endloop
  endfacet
  facet normal 0 0 1
    outer loop
      vertex 18.5614 4.81827 3
      vertex 14 0 3
      vertex 18.5956 4.6394 3
    endloop
  endfacet
  facet normal 0 0 1
    outer loop
      vertex 18.55 5 3
      vertex 14 0 3
      vertex 18.5614 4.81827 3
    endloop
  endfacet
  facet normal 1 -0 0
    outer loop
      vertex 25 0 3
      vertex 25 37 0
      vertex 25 37 3
    endloop
  endfacet
  facet normal 1 0 0
    outer loop
      vertex 25 37 0
      vertex 25 0 3
      vertex 25 0 0
    endloop
  endfacet
  facet normal 0 1 0
    outer loop
      vertex 25 37 3
      vertex 25 37 0
      vertex 14 37 3
    endloop
  endfacet
  facet normal 0 1 -0
    outer loop
      vertex 14 37 3
      vertex 0 37 3.5
      vertex 14 37 3.5
    endloop
  endfacet
  facet normal 0 1 0
    outer loop
      vertex 0 37 0
      vertex 14 37 3
      vertex 25 37 0
    endloop
  endfacet
  facet normal 0 1 0
    outer loop
      vertex 14 37 3
      vertex 0 37 0
      vertex 0 37 3.5
    endloop
  endfacet
  facet normal 0 0 -1
    outer loop
      vertex 21.3482 5.53378 0
      vertex 25 0 0
      vertex 21.4044 5.3606 0
    endloop
  endfacet
  facet normal 0 0 -1
    outer loop
      vertex 25 37 0
      vertex 21.4386 31.8183 0
      vertex 21.45 32 0
    endloop
  endfacet
  facet normal 0 0 -1
    outer loop
      vertex 21.2706 5.69854 0
      vertex 25 0 0
      vertex 21.3482 5.53378 0
    endloop
  endfacet
  facet normal 0 0 -1
    outer loop
      vertex 25 37 0
      vertex 21.4044 31.6394 0
      vertex 21.4386 31.8183 0
    endloop
  endfacet
  facet normal 0 0 -1
    outer loop
      vertex 25 0 0
      vertex 21.2706 5.69854 0
      vertex 25 37 0
    endloop
  endfacet
  facet normal 0 0 -1
    outer loop
      vertex 25 37 0
      vertex 21.3482 31.4662 0
      vertex 21.4044 31.6394 0
    endloop
  endfacet
  facet normal 0 0 -1
    outer loop
      vertex 21.2706 31.3015 0
      vertex 25 37 0
      vertex 21.2706 5.69854 0
    endloop
  endfacet
  facet normal 0 0 -1
    outer loop
      vertex 25 37 0
      vertex 21.2706 31.3015 0
      vertex 21.3482 31.4662 0
    endloop
  endfacet
  facet normal 0 0 -1
    outer loop
      vertex 21.1731 5.85229 0
      vertex 21.2706 31.3015 0
      vertex 21.2706 5.69854 0
    endloop
  endfacet
  facet normal 0 0 -1
    outer loop
      vertex 21.1731 5.85229 0
      vertex 21.1731 31.1477 0
      vertex 21.2706 31.3015 0
    endloop
  endfacet
  facet normal 0 0 -1
    outer loop
      vertex 21.057 5.99259 0
      vertex 21.1731 31.1477 0
      vertex 21.1731 5.85229 0
    endloop
  endfacet
  facet normal 0 0 -1
    outer loop
      vertex 21.057 5.99259 0
      vertex 21.057 31.0074 0
      vertex 21.1731 31.1477 0
    endloop
  endfacet
  facet normal 0 0 -1
    outer loop
      vertex 20.9243 6.11724 0
      vertex 21.057 31.0074 0
      vertex 21.057 5.99259 0
    endloop
  endfacet
  facet normal 0 0 -1
    outer loop
      vertex 20.9243 6.11724 0
      vertex 20.9243 30.8828 0
      vertex 21.057 31.0074 0
    endloop
  endfacet
  facet normal 0 0 -1
    outer loop
      vertex 20.7769 6.22427 0
      vertex 20.9243 30.8828 0
      vertex 20.9243 6.11724 0
    endloop
  endfacet
  facet normal 0 0 -1
    outer loop
      vertex 20.7769 6.22427 0
      vertex 20.7769 30.7757 0
      vertex 20.9243 30.8828 0
    endloop
  endfacet
  facet normal 0 0 -1
    outer loop
      vertex 20.6174 6.312 0
      vertex 20.7769 30.7757 0
      vertex 20.7769 6.22427 0
    endloop
  endfacet
  facet normal 0 0 -1
    outer loop
      vertex 20.6174 6.312 0
      vertex 20.6174 30.688 0
      vertex 20.7769 30.7757 0
    endloop
  endfacet
  facet normal 0 0 -1
    outer loop
      vertex 20.4481 6.37903 0
      vertex 20.6174 30.688 0
      vertex 20.6174 6.312 0
    endloop
  endfacet
  facet normal 0 0 -1
    outer loop
      vertex 20.4481 6.37903 0
      vertex 20.4481 30.621 0
      vertex 20.6174 30.688 0
    endloop
  endfacet
  facet normal 0 0 -1
    outer loop
      vertex 20.2717 6.42432 0
      vertex 20.4481 30.621 0
      vertex 20.4481 6.37903 0
    endloop
  endfacet
  facet normal 0 0 -1
    outer loop
      vertex 20.2717 6.42432 0
      vertex 20.2717 30.5757 0
      vertex 20.4481 30.621 0
    endloop
  endfacet
  facet normal 0 0 -1
    outer loop
      vertex 20.091 6.44714 0
      vertex 20.2717 30.5757 0
      vertex 20.2717 6.42432 0
    endloop
  endfacet
  facet normal 0 0 -1
    outer loop
      vertex 20.091 6.44714 0
      vertex 20.091 30.5529 0
      vertex 20.2717 30.5757 0
    endloop
  endfacet
  facet normal 0 0 -1
    outer loop
      vertex 19.909 6.44714 0
      vertex 20.091 30.5529 0
      vertex 20.091 6.44714 0
    endloop
  endfacet
  facet normal 0 0 -1
    outer loop
      vertex 19.909 6.44714 0
      vertex 19.909 30.5529 0
      vertex 20.091 30.5529 0
    endloop
  endfacet
  facet normal 0 0 -1
    outer loop
      vertex 19.7283 6.42432 0
      vertex 19.909 30.5529 0
      vertex 19.909 6.44714 0
    endloop
  endfacet
  facet normal 0 0 -1
    outer loop
      vertex 19.7283 6.42432 0
      vertex 19.7283 30.5757 0
      vertex 19.909 30.5529 0
    endloop
  endfacet
  facet normal 0 0 -1
    outer loop
      vertex 19.5519 6.37903 0
      vertex 19.7283 30.5757 0
      vertex 19.7283 6.42432 0
    endloop
  endfacet
  facet normal 0 0 -1
    outer loop
      vertex 19.5519 6.37903 0
      vertex 19.5519 30.621 0
      vertex 19.7283 30.5757 0
    endloop
  endfacet
  facet normal 0 0 -1
    outer loop
      vertex 19.3826 6.312 0
      vertex 19.5519 30.621 0
      vertex 19.5519 6.37903 0
    endloop
  endfacet
  facet normal 0 0 -1
    outer loop
      vertex 19.3826 6.312 0
      vertex 19.3826 30.688 0
      vertex 19.5519 30.621 0
    endloop
  endfacet
  facet normal 0 0 -1
    outer loop
      vertex 19.2231 6.22427 0
      vertex 19.3826 30.688 0
      vertex 19.3826 6.312 0
    endloop
  endfacet
  facet normal 0 0 -1
    outer loop
      vertex 19.2231 6.22427 0
      vertex 19.2231 30.7757 0
      vertex 19.3826 30.688 0
    endloop
  endfacet
  facet normal 0 0 -1
    outer loop
      vertex 19.0757 6.11724 0
      vertex 19.2231 30.7757 0
      vertex 19.2231 6.22427 0
    endloop
  endfacet
  facet normal 0 0 -1
    outer loop
      vertex 19.0757 6.11724 0
      vertex 19.0757 30.8828 0
      vertex 19.2231 30.7757 0
    endloop
  endfacet
  facet normal 0 0 -1
    outer loop
      vertex 18.943 5.99259 0
      vertex 19.0757 30.8828 0
      vertex 19.0757 6.11724 0
    endloop
  endfacet
  facet normal 0 0 -1
    outer loop
      vertex 18.943 5.99259 0
      vertex 18.943 31.0074 0
      vertex 19.0757 30.8828 0
    endloop
  endfacet
  facet normal 0 0 -1
    outer loop
      vertex 0 0 0
      vertex 18.943 5.99259 0
      vertex 18.8269 5.85229 0
    endloop
  endfacet
  facet normal -0 0 -1
    outer loop
      vertex 18.943 5.99259 0
      vertex 0 0 0
      vertex 18.943 31.0074 0
    endloop
  endfacet
  facet normal 0 0 -1
    outer loop
      vertex 0 0 0
      vertex 18.8269 5.85229 0
      vertex 18.7294 5.69854 0
    endloop
  endfacet
  facet normal 0 0 -1
    outer loop
      vertex 0 37 0
      vertex 18.943 31.0074 0
      vertex 0 0 0
    endloop
  endfacet
  facet normal 0 0 -1
    outer loop
      vertex 0 0 0
      vertex 18.7294 5.69854 0
      vertex 18.6518 5.53378 0
    endloop
  endfacet
  facet normal 0 0 -1
    outer loop
      vertex 18.943 31.0074 0
      vertex 0 37 0
      vertex 18.8269 31.1477 0
    endloop
  endfacet
  facet normal 0 0 -1
    outer loop
      vertex 0 0 0
      vertex 18.6518 5.53378 0
      vertex 18.5956 5.3606 0
    endloop
  endfacet
  facet normal 0 0 -1
    outer loop
      vertex 18.8269 31.1477 0
      vertex 0 37 0
      vertex 18.7294 31.3015 0
    endloop
  endfacet
  facet normal 0 0 -1
    outer loop
      vertex 0 0 0
      vertex 18.5956 5.3606 0
      vertex 18.5614 5.18173 0
    endloop
  endfacet
  facet normal 0 0 -1
    outer loop
      vertex 18.7294 31.3015 0
      vertex 0 37 0
      vertex 18.6518 31.4662 0
    endloop
  endfacet
  facet normal 0 0 -1
    outer loop
      vertex 0 0 0
      vertex 18.5614 5.18173 0
      vertex 18.55 5 0
    endloop
  endfacet
  facet normal 0 0 -1
    outer loop
      vertex 18.6518 31.4662 0
      vertex 0 37 0
      vertex 18.5956 31.6394 0
    endloop
  endfacet
  facet normal 0 0 -1
    outer loop
      vertex 21.4386 5.18173 0
      vertex 25 0 0
      vertex 21.45 5 0
    endloop
  endfacet
  facet normal 0 0 -1
    outer loop
      vertex 25 0 0
      vertex 21.4386 4.81827 0
      vertex 21.45 5 0
    endloop
  endfacet
  facet normal 0 0 -1
    outer loop
      vertex 25 0 0
      vertex 21.4044 4.6394 0
      vertex 21.4386 4.81827 0
    endloop
  endfacet
  facet normal 0 0 -1
    outer loop
      vertex 25 0 0
      vertex 21.3482 4.46622 0
      vertex 21.4044 4.6394 0
    endloop
  endfacet
  facet normal 0 0 -1
    outer loop
      vertex 25 0 0
      vertex 21.2706 4.30146 0
      vertex 21.3482 4.46622 0
    endloop
  endfacet
  facet normal 0 0 -1
    outer loop
      vertex 25 0 0
      vertex 21.1731 4.14771 0
      vertex 21.2706 4.30146 0
    endloop
  endfacet
  facet normal 0 0 -1
    outer loop
      vertex 25 0 0
      vertex 21.057 4.00741 0
      vertex 21.1731 4.14771 0
    endloop
  endfacet
  facet normal 0 0 -1
    outer loop
      vertex 25 0 0
      vertex 20.9243 3.88276 0
      vertex 21.057 4.00741 0
    endloop
  endfacet
  facet normal 0 0 -1
    outer loop
      vertex 25 0 0
      vertex 20.7769 3.77572 0
      vertex 20.9243 3.88276 0
    endloop
  endfacet
  facet normal 0 0 -1
    outer loop
      vertex 25 0 0
      vertex 20.6174 3.688 0
      vertex 20.7769 3.77572 0
    endloop
  endfacet
  facet normal 0 0 -1
    outer loop
      vertex 25 0 0
      vertex 20.4481 3.62097 0
      vertex 20.6174 3.688 0
    endloop
  endfacet
  facet normal 0 0 -1
    outer loop
      vertex 25 0 0
      vertex 20.2717 3.57568 0
      vertex 20.4481 3.62097 0
    endloop
  endfacet
  facet normal 0 0 -1
    outer loop
      vertex 25 0 0
      vertex 20.091 3.55286 0
      vertex 20.2717 3.57568 0
    endloop
  endfacet
  facet normal 0 0 -1
    outer loop
      vertex 25 0 0
      vertex 19.909 3.55286 0
      vertex 20.091 3.55286 0
    endloop
  endfacet
  facet normal 0 0 -1
    outer loop
      vertex 25 0 0
      vertex 19.7283 3.57568 0
      vertex 19.909 3.55286 0
    endloop
  endfacet
  facet normal 0 0 -1
    outer loop
      vertex 25 0 0
      vertex 19.5519 3.62097 0
      vertex 19.7283 3.57568 0
    endloop
  endfacet
  facet normal 0 0 -1
    outer loop
      vertex 25 0 0
      vertex 19.3826 3.688 0
      vertex 19.5519 3.62097 0
    endloop
  endfacet
  facet normal 0 0 -1
    outer loop
      vertex 0 0 0
      vertex 19.3826 3.688 0
      vertex 25 0 0
    endloop
  endfacet
  facet normal 0 0 -1
    outer loop
      vertex 18.5956 31.6394 0
      vertex 0 37 0
      vertex 18.5614 31.8183 0
    endloop
  endfacet
  facet normal -0 0 -1
    outer loop
      vertex 18.5614 4.81827 0
      vertex 0 0 0
      vertex 18.55 5 0
    endloop
  endfacet
  facet normal -0 0 -1
    outer loop
      vertex 18.5956 4.6394 0
      vertex 0 0 0
      vertex 18.5614 4.81827 0
    endloop
  endfacet
  facet normal -0 0 -1
    outer loop
      vertex 18.6518 4.46622 0
      vertex 0 0 0
      vertex 18.5956 4.6394 0
    endloop
  endfacet
  facet normal -0 0 -1
    outer loop
      vertex 18.7294 4.30146 0
      vertex 0 0 0
      vertex 18.6518 4.46622 0
    endloop
  endfacet
  facet normal -0 0 -1
    outer loop
      vertex 18.8269 4.14771 0
      vertex 0 0 0
      vertex 18.7294 4.30146 0
    endloop
  endfacet
  facet normal -0 0 -1
    outer loop
      vertex 18.943 4.00741 0
      vertex 0 0 0
      vertex 18.8269 4.14771 0
    endloop
  endfacet
  facet normal -0 0 -1
    outer loop
      vertex 19.0757 3.88276 0
      vertex 0 0 0
      vertex 18.943 4.00741 0
    endloop
  endfacet
  facet normal -0 0 -1
    outer loop
      vertex 19.2231 3.77572 0
      vertex 0 0 0
      vertex 19.0757 3.88276 0
    endloop
  endfacet
  facet normal -0 0 -1
    outer loop
      vertex 19.3826 3.688 0
      vertex 0 0 0
      vertex 19.2231 3.77572 0
    endloop
  endfacet
  facet normal 0 0 -1
    outer loop
      vertex 21.4044 5.3606 0
      vertex 25 0 0
      vertex 21.4386 5.18173 0
    endloop
  endfacet
  facet normal 0 0 -1
    outer loop
      vertex 21.4386 32.1817 0
      vertex 25 37 0
      vertex 21.45 32 0
    endloop
  endfacet
  facet normal 0 0 -1
    outer loop
      vertex 21.4044 32.3606 0
      vertex 25 37 0
      vertex 21.4386 32.1817 0
    endloop
  endfacet
  facet normal 0 0 -1
    outer loop
      vertex 21.3482 32.5338 0
      vertex 25 37 0
      vertex 21.4044 32.3606 0
    endloop
  endfacet
  facet normal 0 0 -1
    outer loop
      vertex 21.2706 32.6985 0
      vertex 25 37 0
      vertex 21.3482 32.5338 0
    endloop
  endfacet
  facet normal 0 0 -1
    outer loop
      vertex 21.1731 32.8523 0
      vertex 25 37 0
      vertex 21.2706 32.6985 0
    endloop
  endfacet
  facet normal 0 0 -1
    outer loop
      vertex 21.057 32.9926 0
      vertex 25 37 0
      vertex 21.1731 32.8523 0
    endloop
  endfacet
  facet normal 0 0 -1
    outer loop
      vertex 20.9243 33.1172 0
      vertex 25 37 0
      vertex 21.057 32.9926 0
    endloop
  endfacet
  facet normal 0 0 -1
    outer loop
      vertex 20.7769 33.2243 0
      vertex 25 37 0
      vertex 20.9243 33.1172 0
    endloop
  endfacet
  facet normal 0 0 -1
    outer loop
      vertex 20.6174 33.312 0
      vertex 25 37 0
      vertex 20.7769 33.2243 0
    endloop
  endfacet
  facet normal 0 0 -1
    outer loop
      vertex 20.4481 33.379 0
      vertex 25 37 0
      vertex 20.6174 33.312 0
    endloop
  endfacet
  facet normal 0 0 -1
    outer loop
      vertex 20.2717 33.4243 0
      vertex 25 37 0
      vertex 20.4481 33.379 0
    endloop
  endfacet
  facet normal 0 0 -1
    outer loop
      vertex 20.091 33.4471 0
      vertex 25 37 0
      vertex 20.2717 33.4243 0
    endloop
  endfacet
  facet normal 0 0 -1
    outer loop
      vertex 19.909 33.4471 0
      vertex 25 37 0
      vertex 20.091 33.4471 0
    endloop
  endfacet
  facet normal 0 0 -1
    outer loop
      vertex 19.7283 33.4243 0
      vertex 25 37 0
      vertex 19.909 33.4471 0
    endloop
  endfacet
  facet normal 0 0 -1
    outer loop
      vertex 19.5519 33.379 0
      vertex 25 37 0
      vertex 19.7283 33.4243 0
    endloop
  endfacet
  facet normal 0 0 -1
    outer loop
      vertex 19.3826 33.312 0
      vertex 25 37 0
      vertex 19.5519 33.379 0
    endloop
  endfacet
  facet normal 0 0 -1
    outer loop
      vertex 0 37 0
      vertex 19.3826 33.312 0
      vertex 19.2231 33.2243 0
    endloop
  endfacet
  facet normal 0 0 -1
    outer loop
      vertex 18.5614 31.8183 0
      vertex 0 37 0
      vertex 18.55 32 0
    endloop
  endfacet
  facet normal 0 0 -1
    outer loop
      vertex 18.55 32 0
      vertex 0 37 0
      vertex 18.5614 32.1817 0
    endloop
  endfacet
  facet normal 0 0 -1
    outer loop
      vertex 18.5614 32.1817 0
      vertex 0 37 0
      vertex 18.5956 32.3606 0
    endloop
  endfacet
  facet normal 0 0 -1
    outer loop
      vertex 18.5956 32.3606 0
      vertex 0 37 0
      vertex 18.6518 32.5338 0
    endloop
  endfacet
  facet normal 0 0 -1
    outer loop
      vertex 19.3826 33.312 0
      vertex 0 37 0
      vertex 25 37 0
    endloop
  endfacet
  facet normal 0 0 -1
    outer loop
      vertex 19.0757 33.1172 0
      vertex 0 37 0
      vertex 19.2231 33.2243 0
    endloop
  endfacet
  facet normal 0 0 -1
    outer loop
      vertex 18.943 32.9926 0
      vertex 0 37 0
      vertex 19.0757 33.1172 0
    endloop
  endfacet
  facet normal 0 0 -1
    outer loop
      vertex 18.8269 32.8523 0
      vertex 0 37 0
      vertex 18.943 32.9926 0
    endloop
  endfacet
  facet normal 0 0 -1
    outer loop
      vertex 18.7294 32.6985 0
      vertex 0 37 0
      vertex 18.8269 32.8523 0
    endloop
  endfacet
  facet normal 0 0 -1
    outer loop
      vertex 18.6518 32.5338 0
      vertex 0 37 0
      vertex 18.7294 32.6985 0
    endloop
  endfacet
  facet normal 0 -1 0
    outer loop
      vertex 0 0 3.5
      vertex 14 0 3
      vertex 14 0 3.5
    endloop
  endfacet
  facet normal 0 -1 0
    outer loop
      vertex 0 0 0
      vertex 14 0 3
      vertex 0 0 3.5
    endloop
  endfacet
  facet normal 0 -1 0
    outer loop
      vertex 25 0 0
      vertex 14 0 3
      vertex 0 0 0
    endloop
  endfacet
  facet normal 0 -1 0
    outer loop
      vertex 14 0 3
      vertex 25 0 0
      vertex 25 0 3
    endloop
  endfacet
  facet normal 0 0 1
    outer loop
      vertex 14 37 3.5
      vertex 12 35 3.5
      vertex 14 0 3.5
    endloop
  endfacet
  facet normal 0 0 1
    outer loop
      vertex 14 37 3.5
      vertex 2 35 3.5
      vertex 12 35 3.5
    endloop
  endfacet
  facet normal 0 0 1
    outer loop
      vertex 2 35 3.5
      vertex 0 37 3.5
      vertex 2 2 3.5
    endloop
  endfacet
  facet normal -0 0 1
    outer loop
      vertex 0 37 3.5
      vertex 2 35 3.5
      vertex 14 37 3.5
    endloop
  endfacet
  facet normal -0 0 1
    outer loop
      vertex 12 2 3.5
      vertex 14 0 3.5
      vertex 12 35 3.5
    endloop
  endfacet
  facet normal -0 0 1
    outer loop
      vertex 2 2 3.5
      vertex 14 0 3.5
      vertex 12 2 3.5
    endloop
  endfacet
  facet normal 0 0 1
    outer loop
      vertex 2 2 3.5
      vertex 0 0 3.5
      vertex 14 0 3.5
    endloop
  endfacet
  facet normal 0 0 1
    outer loop
      vertex 0 0 3.5
      vertex 2 2 3.5
      vertex 0 37 3.5
    endloop
  endfacet
  facet normal 1 -0 0
    outer loop
      vertex 14 0 3.5
      vertex 14 37 3
      vertex 14 37 3.5
    endloop
  endfacet
  facet normal 1 0 0
    outer loop
      vertex 14 37 3
      vertex 14 0 3.5
      vertex 14 0 3
    endloop
  endfacet
  facet normal -0.998026 -0.0627953 0
    outer loop
      vertex 21.45 5 0
      vertex 21.4386 5.18173 3
      vertex 21.4386 5.18173 0
    endloop
  endfacet
  facet normal -0.998026 -0.0627953 0
    outer loop
      vertex 21.4386 5.18173 3
      vertex 21.45 5 0
      vertex 21.45 5 3
    endloop
  endfacet
  facet normal 0.125328 -0.992115 0
    outer loop
      vertex 19.7283 6.42432 0
      vertex 19.909 6.44714 3
      vertex 19.7283 6.42432 3
    endloop
  endfacet
  facet normal 0.125328 -0.992115 0
    outer loop
      vertex 19.909 6.44714 3
      vertex 19.7283 6.42432 0
      vertex 19.909 6.44714 0
    endloop
  endfacet
  facet normal -0.684546 -0.728969 0
    outer loop
      vertex 20.9243 6.11724 0
      vertex 21.057 5.99259 3
      vertex 20.9243 6.11724 3
    endloop
  endfacet
  facet normal -0.684546 -0.728969 -0
    outer loop
      vertex 21.057 5.99259 3
      vertex 20.9243 6.11724 0
      vertex 21.057 5.99259 0
    endloop
  endfacet
  facet normal 0.770514 -0.637423 0
    outer loop
      vertex 18.8269 5.85229 3
      vertex 18.943 5.99259 0
      vertex 18.943 5.99259 3
    endloop
  endfacet
  facet normal 0.770514 -0.637423 0
    outer loop
      vertex 18.943 5.99259 0
      vertex 18.8269 5.85229 3
      vertex 18.8269 5.85229 0
    endloop
  endfacet
  facet normal 0.481754 -0.876307 0
    outer loop
      vertex 19.2231 6.22427 0
      vertex 19.3826 6.312 3
      vertex 19.2231 6.22427 3
    endloop
  endfacet
  facet normal 0.481754 -0.876307 0
    outer loop
      vertex 19.3826 6.312 3
      vertex 19.2231 6.22427 0
      vertex 19.3826 6.312 0
    endloop
  endfacet
  facet normal -0.90483 -0.425773 0
    outer loop
      vertex 21.3482 5.53378 0
      vertex 21.2706 5.69854 3
      vertex 21.2706 5.69854 0
    endloop
  endfacet
  facet normal -0.90483 -0.425773 0
    outer loop
      vertex 21.2706 5.69854 3
      vertex 21.3482 5.53378 0
      vertex 21.3482 5.53378 3
    endloop
  endfacet
  facet normal -0.248692 -0.968583 0
    outer loop
      vertex 20.2717 6.42432 0
      vertex 20.4481 6.37903 3
      vertex 20.2717 6.42432 3
    endloop
  endfacet
  facet normal -0.248692 -0.968583 -0
    outer loop
      vertex 20.4481 6.37903 3
      vertex 20.2717 6.42432 0
      vertex 20.4481 6.37903 0
    endloop
  endfacet
  facet normal -0.125329 -0.992115 0
    outer loop
      vertex 20.091 6.44714 0
      vertex 20.2717 6.42432 3
      vertex 20.091 6.44714 3
    endloop
  endfacet
  facet normal -0.125329 -0.992115 -0
    outer loop
      vertex 20.2717 6.42432 3
      vertex 20.091 6.44714 0
      vertex 20.2717 6.42432 0
    endloop
  endfacet
  facet normal 0.90483 -0.425773 0
    outer loop
      vertex 18.6518 5.53378 3
      vertex 18.7294 5.69854 0
      vertex 18.7294 5.69854 3
    endloop
  endfacet
  facet normal 0.90483 -0.425773 0
    outer loop
      vertex 18.7294 5.69854 0
      vertex 18.6518 5.53378 3
      vertex 18.6518 5.53378 0
    endloop
  endfacet
  facet normal 0.844327 -0.535829 0
    outer loop
      vertex 18.7294 5.69854 3
      vertex 18.8269 5.85229 0
      vertex 18.8269 5.85229 3
    endloop
  endfacet
  facet normal 0.844327 -0.535829 0
    outer loop
      vertex 18.8269 5.85229 0
      vertex 18.7294 5.69854 3
      vertex 18.7294 5.69854 0
    endloop
  endfacet
  facet normal 0.982285 -0.187391 0
    outer loop
      vertex 18.5614 5.18173 3
      vertex 18.5956 5.3606 0
      vertex 18.5956 5.3606 3
    endloop
  endfacet
  facet normal 0.982285 -0.187391 0
    outer loop
      vertex 18.5956 5.3606 0
      vertex 18.5614 5.18173 3
      vertex 18.5614 5.18173 0
    endloop
  endfacet
  facet normal 0.998027 0.0627845 0
    outer loop
      vertex 18.5614 4.81827 3
      vertex 18.55 5 0
      vertex 18.55 5 3
    endloop
  endfacet
  facet normal 0.998027 0.0627845 0
    outer loop
      vertex 18.55 5 0
      vertex 18.5614 4.81827 3
      vertex 18.5614 4.81827 0
    endloop
  endfacet
  facet normal 0.684546 -0.728969 0
    outer loop
      vertex 18.943 5.99259 0
      vertex 19.0757 6.11724 3
      vertex 18.943 5.99259 3
    endloop
  endfacet
  facet normal 0.684546 -0.728969 0
    outer loop
      vertex 19.0757 6.11724 3
      vertex 18.943 5.99259 0
      vertex 19.0757 6.11724 0
    endloop
  endfacet
  facet normal 0.248695 -0.968582 0
    outer loop
      vertex 19.5519 6.37903 0
      vertex 19.7283 6.42432 3
      vertex 19.5519 6.37903 3
    endloop
  endfacet
  facet normal 0.248695 -0.968582 0
    outer loop
      vertex 19.7283 6.42432 3
      vertex 19.5519 6.37903 0
      vertex 19.7283 6.42432 0
    endloop
  endfacet
  facet normal 0.125328 0.992115 -0
    outer loop
      vertex 19.909 3.55286 0
      vertex 19.7283 3.57568 3
      vertex 19.909 3.55286 3
    endloop
  endfacet
  facet normal 0.125328 0.992115 0
    outer loop
      vertex 19.7283 3.57568 3
      vertex 19.909 3.55286 0
      vertex 19.7283 3.57568 0
    endloop
  endfacet
  facet normal -0.248692 0.968583 0
    outer loop
      vertex 20.4481 3.62097 0
      vertex 20.2717 3.57568 3
      vertex 20.4481 3.62097 3
    endloop
  endfacet
  facet normal -0.248692 0.968583 0
    outer loop
      vertex 20.2717 3.57568 3
      vertex 20.4481 3.62097 0
      vertex 20.2717 3.57568 0
    endloop
  endfacet
  facet normal -0.951055 -0.309021 0
    outer loop
      vertex 21.4044 5.3606 0
      vertex 21.3482 5.53378 3
      vertex 21.3482 5.53378 0
    endloop
  endfacet
  facet normal -0.951055 -0.309021 0
    outer loop
      vertex 21.3482 5.53378 3
      vertex 21.4044 5.3606 0
      vertex 21.4044 5.3606 3
    endloop
  endfacet
  facet normal -0.982287 -0.187381 0
    outer loop
      vertex 21.4386 5.18173 0
      vertex 21.4044 5.3606 3
      vertex 21.4044 5.3606 0
    endloop
  endfacet
  facet normal -0.982287 -0.187381 0
    outer loop
      vertex 21.4044 5.3606 3
      vertex 21.4386 5.18173 0
      vertex 21.4386 5.18173 3
    endloop
  endfacet
  facet normal -0.770514 -0.637423 0
    outer loop
      vertex 21.1731 5.85229 0
      vertex 21.057 5.99259 3
      vertex 21.057 5.99259 0
    endloop
  endfacet
  facet normal -0.770514 -0.637423 0
    outer loop
      vertex 21.057 5.99259 3
      vertex 21.1731 5.85229 0
      vertex 21.1731 5.85229 3
    endloop
  endfacet
  facet normal -0.844322 -0.535836 0
    outer loop
      vertex 21.2706 5.69854 0
      vertex 21.1731 5.85229 3
      vertex 21.1731 5.85229 0
    endloop
  endfacet
  facet normal -0.844322 -0.535836 0
    outer loop
      vertex 21.1731 5.85229 3
      vertex 21.2706 5.69854 0
      vertex 21.2706 5.69854 3
    endloop
  endfacet
  facet normal 0 -1 0
    outer loop
      vertex 19.909 6.44714 0
      vertex 20.091 6.44714 3
      vertex 19.909 6.44714 3
    endloop
  endfacet
  facet normal 0 -1 -0
    outer loop
      vertex 20.091 6.44714 3
      vertex 19.909 6.44714 0
      vertex 20.091 6.44714 0
    endloop
  endfacet
  facet normal -0.587784 -0.809018 0
    outer loop
      vertex 20.7769 6.22427 0
      vertex 20.9243 6.11724 3
      vertex 20.7769 6.22427 3
    endloop
  endfacet
  facet normal -0.587784 -0.809018 -0
    outer loop
      vertex 20.9243 6.11724 3
      vertex 20.7769 6.22427 0
      vertex 20.9243 6.11724 0
    endloop
  endfacet
  facet normal -0.481754 -0.876307 0
    outer loop
      vertex 20.6174 6.312 0
      vertex 20.7769 6.22427 3
      vertex 20.6174 6.312 3
    endloop
  endfacet
  facet normal -0.481754 -0.876307 -0
    outer loop
      vertex 20.7769 6.22427 3
      vertex 20.6174 6.312 0
      vertex 20.7769 6.22427 0
    endloop
  endfacet
  facet normal 0.951055 -0.309021 0
    outer loop
      vertex 18.5956 5.3606 3
      vertex 18.6518 5.53378 0
      vertex 18.6518 5.53378 3
    endloop
  endfacet
  facet normal 0.951055 -0.309021 0
    outer loop
      vertex 18.6518 5.53378 0
      vertex 18.5956 5.3606 3
      vertex 18.5956 5.3606 0
    endloop
  endfacet
  facet normal 0.587784 -0.809018 0
    outer loop
      vertex 19.0757 6.11724 0
      vertex 19.2231 6.22427 3
      vertex 19.0757 6.11724 3
    endloop
  endfacet
  facet normal 0.587784 -0.809018 0
    outer loop
      vertex 19.2231 6.22427 3
      vertex 19.0757 6.11724 0
      vertex 19.2231 6.22427 0
    endloop
  endfacet
  facet normal 0.368124 -0.929777 0
    outer loop
      vertex 19.3826 6.312 0
      vertex 19.5519 6.37903 3
      vertex 19.3826 6.312 3
    endloop
  endfacet
  facet normal 0.368124 -0.929777 0
    outer loop
      vertex 19.5519 6.37903 3
      vertex 19.3826 6.312 0
      vertex 19.5519 6.37903 0
    endloop
  endfacet
  facet normal -0.998026 0.062795 0
    outer loop
      vertex 21.4386 4.81827 0
      vertex 21.45 5 3
      vertex 21.45 5 0
    endloop
  endfacet
  facet normal -0.998026 0.062795 0
    outer loop
      vertex 21.45 5 3
      vertex 21.4386 4.81827 0
      vertex 21.4386 4.81827 3
    endloop
  endfacet
  facet normal 0.90483 0.425773 0
    outer loop
      vertex 18.7294 4.30146 3
      vertex 18.6518 4.46622 0
      vertex 18.6518 4.46622 3
    endloop
  endfacet
  facet normal 0.90483 0.425773 0
    outer loop
      vertex 18.6518 4.46622 0
      vertex 18.7294 4.30146 3
      vertex 18.7294 4.30146 0
    endloop
  endfacet
  facet normal -0.481754 0.876307 0
    outer loop
      vertex 20.7769 3.77572 0
      vertex 20.6174 3.688 3
      vertex 20.7769 3.77572 3
    endloop
  endfacet
  facet normal -0.481754 0.876307 0
    outer loop
      vertex 20.6174 3.688 3
      vertex 20.7769 3.77572 0
      vertex 20.6174 3.688 0
    endloop
  endfacet
  facet normal -0.368128 0.929775 0
    outer loop
      vertex 20.6174 3.688 0
      vertex 20.4481 3.62097 3
      vertex 20.6174 3.688 3
    endloop
  endfacet
  facet normal -0.368128 0.929775 0
    outer loop
      vertex 20.4481 3.62097 3
      vertex 20.6174 3.688 0
      vertex 20.4481 3.62097 0
    endloop
  endfacet
  facet normal -0.368128 -0.929775 0
    outer loop
      vertex 20.4481 6.37903 0
      vertex 20.6174 6.312 3
      vertex 20.4481 6.37903 3
    endloop
  endfacet
  facet normal -0.368128 -0.929775 -0
    outer loop
      vertex 20.6174 6.312 3
      vertex 20.4481 6.37903 0
      vertex 20.6174 6.312 0
    endloop
  endfacet
  facet normal 0.998027 -0.0627849 0
    outer loop
      vertex 18.55 5 3
      vertex 18.5614 5.18173 0
      vertex 18.5614 5.18173 3
    endloop
  endfacet
  facet normal 0.998027 -0.0627849 0
    outer loop
      vertex 18.5614 5.18173 0
      vertex 18.55 5 3
      vertex 18.55 5 0
    endloop
  endfacet
  facet normal -0.844322 0.535836 0
    outer loop
      vertex 21.1731 4.14771 0
      vertex 21.2706 4.30146 3
      vertex 21.2706 4.30146 0
    endloop
  endfacet
  facet normal -0.844322 0.535836 0
    outer loop
      vertex 21.2706 4.30146 3
      vertex 21.1731 4.14771 0
      vertex 21.1731 4.14771 3
    endloop
  endfacet
  facet normal -0.587784 0.809018 0
    outer loop
      vertex 20.9243 3.88276 0
      vertex 20.7769 3.77572 3
      vertex 20.9243 3.88276 3
    endloop
  endfacet
  facet normal -0.587784 0.809018 0
    outer loop
      vertex 20.7769 3.77572 3
      vertex 20.9243 3.88276 0
      vertex 20.7769 3.77572 0
    endloop
  endfacet
  facet normal -0.770514 0.637423 0
    outer loop
      vertex 21.057 4.00741 0
      vertex 21.1731 4.14771 3
      vertex 21.1731 4.14771 0
    endloop
  endfacet
  facet normal -0.770514 0.637423 0
    outer loop
      vertex 21.1731 4.14771 3
      vertex 21.057 4.00741 0
      vertex 21.057 4.00741 3
    endloop
  endfacet
  facet normal 0.587784 0.809018 -0
    outer loop
      vertex 19.2231 3.77572 0
      vertex 19.0757 3.88276 3
      vertex 19.2231 3.77572 3
    endloop
  endfacet
  facet normal 0.587784 0.809018 0
    outer loop
      vertex 19.0757 3.88276 3
      vertex 19.2231 3.77572 0
      vertex 19.0757 3.88276 0
    endloop
  endfacet
  facet normal 0.684546 0.728969 -0
    outer loop
      vertex 19.0757 3.88276 0
      vertex 18.943 4.00741 3
      vertex 19.0757 3.88276 3
    endloop
  endfacet
  facet normal 0.684546 0.728969 0
    outer loop
      vertex 18.943 4.00741 3
      vertex 19.0757 3.88276 0
      vertex 18.943 4.00741 0
    endloop
  endfacet
  facet normal 0.982285 0.187391 0
    outer loop
      vertex 18.5956 4.6394 3
      vertex 18.5614 4.81827 0
      vertex 18.5614 4.81827 3
    endloop
  endfacet
  facet normal 0.982285 0.187391 0
    outer loop
      vertex 18.5614 4.81827 0
      vertex 18.5956 4.6394 3
      vertex 18.5956 4.6394 0
    endloop
  endfacet
  facet normal -0.951055 0.309021 0
    outer loop
      vertex 21.3482 4.46622 0
      vertex 21.4044 4.6394 3
      vertex 21.4044 4.6394 0
    endloop
  endfacet
  facet normal -0.951055 0.309021 0
    outer loop
      vertex 21.4044 4.6394 3
      vertex 21.3482 4.46622 0
      vertex 21.3482 4.46622 3
    endloop
  endfacet
  facet normal -0.90483 0.425773 0
    outer loop
      vertex 21.2706 4.30146 0
      vertex 21.3482 4.46622 3
      vertex 21.3482 4.46622 0
    endloop
  endfacet
  facet normal -0.90483 0.425773 0
    outer loop
      vertex 21.3482 4.46622 3
      vertex 21.2706 4.30146 0
      vertex 21.2706 4.30146 3
    endloop
  endfacet
  facet normal -0.982287 0.187381 0
    outer loop
      vertex 21.4044 4.6394 0
      vertex 21.4386 4.81827 3
      vertex 21.4386 4.81827 0
    endloop
  endfacet
  facet normal -0.982287 0.187381 0
    outer loop
      vertex 21.4386 4.81827 3
      vertex 21.4044 4.6394 0
      vertex 21.4044 4.6394 3
    endloop
  endfacet
  facet normal -0.684546 0.728969 0
    outer loop
      vertex 21.057 4.00741 0
      vertex 20.9243 3.88276 3
      vertex 21.057 4.00741 3
    endloop
  endfacet
  facet normal -0.684546 0.728969 0
    outer loop
      vertex 20.9243 3.88276 3
      vertex 21.057 4.00741 0
      vertex 20.9243 3.88276 0
    endloop
  endfacet
  facet normal -0.125329 0.992115 0
    outer loop
      vertex 20.2717 3.57568 0
      vertex 20.091 3.55286 3
      vertex 20.2717 3.57568 3
    endloop
  endfacet
  facet normal -0.125329 0.992115 0
    outer loop
      vertex 20.091 3.55286 3
      vertex 20.2717 3.57568 0
      vertex 20.091 3.55286 0
    endloop
  endfacet
  facet normal 0.770514 0.637423 0
    outer loop
      vertex 18.943 4.00741 3
      vertex 18.8269 4.14771 0
      vertex 18.8269 4.14771 3
    endloop
  endfacet
  facet normal 0.770514 0.637423 0
    outer loop
      vertex 18.8269 4.14771 0
      vertex 18.943 4.00741 3
      vertex 18.943 4.00741 0
    endloop
  endfacet
  facet normal 0.844327 0.535829 0
    outer loop
      vertex 18.8269 4.14771 3
      vertex 18.7294 4.30146 0
      vertex 18.7294 4.30146 3
    endloop
  endfacet
  facet normal 0.844327 0.535829 0
    outer loop
      vertex 18.7294 4.30146 0
      vertex 18.8269 4.14771 3
      vertex 18.8269 4.14771 0
    endloop
  endfacet
  facet normal 0.951055 0.309021 0
    outer loop
      vertex 18.6518 4.46622 3
      vertex 18.5956 4.6394 0
      vertex 18.5956 4.6394 3
    endloop
  endfacet
  facet normal 0.951055 0.309021 0
    outer loop
      vertex 18.5956 4.6394 0
      vertex 18.6518 4.46622 3
      vertex 18.6518 4.46622 0
    endloop
  endfacet
  facet normal 0 1 -0
    outer loop
      vertex 20.091 3.55286 0
      vertex 19.909 3.55286 3
      vertex 20.091 3.55286 3
    endloop
  endfacet
  facet normal 0 1 0
    outer loop
      vertex 19.909 3.55286 3
      vertex 20.091 3.55286 0
      vertex 19.909 3.55286 0
    endloop
  endfacet
  facet normal 0.368124 0.929777 -0
    outer loop
      vertex 19.5519 3.62097 0
      vertex 19.3826 3.688 3
      vertex 19.5519 3.62097 3
    endloop
  endfacet
  facet normal 0.368124 0.929777 0
    outer loop
      vertex 19.3826 3.688 3
      vertex 19.5519 3.62097 0
      vertex 19.3826 3.688 0
    endloop
  endfacet
  facet normal 0.481754 0.876307 -0
    outer loop
      vertex 19.3826 3.688 0
      vertex 19.2231 3.77572 3
      vertex 19.3826 3.688 3
    endloop
  endfacet
  facet normal 0.481754 0.876307 0
    outer loop
      vertex 19.2231 3.77572 3
      vertex 19.3826 3.688 0
      vertex 19.2231 3.77572 0
    endloop
  endfacet
  facet normal 0.248695 0.968582 -0
    outer loop
      vertex 19.7283 3.57568 0
      vertex 19.5519 3.62097 3
      vertex 19.7283 3.57568 3
    endloop
  endfacet
  facet normal 0.248695 0.968582 0
    outer loop
      vertex 19.5519 3.62097 3
      vertex 19.7283 3.57568 0
      vertex 19.5519 3.62097 0
    endloop
  endfacet
  facet normal -0.904832 -0.425769 0
    outer loop
      vertex 21.3482 32.5338 0
      vertex 21.2706 32.6985 3
      vertex 21.2706 32.6985 0
    endloop
  endfacet
  facet normal -0.904832 -0.425769 0
    outer loop
      vertex 21.2706 32.6985 3
      vertex 21.3482 32.5338 0
      vertex 21.3482 32.5338 3
    endloop
  endfacet
  facet normal -0.844319 -0.535841 0
    outer loop
      vertex 21.2706 32.6985 0
      vertex 21.1731 32.8523 3
      vertex 21.1731 32.8523 0
    endloop
  endfacet
  facet normal -0.844319 -0.535841 0
    outer loop
      vertex 21.1731 32.8523 3
      vertex 21.2706 32.6985 0
      vertex 21.2706 32.6985 3
    endloop
  endfacet
  facet normal -0.125319 -0.992117 0
    outer loop
      vertex 20.091 33.4471 0
      vertex 20.2717 33.4243 3
      vertex 20.091 33.4471 3
    endloop
  endfacet
  facet normal -0.125319 -0.992117 -0
    outer loop
      vertex 20.2717 33.4243 3
      vertex 20.091 33.4471 0
      vertex 20.2717 33.4243 0
    endloop
  endfacet
  facet normal -0.248687 -0.968584 0
    outer loop
      vertex 20.2717 33.4243 0
      vertex 20.4481 33.379 3
      vertex 20.2717 33.4243 3
    endloop
  endfacet
  facet normal -0.248687 -0.968584 -0
    outer loop
      vertex 20.4481 33.379 3
      vertex 20.2717 33.4243 0
      vertex 20.4481 33.379 0
    endloop
  endfacet
  facet normal 0.48175 -0.876309 0
    outer loop
      vertex 19.2231 33.2243 0
      vertex 19.3826 33.312 3
      vertex 19.2231 33.2243 3
    endloop
  endfacet
  facet normal 0.48175 -0.876309 0
    outer loop
      vertex 19.3826 33.312 3
      vertex 19.2231 33.2243 0
      vertex 19.3826 33.312 0
    endloop
  endfacet
  facet normal 0.951055 -0.309023 0
    outer loop
      vertex 18.5956 32.3606 3
      vertex 18.6518 32.5338 0
      vertex 18.6518 32.5338 3
    endloop
  endfacet
  facet normal 0.951055 -0.309023 0
    outer loop
      vertex 18.6518 32.5338 0
      vertex 18.5956 32.3606 3
      vertex 18.5956 32.3606 0
    endloop
  endfacet
  facet normal -0.998026 0.062795 0
    outer loop
      vertex 21.4386 31.8183 0
      vertex 21.45 32 3
      vertex 21.45 32 0
    endloop
  endfacet
  facet normal -0.998026 0.062795 0
    outer loop
      vertex 21.45 32 3
      vertex 21.4386 31.8183 0
      vertex 21.4386 31.8183 3
    endloop
  endfacet
  facet normal -0.684552 -0.728964 0
    outer loop
      vertex 20.9243 33.1172 0
      vertex 21.057 32.9926 3
      vertex 20.9243 33.1172 3
    endloop
  endfacet
  facet normal -0.684552 -0.728964 -0
    outer loop
      vertex 21.057 32.9926 3
      vertex 20.9243 33.1172 0
      vertex 21.057 32.9926 0
    endloop
  endfacet
  facet normal 0 -1 0
    outer loop
      vertex 19.909 33.4471 0
      vertex 20.091 33.4471 3
      vertex 19.909 33.4471 3
    endloop
  endfacet
  facet normal 0 -1 -0
    outer loop
      vertex 20.091 33.4471 3
      vertex 19.909 33.4471 0
      vertex 20.091 33.4471 0
    endloop
  endfacet
  facet normal -0.48175 -0.876309 0
    outer loop
      vertex 20.6174 33.312 0
      vertex 20.7769 33.2243 3
      vertex 20.6174 33.312 3
    endloop
  endfacet
  facet normal -0.48175 -0.876309 -0
    outer loop
      vertex 20.7769 33.2243 3
      vertex 20.6174 33.312 0
      vertex 20.7769 33.2243 0
    endloop
  endfacet
  facet normal 0.998027 -0.0627852 0
    outer loop
      vertex 18.55 32 3
      vertex 18.5614 32.1817 0
      vertex 18.5614 32.1817 3
    endloop
  endfacet
  facet normal 0.998027 -0.0627852 0
    outer loop
      vertex 18.5614 32.1817 0
      vertex 18.55 32 3
      vertex 18.55 32 0
    endloop
  endfacet
  facet normal 0.844324 -0.535833 0
    outer loop
      vertex 18.7294 32.6985 3
      vertex 18.8269 32.8523 0
      vertex 18.8269 32.8523 3
    endloop
  endfacet
  facet normal 0.844324 -0.535833 0
    outer loop
      vertex 18.8269 32.8523 0
      vertex 18.7294 32.6985 3
      vertex 18.7294 32.6985 0
    endloop
  endfacet
  facet normal 0.368138 -0.929771 0
    outer loop
      vertex 19.3826 33.312 0
      vertex 19.5519 33.379 3
      vertex 19.3826 33.312 3
    endloop
  endfacet
  facet normal 0.368138 -0.929771 0
    outer loop
      vertex 19.5519 33.379 3
      vertex 19.3826 33.312 0
      vertex 19.5519 33.379 0
    endloop
  endfacet
  facet normal 0.770514 -0.637423 0
    outer loop
      vertex 18.8269 32.8523 3
      vertex 18.943 32.9926 0
      vertex 18.943 32.9926 3
    endloop
  endfacet
  facet normal 0.770514 -0.637423 0
    outer loop
      vertex 18.943 32.9926 0
      vertex 18.8269 32.8523 3
      vertex 18.8269 32.8523 0
    endloop
  endfacet
  facet normal -0.587784 0.809018 0
    outer loop
      vertex 20.9243 30.8828 0
      vertex 20.7769 30.7757 3
      vertex 20.9243 30.8828 3
    endloop
  endfacet
  facet normal -0.587784 0.809018 0
    outer loop
      vertex 20.7769 30.7757 3
      vertex 20.9243 30.8828 0
      vertex 20.7769 30.7757 0
    endloop
  endfacet
  facet normal 0.587784 0.809018 -0
    outer loop
      vertex 19.2231 30.7757 0
      vertex 19.0757 30.8828 3
      vertex 19.2231 30.7757 3
    endloop
  endfacet
  facet normal 0.587784 0.809018 0
    outer loop
      vertex 19.0757 30.8828 3
      vertex 19.2231 30.7757 0
      vertex 19.0757 30.8828 0
    endloop
  endfacet
  facet normal -0.951055 -0.309023 0
    outer loop
      vertex 21.4044 32.3606 0
      vertex 21.3482 32.5338 3
      vertex 21.3482 32.5338 0
    endloop
  endfacet
  facet normal -0.951055 -0.309023 0
    outer loop
      vertex 21.3482 32.5338 3
      vertex 21.4044 32.3606 0
      vertex 21.4044 32.3606 3
    endloop
  endfacet
  facet normal -0.770514 -0.637423 0
    outer loop
      vertex 21.1731 32.8523 0
      vertex 21.057 32.9926 3
      vertex 21.057 32.9926 0
    endloop
  endfacet
  facet normal -0.770514 -0.637423 0
    outer loop
      vertex 21.057 32.9926 3
      vertex 21.1731 32.8523 0
      vertex 21.1731 32.8523 3
    endloop
  endfacet
  facet normal 0.125317 -0.992117 0
    outer loop
      vertex 19.7283 33.4243 0
      vertex 19.909 33.4471 3
      vertex 19.7283 33.4243 3
    endloop
  endfacet
  facet normal 0.125317 -0.992117 0
    outer loop
      vertex 19.909 33.4471 3
      vertex 19.7283 33.4243 0
      vertex 19.909 33.4471 0
    endloop
  endfacet
  facet normal -0.368141 -0.92977 0
    outer loop
      vertex 20.4481 33.379 0
      vertex 20.6174 33.312 3
      vertex 20.4481 33.379 3
    endloop
  endfacet
  facet normal -0.368141 -0.92977 -0
    outer loop
      vertex 20.6174 33.312 3
      vertex 20.4481 33.379 0
      vertex 20.6174 33.312 0
    endloop
  endfacet
  facet normal -0.587777 -0.809023 0
    outer loop
      vertex 20.7769 33.2243 0
      vertex 20.9243 33.1172 3
      vertex 20.7769 33.2243 3
    endloop
  endfacet
  facet normal -0.587777 -0.809023 -0
    outer loop
      vertex 20.9243 33.1172 3
      vertex 20.7769 33.2243 0
      vertex 20.9243 33.1172 0
    endloop
  endfacet
  facet normal 0.982286 -0.18739 0
    outer loop
      vertex 18.5614 32.1817 3
      vertex 18.5956 32.3606 0
      vertex 18.5956 32.3606 3
    endloop
  endfacet
  facet normal 0.982286 -0.18739 0
    outer loop
      vertex 18.5956 32.3606 0
      vertex 18.5614 32.1817 3
      vertex 18.5614 32.1817 0
    endloop
  endfacet
  facet normal 0.904832 -0.425769 0
    outer loop
      vertex 18.6518 32.5338 3
      vertex 18.7294 32.6985 0
      vertex 18.7294 32.6985 3
    endloop
  endfacet
  facet normal 0.904832 -0.425769 0
    outer loop
      vertex 18.7294 32.6985 0
      vertex 18.6518 32.5338 3
      vertex 18.6518 32.5338 0
    endloop
  endfacet
  facet normal 0.24869 -0.968583 0
    outer loop
      vertex 19.5519 33.379 0
      vertex 19.7283 33.4243 3
      vertex 19.5519 33.379 3
    endloop
  endfacet
  facet normal 0.24869 -0.968583 0
    outer loop
      vertex 19.7283 33.4243 3
      vertex 19.5519 33.379 0
      vertex 19.7283 33.4243 0
    endloop
  endfacet
  facet normal 0.684552 -0.728964 0
    outer loop
      vertex 18.943 32.9926 0
      vertex 19.0757 33.1172 3
      vertex 18.943 32.9926 3
    endloop
  endfacet
  facet normal 0.684552 -0.728964 0
    outer loop
      vertex 19.0757 33.1172 3
      vertex 18.943 32.9926 0
      vertex 19.0757 33.1172 0
    endloop
  endfacet
  facet normal 0.587777 -0.809023 0
    outer loop
      vertex 19.0757 33.1172 0
      vertex 19.2231 33.2243 3
      vertex 19.0757 33.1172 3
    endloop
  endfacet
  facet normal 0.587777 -0.809023 0
    outer loop
      vertex 19.2231 33.2243 3
      vertex 19.0757 33.1172 0
      vertex 19.2231 33.2243 0
    endloop
  endfacet
  facet normal -0.998026 -0.0627956 0
    outer loop
      vertex 21.45 32 0
      vertex 21.4386 32.1817 3
      vertex 21.4386 32.1817 0
    endloop
  endfacet
  facet normal -0.998026 -0.0627956 0
    outer loop
      vertex 21.4386 32.1817 3
      vertex 21.45 32 0
      vertex 21.45 32 3
    endloop
  endfacet
  facet normal -0.982287 0.187382 0
    outer loop
      vertex 21.4044 31.6394 0
      vertex 21.4386 31.8183 3
      vertex 21.4386 31.8183 0
    endloop
  endfacet
  facet normal -0.982287 0.187382 0
    outer loop
      vertex 21.4386 31.8183 3
      vertex 21.4044 31.6394 0
      vertex 21.4044 31.6394 3
    endloop
  endfacet
  facet normal -0.844322 0.535836 0
    outer loop
      vertex 21.1731 31.1477 0
      vertex 21.2706 31.3015 3
      vertex 21.2706 31.3015 0
    endloop
  endfacet
  facet normal -0.844322 0.535836 0
    outer loop
      vertex 21.2706 31.3015 3
      vertex 21.1731 31.1477 0
      vertex 21.1731 31.1477 3
    endloop
  endfacet
  facet normal -0.125339 0.992114 0
    outer loop
      vertex 20.2717 30.5757 0
      vertex 20.091 30.5529 3
      vertex 20.2717 30.5757 3
    endloop
  endfacet
  facet normal -0.125339 0.992114 0
    outer loop
      vertex 20.091 30.5529 3
      vertex 20.2717 30.5757 0
      vertex 20.091 30.5529 0
    endloop
  endfacet
  facet normal 0.90483 0.425773 0
    outer loop
      vertex 18.7294 31.3015 3
      vertex 18.6518 31.4662 0
      vertex 18.6518 31.4662 3
    endloop
  endfacet
  facet normal 0.90483 0.425773 0
    outer loop
      vertex 18.6518 31.4662 0
      vertex 18.7294 31.3015 3
      vertex 18.7294 31.3015 0
    endloop
  endfacet
  facet normal 0.684546 0.728969 -0
    outer loop
      vertex 19.0757 30.8828 0
      vertex 18.943 31.0074 3
      vertex 19.0757 30.8828 3
    endloop
  endfacet
  facet normal 0.684546 0.728969 0
    outer loop
      vertex 18.943 31.0074 3
      vertex 19.0757 30.8828 0
      vertex 18.943 31.0074 0
    endloop
  endfacet
  facet normal -0.248687 0.968584 0
    outer loop
      vertex 20.4481 30.621 0
      vertex 20.2717 30.5757 3
      vertex 20.4481 30.621 3
    endloop
  endfacet
  facet normal -0.248687 0.968584 0
    outer loop
      vertex 20.2717 30.5757 3
      vertex 20.4481 30.621 0
      vertex 20.2717 30.5757 0
    endloop
  endfacet
  facet normal -0.481758 0.876304 0
    outer loop
      vertex 20.7769 30.7757 0
      vertex 20.6174 30.688 3
      vertex 20.7769 30.7757 3
    endloop
  endfacet
  facet normal -0.481758 0.876304 0
    outer loop
      vertex 20.6174 30.688 3
      vertex 20.7769 30.7757 0
      vertex 20.6174 30.688 0
    endloop
  endfacet
  facet normal -0.982287 -0.18738 0
    outer loop
      vertex 21.4386 32.1817 0
      vertex 21.4044 32.3606 3
      vertex 21.4044 32.3606 0
    endloop
  endfacet
  facet normal -0.982287 -0.18738 0
    outer loop
      vertex 21.4044 32.3606 3
      vertex 21.4386 32.1817 0
      vertex 21.4386 32.1817 3
    endloop
  endfacet
  facet normal 0.998027 0.0627845 0
    outer loop
      vertex 18.5614 31.8183 3
      vertex 18.55 32 0
      vertex 18.55 32 3
    endloop
  endfacet
  facet normal 0.998027 0.0627845 0
    outer loop
      vertex 18.55 32 0
      vertex 18.5614 31.8183 3
      vertex 18.5614 31.8183 0
    endloop
  endfacet
  facet normal -0.90483 0.425773 0
    outer loop
      vertex 21.2706 31.3015 0
      vertex 21.3482 31.4662 3
      vertex 21.3482 31.4662 0
    endloop
  endfacet
  facet normal -0.90483 0.425773 0
    outer loop
      vertex 21.3482 31.4662 3
      vertex 21.2706 31.3015 0
      vertex 21.2706 31.3015 3
    endloop
  endfacet
  facet normal -0.951056 0.30902 0
    outer loop
      vertex 21.3482 31.4662 0
      vertex 21.4044 31.6394 3
      vertex 21.4044 31.6394 0
    endloop
  endfacet
  facet normal -0.951056 0.30902 0
    outer loop
      vertex 21.4044 31.6394 3
      vertex 21.3482 31.4662 0
      vertex 21.3482 31.4662 3
    endloop
  endfacet
  facet normal -0.770514 0.637423 0
    outer loop
      vertex 21.057 31.0074 0
      vertex 21.1731 31.1477 3
      vertex 21.1731 31.1477 0
    endloop
  endfacet
  facet normal -0.770514 0.637423 0
    outer loop
      vertex 21.1731 31.1477 3
      vertex 21.057 31.0074 0
      vertex 21.057 31.0074 3
    endloop
  endfacet
  facet normal 0.36812 0.929778 -0
    outer loop
      vertex 19.5519 30.621 0
      vertex 19.3826 30.688 3
      vertex 19.5519 30.621 3
    endloop
  endfacet
  facet normal 0.36812 0.929778 0
    outer loop
      vertex 19.3826 30.688 3
      vertex 19.5519 30.621 0
      vertex 19.3826 30.688 0
    endloop
  endfacet
  facet normal 0.125338 0.992114 -0
    outer loop
      vertex 19.909 30.5529 0
      vertex 19.7283 30.5757 3
      vertex 19.909 30.5529 3
    endloop
  endfacet
  facet normal 0.125338 0.992114 0
    outer loop
      vertex 19.7283 30.5757 3
      vertex 19.909 30.5529 0
      vertex 19.7283 30.5757 0
    endloop
  endfacet
  facet normal -0.368123 0.929777 0
    outer loop
      vertex 20.6174 30.688 0
      vertex 20.4481 30.621 3
      vertex 20.6174 30.688 3
    endloop
  endfacet
  facet normal -0.368123 0.929777 0
    outer loop
      vertex 20.4481 30.621 3
      vertex 20.6174 30.688 0
      vertex 20.4481 30.621 0
    endloop
  endfacet
  facet normal -0.684546 0.728969 0
    outer loop
      vertex 21.057 31.0074 0
      vertex 20.9243 30.8828 3
      vertex 21.057 31.0074 3
    endloop
  endfacet
  facet normal -0.684546 0.728969 0
    outer loop
      vertex 20.9243 30.8828 3
      vertex 21.057 31.0074 0
      vertex 20.9243 30.8828 0
    endloop
  endfacet
  facet normal 0 1 -0
    outer loop
      vertex 20.091 30.5529 0
      vertex 19.909 30.5529 3
      vertex 20.091 30.5529 3
    endloop
  endfacet
  facet normal 0 1 0
    outer loop
      vertex 19.909 30.5529 3
      vertex 20.091 30.5529 0
      vertex 19.909 30.5529 0
    endloop
  endfacet
  facet normal 0.481758 0.876304 -0
    outer loop
      vertex 19.3826 30.688 0
      vertex 19.2231 30.7757 3
      vertex 19.3826 30.688 3
    endloop
  endfacet
  facet normal 0.481758 0.876304 0
    outer loop
      vertex 19.2231 30.7757 3
      vertex 19.3826 30.688 0
      vertex 19.2231 30.7757 0
    endloop
  endfacet
  facet normal 0.951056 0.30902 0
    outer loop
      vertex 18.6518 31.4662 3
      vertex 18.5956 31.6394 0
      vertex 18.5956 31.6394 3
    endloop
  endfacet
  facet normal 0.951056 0.30902 0
    outer loop
      vertex 18.5956 31.6394 0
      vertex 18.6518 31.4662 3
      vertex 18.6518 31.4662 0
    endloop
  endfacet
  facet normal 0.982285 0.187392 0
    outer loop
      vertex 18.5956 31.6394 3
      vertex 18.5614 31.8183 0
      vertex 18.5614 31.8183 3
    endloop
  endfacet
  facet normal 0.982285 0.187392 0
    outer loop
      vertex 18.5614 31.8183 0
      vertex 18.5956 31.6394 3
      vertex 18.5956 31.6394 0
    endloop
  endfacet
  facet normal 0.770514 0.637423 0
    outer loop
      vertex 18.943 31.0074 3
      vertex 18.8269 31.1477 0
      vertex 18.8269 31.1477 3
    endloop
  endfacet
  facet normal 0.770514 0.637423 0
    outer loop
      vertex 18.8269 31.1477 0
      vertex 18.943 31.0074 3
      vertex 18.943 31.0074 0
    endloop
  endfacet
  facet normal 0.844327 0.535829 0
    outer loop
      vertex 18.8269 31.1477 3
      vertex 18.7294 31.3015 0
      vertex 18.7294 31.3015 3
    endloop
  endfacet
  facet normal 0.844327 0.535829 0
    outer loop
      vertex 18.7294 31.3015 0
      vertex 18.8269 31.1477 3
      vertex 18.8269 31.1477 0
    endloop
  endfacet
  facet normal 0.24869 0.968583 -0
    outer loop
      vertex 19.7283 30.5757 0
      vertex 19.5519 30.621 3
      vertex 19.7283 30.5757 3
    endloop
  endfacet
  facet normal 0.24869 0.968583 0
    outer loop
      vertex 19.5519 30.621 3
      vertex 19.7283 30.5757 0
      vertex 19.5519 30.621 0
    endloop
  endfacet
  facet normal 1 -0 0
    outer loop
      vertex 2 2 3.5
      vertex 2 35 0.5
      vertex 2 35 3.5
    endloop
  endfacet
  facet normal 1 0 0
    outer loop
      vertex 2 35 0.5
      vertex 2 2 3.5
      vertex 2 2 0.5
    endloop
  endfacet
  facet normal -1 0 0
    outer loop
      vertex 12 2 0.5
      vertex 12 35 3.5
      vertex 12 35 0.5
    endloop
  endfacet
  facet normal -1 -0 0
    outer loop
      vertex 12 35 3.5
      vertex 12 2 0.5
      vertex 12 2 3.5
    endloop
  endfacet
  facet normal -0 0 1
    outer loop
      vertex 2 35 0.5
      vertex 12 2 0.5
      vertex 12 35 0.5
    endloop
  endfacet
  facet normal 0 0 1
    outer loop
      vertex 12 2 0.5
      vertex 2 35 0.5
      vertex 2 2 0.5
    endloop
  endfacet
  facet normal 0 1 -0
    outer loop
      vertex 12 2 0.5
      vertex 2 2 3.5
      vertex 12 2 3.5
    endloop
  endfacet
  facet normal 0 1 0
    outer loop
      vertex 2 2 3.5
      vertex 12 2 0.5
      vertex 2 2 0.5
    endloop
  endfacet
  facet normal 0 -1 0
    outer loop
      vertex 2 35 0.5
      vertex 12 35 3.5
      vertex 2 35 3.5
    endloop
  endfacet
  facet normal 0 -1 -0
    outer loop
      vertex 12 35 3.5
      vertex 2 35 0.5
      vertex 12 35 0.5
    endloop
  endfacet
endsolid OpenSCAD_Model
