solid OpenSCAD_Model
  facet normal 1 0 0
    outer loop
      vertex 1 34 24
      vertex 1 5 15
      vertex 1 34 2
    endloop
  endfacet
  facet normal 1 -0 0
    outer loop
      vertex 1 2 24
      vertex 1 5 15
      vertex 1 34 24
    endloop
  endfacet
  facet normal 1 0 0
    outer loop
      vertex 1 5 15
      vertex 1 2 24
      vertex 1 2 15
    endloop
  endfacet
  facet normal 1 0 0
    outer loop
      vertex 1 34 2
      vertex 1 5 15
      vertex 1 5 2
    endloop
  endfacet
  facet normal -1 0 0
    outer loop
      vertex 41 5 15
      vertex 41 34 2
      vertex 41 5 2
    endloop
  endfacet
  facet normal -1 0 0
    outer loop
      vertex 41 34 2
      vertex 41 5 15
      vertex 41 34 24
    endloop
  endfacet
  facet normal -1 0 0
    outer loop
      vertex 41 2 24
      vertex 41 5 15
      vertex 41 2 15
    endloop
  endfacet
  facet normal -1 0 0
    outer loop
      vertex 41 5 15
      vertex 41 2 24
      vertex 41 34 24
    endloop
  endfacet
  facet normal 0 -1 0
    outer loop
      vertex 1 34 2
      vertex 41 34 24
      vertex 1 34 24
    endloop
  endfacet
  facet normal 0 -1 -0
    outer loop
      vertex 41 34 24
      vertex 1 34 2
      vertex 41 34 2
    endloop
  endfacet
  facet normal 0 0 1
    outer loop
      vertex 41 34 2
      vertex 31 19.5 2
      vertex 41 5 2
    endloop
  endfacet
  facet normal 0 0 1
    outer loop
      vertex 41 34 2
      vertex 16 19.5 2
      vertex 31 19.5 2
    endloop
  endfacet
  facet normal 0 0 1
    outer loop
      vertex 1 5 2
      vertex 16 19.5 2
      vertex 1 34 2
    endloop
  endfacet
  facet normal -0 0 1
    outer loop
      vertex 1 34 2
      vertex 16 19.5 2
      vertex 41 34 2
    endloop
  endfacet
  facet normal -0 0 1
    outer loop
      vertex 31 11.5 2
      vertex 41 5 2
      vertex 31 19.5 2
    endloop
  endfacet
  facet normal -0 0 1
    outer loop
      vertex 16 11.5 2
      vertex 41 5 2
      vertex 31 11.5 2
    endloop
  endfacet
  facet normal 0 0 1
    outer loop
      vertex 16 11.5 2
      vertex 1 5 2
      vertex 41 5 2
    endloop
  endfacet
  facet normal 0 0 1
    outer loop
      vertex 16 19.5 2
      vertex 1 5 2
      vertex 16 11.5 2
    endloop
  endfacet
  facet normal 0 1 -0
    outer loop
      vertex 41 5 2
      vertex 1 5 15
      vertex 41 5 15
    endloop
  endfacet
  facet normal 0 1 0
    outer loop
      vertex 1 5 15
      vertex 41 5 2
      vertex 1 5 2
    endloop
  endfacet
  facet normal -0 0 1
    outer loop
      vertex 1 5 15
      vertex 41 2 15
      vertex 41 5 15
    endloop
  endfacet
  facet normal 0 0 1
    outer loop
      vertex 41 2 15
      vertex 1 5 15
      vertex 1 2 15
    endloop
  endfacet
  facet normal 0 1 -0
    outer loop
      vertex 41 2 15
      vertex 1 2 24
      vertex 41 2 24
    endloop
  endfacet
  facet normal 0 1 0
    outer loop
      vertex 1 2 24
      vertex 41 2 15
      vertex 1 2 15
    endloop
  endfacet
  facet normal 1 -0 0
    outer loop
      vertex 16 11.5 2
      vertex 16 19.5 0
      vertex 16 19.5 2
    endloop
  endfacet
  facet normal 1 0 0
    outer loop
      vertex 16 19.5 0
      vertex 16 11.5 2
      vertex 16 11.5 0
    endloop
  endfacet
  facet normal -1 0 0
    outer loop
      vertex 31 11.5 0
      vertex 31 19.5 2
      vertex 31 19.5 0
    endloop
  endfacet
  facet normal -1 -0 0
    outer loop
      vertex 31 19.5 2
      vertex 31 11.5 0
      vertex 31 11.5 2
    endloop
  endfacet
  facet normal 0 -1 0
    outer loop
      vertex 16 19.5 0
      vertex 31 19.5 2
      vertex 16 19.5 2
    endloop
  endfacet
  facet normal 0 -1 -0
    outer loop
      vertex 31 19.5 2
      vertex 16 19.5 0
      vertex 31 19.5 0
    endloop
  endfacet
  facet normal 0 0 -1
    outer loop
      vertex 31 19.5 0
      vertex 42 0 0
      vertex 31 11.5 0
    endloop
  endfacet
  facet normal 0 0 -1
    outer loop
      vertex 42 0 0
      vertex 16 11.5 0
      vertex 31 11.5 0
    endloop
  endfacet
  facet normal -0 0 -1
    outer loop
      vertex 16 11.5 0
      vertex 0 0 0
      vertex 16 19.5 0
    endloop
  endfacet
  facet normal 0 0 -1
    outer loop
      vertex 0 0 0
      vertex 16 11.5 0
      vertex 42 0 0
    endloop
  endfacet
  facet normal 0 0 -1
    outer loop
      vertex 42 0 0
      vertex 31 19.5 0
      vertex 42 35 0
    endloop
  endfacet
  facet normal 0 0 -1
    outer loop
      vertex 16 19.5 0
      vertex 42 35 0
      vertex 31 19.5 0
    endloop
  endfacet
  facet normal 0 0 -1
    outer loop
      vertex 16 19.5 0
      vertex 0 35 0
      vertex 42 35 0
    endloop
  endfacet
  facet normal 0 0 -1
    outer loop
      vertex 0 35 0
      vertex 16 19.5 0
      vertex 0 0 0
    endloop
  endfacet
  facet normal 0 1 -0
    outer loop
      vertex 31 11.5 0
      vertex 16 11.5 2
      vertex 31 11.5 2
    endloop
  endfacet
  facet normal 0 1 0
    outer loop
      vertex 16 11.5 2
      vertex 31 11.5 0
      vertex 16 11.5 0
    endloop
  endfacet
  facet normal -1 0 0
    outer loop
      vertex 0 0 0
      vertex 0 35 24
      vertex 0 35 0
    endloop
  endfacet
  facet normal -1 -0 0
    outer loop
      vertex 0 35 24
      vertex 0 0 0
      vertex 0 0 24
    endloop
  endfacet
  facet normal 0 0 1
    outer loop
      vertex 41 2 24
      vertex 42 35 24
      vertex 41 34 24
    endloop
  endfacet
  facet normal 0 0 1
    outer loop
      vertex 42 35 24
      vertex 1 34 24
      vertex 41 34 24
    endloop
  endfacet
  facet normal 0 0 1
    outer loop
      vertex 1 34 24
      vertex 0 35 24
      vertex 1 2 24
    endloop
  endfacet
  facet normal -0 0 1
    outer loop
      vertex 0 35 24
      vertex 1 34 24
      vertex 42 35 24
    endloop
  endfacet
  facet normal 0 0 1
    outer loop
      vertex 42 35 24
      vertex 41 2 24
      vertex 42 0 24
    endloop
  endfacet
  facet normal -0 0 1
    outer loop
      vertex 1 2 24
      vertex 42 0 24
      vertex 41 2 24
    endloop
  endfacet
  facet normal 0 0 1
    outer loop
      vertex 1 2 24
      vertex 0 0 24
      vertex 42 0 24
    endloop
  endfacet
  facet normal 0 0 1
    outer loop
      vertex 0 0 24
      vertex 1 2 24
      vertex 0 35 24
    endloop
  endfacet
  facet normal 1 -0 0
    outer loop
      vertex 42 0 24
      vertex 42 35 0
      vertex 42 35 24
    endloop
  endfacet
  facet normal 1 0 0
    outer loop
      vertex 42 35 0
      vertex 42 0 24
      vertex 42 0 0
    endloop
  endfacet
  facet normal 0 -1 0
    outer loop
      vertex 0 0 0
      vertex 42 0 24
      vertex 0 0 24
    endloop
  endfacet
  facet normal 0 -1 -0
    outer loop
      vertex 42 0 24
      vertex 0 0 0
      vertex 42 0 0
    endloop
  endfacet
  facet normal 0 1 -0
    outer loop
      vertex 42 35 0
      vertex 0 35 24
      vertex 42 35 24
    endloop
  endfacet
  facet normal 0 1 0
    outer loop
      vertex 0 35 24
      vertex 42 35 0
      vertex 0 35 0
    endloop
  endfacet
endsolid OpenSCAD_Model
